{
.appVersion = "3208";
.formatVersion = 3;
DisplayStrings = (
"·Ŀŀ/periodcentered.loclCAT/periodcentered.loclCAT.case ď/caroncomb.alt"
);
axes = (
{
name = Weight;
tag = wght;
}
);
classes = (
{
automatic = 1;
code = "A B C D E F G H I J K L M N O P Q R S T U V W X Y Z Aacute Abreve Acircumflex Adieresis Agrave Amacron Aogonek Aring Atilde AE AEacute Cacute Ccaron Ccedilla Cdotaccent Eth Dcaron Dcroat Eacute Ebreve Ecaron Ecircumflex Edieresis Edotaccent Egrave Emacron Eogonek Etilde Schwa Gbreve Gcommaaccent Gdotaccent Hbar IJ Iacute Ibreve Icircumflex Idieresis Idotaccent Igrave Imacron Iogonek Itilde Kcommaaccent Lacute Lcaron Lcommaaccent Ldot Lslash Nacute Ncaron Ncommaaccent Ntilde Eng Oacute Obreve Ocircumflex Odieresis Ograve Ohungarumlaut Omacron Oslash Otilde OE Thorn Racute Rcaron Rcommaaccent Sacute Scaron Scedilla Scommaaccent Germandbls Tcaron Tcedilla Tcommaaccent Uacute Ubreve Ucircumflex Udieresis Ugrave Uhungarumlaut Umacron Uogonek Uring Utilde Wacute Wcircumflex Wdieresis Wgrave Yacute Ycircumflex Ydieresis Ygrave Ytilde Zacute Zcaron Zdotaccent";
name = Uppercase;
},
{
automatic = 1;

glyphs = (
{
glyphname = A;
kernLeft = A;
kernRight = A;
lastChange = "2023-01-24 20:59:15 +0000";
layers = (
{
associatedMasterId = "897F30B6-1700-43C7-9C60-A606C7C7F267";
layerId = "02575D39-7864-4EEF-9012-950E1A85E8A1";
name = public.background;
shapes = (
{
closed = 1;
nodes = (
(106,0,l),
(343,654,l),
(309,654,l),
(546,0,l),
(620,0,l),
(362,700,l),
(291,700,l),
(32,0,l)
);
},
{
closed = 1;
nodes = (
(500,166,l),
(479,224,l),
(173,224,l),
(152,166,l)
);
}
);
width = 712;
},
{
anchors = (
{
name = ogonek;
pos = (647,0);
},
{
name = top;
pos = (408,700);
}
);
layerId = "BD1314B0-2F62-4F06-89D3-8B766BA843F0";
shapes = (
{
closed = 1;
nodes = (
(125,0,l),
(428,624,l),
(372,624,l),
(500,0,l),
(646,0,l),
(489,700,l),
(329,700,l),
(-24,0,l)
);
},
{
closed = 1;
nodes = (
(544,157,l),
(523,266,l),
(163,266,l),
(111,157,l)
);
}
);
width = 694;
},
{
anchors = (
{
name = ogonek;
pos = (606,0);
},
{
name = top;
pos = (412,700);
}
);
layerId = "897F30B6-1700-43C7-9C60-A606C7C7F267";
shapes = (
{
closed = 1;
nodes = (
(92,0,l),
(421,654,l),
(387,654,l),
(532,0,l),
(606,0,l),
(447,700,l),
(375,700,l),
(18,0,l)
);
},
{
closed = 1;
nodes = (
(513,186,l),
(499,244,l),
(194,244,l),
(165,186,l)
);
}
);
width = 694;
}
);
unicode = 65;
},
{
glyphname = B;
kernLeft = H;
lastChange = "2023-01-28 22:03:00 +0000";
layers = (
{
associatedMasterId = "897F30B6-1700-43C7-9C60-A606C7C7F267";
layerId = "C2F9BAFC-5580-4CF8-8BE5-F0A0A7E63D04";
name = "#instance";
shapes = (
{
closed = 1;
nodes = (
(367,0,ls),
(515,0,o),
(598,78,o),
(598,191,cs),
(598,283,o),
(528,361,o),
(432,364,c),
(416,353,l),
(505,360,o),
(582,414,o),
(582,520,cs),
(582,627,o),
(502,700,o),
(357,700,cs),
(66,700,l),
(66,0,l)
);
},
{
closed = 1;
nodes = (
(206,305,l),
(343,305,ls),
(413,305,o),
(456,268,o),
(456,208,cs),
(456,147,o),
(415,114,o),
(345,114,cs),
(206,114,l)
);
},
{
closed = 1;
nodes = (
(206,588,l),
(333,588,ls),
(403,588,o),
(439,555,o),
(439,499,cs),
(439,441,o),
(402,409,o),
(334,409,cs),
(206,409,l)
);
}
);
width = 639;
},
{
associatedMasterId = "897F30B6-1700-43C7-9C60-A606C7C7F267";
layerId = "02575D39-7864-4EEF-9012-950E1A85E8A1";
name = public.background;
shapes = (
{
closed = 1;
nodes = (
(318,0,ls),
(465,0,o),
(544,82,o),
(544,187,cs),
(544,284,o),
(467,362,o),
(378,364,c),
(365,354,l),
(447,363,o),
(528,414,o),
(528,523,c),
(528,621,o),
(458,699,o),
(311,699,cs),
(76,699,l),
(76,0,l)
);
},
{
closed = 1;
nodes = (
(146,332,l),
(310,332,ls),
(410,332,o),
(474,278,o),
(474,194,cs),
(474,110,o),
(414,59,o),
(313,59,cs),
(146,59,l)
);
},
{
closed = 1;
nodes = (
(146,640,l),
(306,640,ls),
(407,640,o),
(457,591,o),
(457,516,c),
(457,438,o),
(404,390,o),
(309,390,cs),
(146,390,l)
);
}
);
width = 593;
},
{
layerId = "BD1314B0-2F62-4F06-89D3-8B766BA843F0";
shapes = (
{
closed = 1;
nodes = (
(323,0,ls),
(471,0,o),
(561,74,o),
(577,183,cs),
(591,279,o),
(528,360,o),
(433,364,c),
(421,353,l),
(511,359,o),
(592,410,o),
(607,512,cs),
(623,623,o),
(550,700,o),
(405,700,cs),
(117,700,l),
(18,0,l)
);
},
{
closed = 1;
nodes = (
(202,305,l),
(341,305,ls),
(411,305,o),
(447,272,o),
(439,216,cs),
(430,151,o),
(381,114,o),
(310,114,cs),
(175,114,l)
);
},
{
closed = 1;
nodes = (
(241,587,l),
(372,587,ls),
(441,587,o),
(470,558,o),
(462,506,cs),
(453,445,o),
(409,409,o),
(341,409,cs),
(216,409,l)
);
}
);
width = 613;
},
{
layerId = "897F30B6-1700-43C7-9C60-A606C7C7F267";
shapes = (
{
closed = 1;
nodes = (
(293,0,ls),
(440,0,o),
(532,86,o),
(547,191,cs),
(561,287,o),
(493,362,o),
(405,364,c),
(390,354,l),
(474,362,o),
(562,414,o),
(577,523,cs),
(590,621,o),
(532,700,o),
(385,700,cs),
(150,700,l),
(52,0,l)
);
},
{
closed = 1;
nodes = (
(168,332,l),
(332,332,ls),
(432,332,o),
(486,278,o),
(475,194,cs),
(464,110,o),
(398,59,o),
(297,59,cs),
(130,59,l)
);
},
{
closed = 1;
nodes = (
(211,641,l),
(372,641,ls),
(473,641,o),
(514,591,o),
(504,516,cs),
(493,437,o),
(434,390,o),
(339,390,cs),
(176,390,l)
);
}
);
width = 613;
}
);
unicode = 66;
},
{
glyphname = C;
kernLeft = O;
kernRight = C;
lastChange = "2023-01-28 20:12:23 +0000";
layers = (
{
associatedMasterId = "897F30B6-1700-43C7-9C60-A606C7C7F267";
layerId = "02575D39-7864-4EEF-9012-950E1A85E8A1";
name = public.background;
shapes = (
{
closed = 1;
nodes = (
(523,-12,o),
(639,66,o),
(679,198,c),
(599,198,l),
(568,107,o),
(486,49,o),
(377,49,cs),
(232,49,o),
(117,162,o),
(117,350,cs),
(117,538,o),
(232,651,o),
(377,651,cs),
(486,651,o),
(568,593,o),
(599,500,c),
(679,500,l),
(639,634,o),
(523,712,o),
(377,712,cs),
(189,712,o),
(45,565,o),
(45,350,cs),
(45,134,o),
(189,-12,o),
(377,-12,cs)
);
}
);
width = 735;
},
{
anchors = (
{
name = bottom;
pos = (356,0);
},
{
name = top;
pos = (455,700);
}
);
guides = (
{
pos = (18,1141);
}
);
layerId = "BD1314B0-2F62-4F06-89D3-8B766BA843F0";
shapes = (
{
closed = 1;
nodes = (
(526,-12,o),
(653,80,o),
(699,228,c),
(542,228,l),
(516,156,o),
(453,114,o),
(363,114,cs),
(242,114,o),
(183,199,o),
(203,342,cs),
(224,492,o),
(314,585,o),
(441,585,cs),
(526,585,o),
(573,539,o),
(578,465,c),
(730,465,l),
(726,620,o),
(622,712,o),
(449,712,cs),
(239,712,o),
(92,567,o),
(64,356,cs),
(35,139,o),
(143,-12,o),
(358,-12,cs)
);
}
);
width = 748;
},
{
anchors = (
{
name = bottom;
pos = (359,0);
},
{
name = top;
pos = (458,700);
}
);
guides = (
{
pos = (29,358);
}
);
layerId = "897F30B6-1700-43C7-9C60-A606C7C7F267";
shapes = (
{
closed = 1;
nodes = (
(516,-12,o),
(628,66,o),
(680,207,c),
(602,207,l),
(563,105,o),
(485,49,o),
(367,49,cs),
(209,49,o),
(123,162,o),
(149,350,cs),
(175,537,o),
(294,651,o),
(451,651,cs),
(570,651,o),
(630,591,o),
(639,500,c),
(717,500,l),
(707,634,o),
(618,712,o),
(459,712,cs),
(256,712,o),
(107,565,o),
(77,350,cs),
(47,134,o),
(154,-12,o),
(358,-12,cs)
);
}
);
width = 748;
}
);
unicode = 67;
},
{
glyphname = D;
kernLeft = H;
kernRight = O;
lastChange = "2023-01-28 20:12:23 +0000";
layers = (
{
associatedMasterId = "897F30B6-1700-43C7-9C60-A606C7C7F267";
layerId = "02575D39-7864-4EEF-9012-950E1A85E8A1";
name = public.background;
shapes = (
{
closed = 1;
nodes = (
(283,0,ls),
(516,0,o),
(653,131,o),
(653,348,cs),
(653,568,o),
(516,700,o),
(283,700,cs),
(76,700,l),
(76,0,l)
);
},
{
closed = 1;
nodes = (
(146,642,l),
(283,642,ls),
(481,642,o),
(581,530,o),
(581,348,cs),
(581,168,o),
(481,58,o),
(283,58,cs),
(146,58,l)
);
}
);
width = 709;
},
{
anchors = (
{
name = top;
pos = (347,700);
}
);
layerId = "BD1314B0-2F62-4F06-89D3-8B766BA843F0";
shapes = (
{
closed = 1;
nodes = (
(271,0,ls),
(516,0,o),
(646,135,o),
(675,343,cs),
(705,557,o),
(608,700,o),
(364,700,cs),
(121,700,l),
(22,0,l)
);
},
{
closed = 1;
nodes = (
(244,581,l),
(345,581,ls),
(514,581,o),
(554,498,o),
(534,357,cs),
(513,208,o),
(443,120,o),
(274,120,cs),
(179,120,l)
);
}
);
width = 700;
},
{
anchors = (
{
name = top;
pos = (353,700);
}
);
layerId = "897F30B6-1700-43C7-9C60-A606C7C7F267";
shapes = (
{
closed = 1;
nodes = (
(253,0,ls),
(500,0,o),
(632,131,o),
(662,348,cs),
(692,568,o),
(599,700,o),
(352,700,cs),
(145,700,l),
(47,0,l)
);
},
{
closed = 1;
nodes = (
(206,642,l),
(344,642,ls),
(555,642,o),
(617,530,o),
(591,348,cs),
(565,168,o),
(474,58,o),
(261,58,cs),
(125,58,l)
);
}
);
width = 700;
}
);
unicode = 68;
},
{
glyphname = E;
kernLeft = H;
kernRight = E;
lastChange = "2023-01-28 20:12:23 +0000";
layers = (
{
associatedMasterId = "897F30B6-1700-43C7-9C60-A606C7C7F267";
layerId = "02575D39-7864-4EEF-9012-950E1A85E8A1";
name = public.background;
shapes = (
{
closed = 1;
nodes = (
(471,0,l),
(471,58,l),
(146,58,l),
(146,323,l),
(441,323,l),
(441,381,l),
(146,381,l),
(146,642,l),
(471,642,l),
(471,700,l),
(76,700,l),
(76,0,l)
);
}
);
width = 559;
},
{
anchors = (
{
name = bottom;
pos = (244,0);
},
{
name = ogonek;
pos = (473,0);
},
{
name = top;
pos = (342,700);
}
);
layerId = "BD1314B0-2F62-4F06-89D3-8B766BA843F0";
shapes = (
{
closed = 1;
nodes = (
(473,0,l),
(489,112,l),
(166,112,l),
(192,301,l),
(485,301,l),
(500,410,l),
(208,410,l),
(233,587,l),
(555,587,l),
(571,700,l),
(109,700,l),
(10,0,l)
);
}
);
width = 539;
},
{
anchors = (
{
name = bottom;
pos = (249,0);
},
{
name = ogonek;
pos = (456,0);
},
{
name = top;
pos = (347,700);
}
);
layerId = "897F30B6-1700-43C7-9C60-A606C7C7F267";
shapes = (
{
closed = 1;
nodes = (
(456,0,l),
(464,58,l),
(110,58,l),
(146,323,l),
(471,323,l),
(479,381,l),
(154,381,l),
(191,642,l),
(546,642,l),
(554,700,l),
(129,700,l),
(31,0,l)
);
}
);
width = 539;
}
);
unicode = 69;
},
{
glyphname = F;
kernLeft = H;
lastChange = "2023-01-28 20:12:23 +0000";
layers = (
{
associatedMasterId = "897F30B6-1700-43C7-9C60-A606C7C7F267";
layerId = "02575D39-7864-4EEF-9012-950E1A85E8A1";
name = public.background;
shapes = (
{
closed = 1;
nodes = (
(146,0,l),
(146,322,l),
(406,322,l),
(406,380,l),
(146,380,l),
(146,641,l),
(454,641,l),
(454,699,l),
(76,699,l),
(76,0,l)
);
}
);
width = 529;
},
{
layerId = "BD1314B0-2F62-4F06-89D3-8B766BA843F0";
shapes = (
{
closed = 1;
nodes = (
(159,0,l),
(200,296,l),
(456,296,l),
(471,406,l),
(216,406,l),
(242,587,l),
(561,587,l),
(576,700,l),
(118,700,l),
(19,0,l)
);
}
);
width = 533;
},
{
layerId = "897F30B6-1700-43C7-9C60-A606C7C7F267";
shapes = (
{
closed = 1;
nodes = (
(114,0,l),
(159,322,l),
(459,322,l),
(467,380,l),
(167,380,l),
(203,642,l),
(551,642,l),
(560,700,l),
(142,700,l),
(44,0,l)
);
}
);
width = 533;
}
);
unicode = 70;
},
{
glyphname = G;
kernLeft = O;
kernRight = G;
lastChange = "2023-01-28 20:12:23 +0000";
layers = (
{
associatedMasterId = "897F30B6-1700-43C7-9C60-A606C7C7F267";
layerId = "02575D39-7864-4EEF-9012-950E1A85E8A1";
name = public.background;
shapes = (
{
closed = 1;
nodes = (
(576,-12,o),
(700,117,o),
(700,346,cs),
(700,371,l),
(404,371,l),
(404,314,l),
(624,314,l),
(621,147,o),
(536,51,o),
(372,51,cs),
(222,51,o),
(117,164,o),
(117,350,cs),
(117,536,o),
(222,648,o),
(382,648,cs),
(498,648,o),
(575,590,o),
(594,500,c),
(676,500,l),
(646,633,o),
(536,712,o),
(382,712,cs),
(176,712,o),
(45,564,o),
(45,350,cs),
(45,135,o),
(176,-12,o),
(378,-12,cs)
);
}
);
width = 797;
},
{
anchors = (
{
name = bottom;
pos = (352,0);
},
{
name = top;
pos = (457,700);
}
);
layerId = "BD1314B0-2F62-4F06-89D3-8B766BA843F0";
shapes = (
{
closed = 1;
nodes = (
(557,-12,o),
(706,98,o),
(738,323,cs),
(747,387,l),
(415,387,l),
(400,284,l),
(591,287,l),
(573,180,o),
(494,112,o),
(382,112,cs),
(240,112,o),
(179,194,o),
(198,336,cs),
(219,489,o),
(311,583,o),
(448,583,cs),
(529,583,o),
(575,544,o),
(588,484,c),
(740,484,l),
(727,624,o),
(623,712,o),
(455,712,cs),
(239,712,o),
(88,565,o),
(58,352,cs),
(27,134,o),
(141,-12,o),
(374,-12,cs)
);
}
);
width = 781;
},
{
anchors = (
{
name = bottom;
pos = (364,0);
},
{
name = top;
pos = (463,700);
}
);
layerId = "897F30B6-1700-43C7-9C60-A606C7C7F267";
shapes = (
{
closed = 1;
nodes = (
(557,-12,o),
(704,117,o),
(731,346,cs),
(734,371,l),
(440,371,l),
(432,309,l),
(657,309,l),
(629,145,o),
(525,51,o),
(377,51,cs),
(216,51,o),
(122,164,o),
(147,342,cs),
(174,534,o),
(295,648,o),
(456,648,cs),
(571,648,o),
(640,590,o),
(646,500,c),
(729,500,l),
(717,633,o),
(618,712,o),
(464,712,cs),
(258,712,o),
(107,562,o),
(75,343,cs),
(45,136,o),
(158,-12,o),
(370,-12,cs)
);
}
);
width = 781;
}
);
unicode = 71;
},
{
glyphname = H;
kernLeft = H;
kernRight = H;
lastChange = "2023-01-28 20:12:23 +0000";
layers = (
{
associatedMasterId = "897F30B6-1700-43C7-9C60-A606C7C7F267";
layerId = "02575D39-7864-4EEF-9012-950E1A85E8A1";
name = public.background;
shapes = (
{
closed = 1;
nodes = (
(595,0,l),
(595,699,l),
(525,699,l),
(525,0,l)
);
},
{
closed = 1;
nodes = (
(146,0,l),
(146,699,l),
(76,699,l),
(76,0,l)
);
},
{
closed = 1;
nodes = (
(545,327,l),
(545,385,l),
(130,385,l),
(130,327,l)
);
}
);
width = 713;
},
{
layerId = "BD1314B0-2F62-4F06-89D3-8B766BA843F0";
shapes = (
{
closed = 1;
nodes = (
(593,0,l),
(691,700,l),
(552,700,l),
(453,0,l)
);
},
{
closed = 1;
nodes = (
(152,0,l),
(251,700,l),
(111,700,l),
(12,0,l)
);
},
{
closed = 1;
nodes = (
(518,301,l),
(534,414,l),
(192,414,l),
(177,301,l)
);
}
);
width = 675;
},
{
layerId = "897F30B6-1700-43C7-9C60-A606C7C7F267";
shapes = (
{
closed = 1;
nodes = (
(563,0,l),
(661,700,l),
(591,700,l),
(493,0,l)
);
},
{
closed = 1;
nodes = (
(114,0,l),
(212,700,l),
(142,700,l),
(44,0,l)
);
},
{
closed = 1;
nodes = (
(559,327,l),
(567,385,l),
(152,385,l),
(143,327,l)
);
}
);
width = 675;
}
);
unicode = 72;
},
{
glyphname = I;
kernLeft = H;
kernRight = H;
lastChange = "2023-01-28 20:12:23 +0000";
layers = (
{
associatedMasterId = "897F30B6-1700-43C7-9C60-A606C7C7F267";
layerId = "02575D39-7864-4EEF-9012-950E1A85E8A1";
name = public.background;
shapes = (
{
closed = 1;
nodes = (
(146,0,l),
(146,699,l),
(76,699,l),
(76,0,l)
);
}
);
width = 264;
},
{
anchors = (
{
name = ogonek;
pos = (152,0);
},
{
name = top;
pos = (183,700);
}
);
layerId = "BD1314B0-2F62-4F06-89D3-8B766BA843F0";
shapes = (
{
closed = 1;
nodes = (
(152,0,l),
(251,700,l),
(112,700,l),
(13,0,l)
);
}
);
width = 234;
},
{
anchors = (
{
name = ogonek;
pos = (118,1);
},
{
name = top;
pos = (182,700);
}
);
layerId = "897F30B6-1700-43C7-9C60-A606C7C7F267";
shapes = (
{
closed = 1;
nodes = (
(118,0,l),
(216,700,l),
(146,700,l),
(48,0,l)
);
}
);
width = 234;
}
);
unicode = 73;
},
{
glyphname = J;
lastChange = "2023-01-28 20:12:23 +0000";
layers = (
{
associatedMasterId = "897F30B6-1700-43C7-9C60-A606C7C7F267";
layerId = "02575D39-7864-4EEF-9012-950E1A85E8A1";
name = public.background;
shapes = (
{
closed = 1;
nodes = (
(333,-7,o),
(403,64,o),
(403,170,cs),
(403,699,l),
(333,699,l),
(333,170,ls),
(333,112,o),
(304,55,o),
(223,55,cs),
(140,55,o),
(109,114,o),
(108,184,c),
(37,184,l),
(37,66,o),
(110,-7,o),
(223,-7,cs)
);
}
);
width = 512;
},
{
layerId = "BD1314B0-2F62-4F06-89D3-8B766BA843F0";
shapes = (
{
closed = 1;
nodes = (
(121,0,l),
(256,0,o),
(348,73,o),
(368,216,cs),
(436,700,l),
(296,700,l),
(229,223,ls),
(221,165,o),
(190,125,o),
(133,125,c)
);
},
{
closed = 1;
nodes = (
(-13,0,l),
(121,0,l),
(133,125,l),
(4,125,l)
);
}
);
width = 421;
},
{
layerId = "897F30B6-1700-43C7-9C60-A606C7C7F267";
shapes = (
{
closed = 1;
nodes = (
(120,0,l),
(240,0,o),
(320,71,o),
(337,192,cs),
(409,700,l),
(338,700,l),
(267,192,ls),
(257,119,o),
(219,62,o),
(129,62,c)
);
},
{
closed = 1;
nodes = (
(1,0,l),
(120,0,l),
(129,62,l),
(10,62,l)
);
}
);
width = 421;
}
);
unicode = 74;
},
{
glyphname = K;
kernLeft = H;
kernRight = K;
lastChange = "2023-01-28 20:12:23 +0000";
layers = (
{
associatedMasterId = "897F30B6-1700-43C7-9C60-A606C7C7F267";
layerId = "02575D39-7864-4EEF-9012-950E1A85E8A1";
name = public.background;
shapes = (
{
closed = 1;
nodes = (
(541,0,l),
(201,360,l),
(196,334,l),
(538,699,l),
(449,699,l),
(123,347,l),
(449,0,l)
);
},
{
closed = 1;
nodes = (
(146,0,l),
(146,699,l),
(76,699,l),
(76,0,l)
);
}
);
width = 564;
},
{
anchors = (
{
name = bottom;
pos = (280,0);
},
{
name = top;
pos = (377,700);
}
);
layerId = "BD1314B0-2F62-4F06-89D3-8B766BA843F0";
shapes = (
{
closed = 1;
nodes = (
(157,0,l),
(193,245,l),
(269,315,l),
(417,0,l),
(586,0,l),
(382,423,l),
(679,700,l),
(505,700,l),
(216,427,l),
(256,700,l),
(116,700,l),
(17,0,l)
);
}
);
width = 630;
},
{
anchors = (
{
name = bottom;
pos = (283,0);
},
{
name = top;
pos = (382,700);
}
);
layerId = "897F30B6-1700-43C7-9C60-A606C7C7F267";
shapes = (
{
closed = 1;
nodes = (
(145,0,l),
(184,280,l),
(278,366,l),
(455,0,l),
(540,0,l),
(335,420,l),
(635,700,l),
(546,700,l),
(197,372,l),
(243,700,l),
(173,700,l),
(75,0,l)
);
}
);
width = 630;
}
);
unicode = 75;
},
{
glyphname = L;
kernLeft = H;
kernRight = L;
lastChange = "2023-01-28 20:12:23 +0000";
layers = (
{
associatedMasterId = "897F30B6-1700-43C7-9C60-A606C7C7F267";
layerId = "02575D39-7864-4EEF-9012-950E1A85E8A1";
name = public.background;
shapes = (
{
closed = 1;
nodes = (
(397,0,l),
(397,57,l),
(146,57,l),
(146,699,l),
(76,699,l),
(76,0,l)
);
}
);
width = 517;
},
{
anchors = (
{
name = bottom;
pos = (259,0);
},
{
name = center;
pos = (279,350);
},
{
name = commaaccent;
pos = (260,7);
},
{
name = top;
pos = (186,700);
},
{
name = topright;
pos = (554,700);
}
);
layerId = "BD1314B0-2F62-4F06-89D3-8B766BA843F0";
shapes = (
{
closed = 1;
nodes = (
(455,0,l),
(470,109,l),
(164,109,l),
(247,700,l),
(108,700,l),
(9,0,l)
);
}
);
width = 521;
},
{
anchors = (
{
name = bottom;
pos = (259,0);
},
{
name = center;
pos = (299,350);
},
{
name = commaaccent;
pos = (259,0);
},
{
name = top;
pos = (183,700);
},
{
name = topright;
pos = (543,700);
}
);
layerId = "897F30B6-1700-43C7-9C60-A606C7C7F267";
shapes = (
{
closed = 1;
nodes = (
(444,0,l),
(453,57,l),
(121,57,l),
(212,700,l),
(142,700,l),
(44,0,l)
);
}
);
width = 521;
}
);
unicode = 76;
},
{
glyphname = M;
kernLeft = H;
kernRight = H;
lastChange = "2023-01-28 20:12:23 +0000";
layers = (
{
associatedMasterId = "897F30B6-1700-43C7-9C60-A606C7C7F267";
layerId = "02575D39-7864-4EEF-9012-950E1A85E8A1";
name = public.background;
shapes = (
{
closed = 1;
nodes = (
(146,0,l),
(146,620,l),
(119,619,l),
(392,0,l),
(443,0,l),
(715,619,l),
(689,620,l),
(689,0,l),
(759,0,l),
(759,700,l),
(678,700,l),
(400,62,l),
(435,62,l),
(156,700,l),
(76,700,l),
(76,0,l)
);
}
);
width = 877;
},
{
layerId = "BD1314B0-2F62-4F06-89D3-8B766BA843F0";
shapes = (
{
closed = 1;
nodes = (
(152,0,l),
(235,592,l),
(184,557,l),
(338,0,l),
(451,0,l),
(759,557,l),
(716,592,l),
(633,0,l),
(774,0,l),
(872,700,l),
(704,700,l),
(378,106,l),
(438,114,l),
(278,700,l),
(111,700,l),
(12,0,l)
);
}
);
width = 855;
},
{
layerId = "897F30B6-1700-43C7-9C60-A606C7C7F267";
shapes = (
{
closed = 1;
nodes = (
(122,0,l),
(208,620,l),
(182,621,l),
(369,0,l),
(420,0,l),
(778,621,l),
(752,620,l),
(664,0,l),
(734,0,l),
(833,700,l),
(752,700,l),
(386,67,l),
(422,67,l),
(230,700,l),
(150,700,l),
(52,0,l)
);
}
);
width = 855;
}
);
unicode = 77;
},
{
glyphname = N;
kernLeft = H;
kernRight = H;
lastChange = "2023-01-28 20:12:23 +0000";
layers = (
{
associatedMasterId = "897F30B6-1700-43C7-9C60-A606C7C7F267";
layerId = "02575D39-7864-4EEF-9012-950E1A85E8A1";
name = public.background;
shapes = (
{
closed = 1;
nodes = (
(146,0,l),
(146,588,l),
(533,0,l),
(603,0,l),
(603,699,l),
(533,699,l),
(533,112,l),
(146,699,l),
(76,699,l),
(76,0,l)
);
}
);
width = 721;
},
{
anchors = (
{
name = bottom;
pos = (312,0);
},
{
name = top;
pos = (411,700);
}
);
layerId = "BD1314B0-2F62-4F06-89D3-8B766BA843F0";
shapes = (
{
closed = 1;
nodes = (
(152,0,l),
(220,473,l),
(471,0,l),
(610,0,l),
(709,700,l),
(568,700,l),
(500,225,l),
(250,700,l),
(112,700,l),
(13,0,l)
);
}
);
width = 691;
},
{
anchors = (
{
name = bottom;
pos = (312,0);
},
{
name = top;
pos = (410,700);
}
);
layerId = "897F30B6-1700-43C7-9C60-A606C7C7F267";
shapes = (
{
closed = 1;
nodes = (
(118,0,l),
(199,583,l),
(504,0,l),
(574,0,l),
(673,700,l),
(603,700,l),
(521,118,l),
(216,700,l),
(146,700,l),
(48,0,l)
);
}
);
width = 691;
}
);
unicode = 78;
},
{
glyphname = O;
kernLeft = O;
kernRight = O;
lastChange = "2023-01-28 22:03:00 +0000";
layers = (
{
associatedMasterId = "897F30B6-1700-43C7-9C60-A606C7C7F267";
layerId = "02575D39-7864-4EEF-9012-950E1A85E8A1";
name = public.background;
shapes = (
{
closed = 1;
nodes = (
(588,-12,o),
(737,135,o),
(737,350,cs),
(737,564,o),
(588,712,o),
(391,712,cs),
(195,712,o),
(45,564,o),
(45,350,cs),
(45,135,o),
(195,-12,o),
(391,-12,cs)
);
},
{
closed = 1;
nodes = (
(240,49,o),
(117,162,o),
(117,350,cs),
(117,538,o),
(240,650,o),
(391,650,cs),
(542,650,o),
(665,538,o),
(665,350,cs),
(665,162,o),
(542,49,o),
(391,49,cs)
);
}
);
width = 793;
},
{
anchors = (
{
name = top;
pos = (464,700);
}
);
layerId = "BD1314B0-2F62-4F06-89D3-8B766BA843F0";
shapes = (
{
closed = 1;
nodes = (
(576,-12,o),
(737,132,o),
(766,336,cs),
(796,549,o),
(672,712,o),
(449,712,cs),
(253,712,o),
(93,568,o),
(64,364,cs),
(34,153,o),
(157,-12,o),
(380,-12,cs)
);
},
{
closed = 1;
nodes = (
(250,114,o),
(182,211,o),
(203,350,cs),
(225,495,o),
(323,586,o),
(444,586,cs),
(578,586,o),
(645,490,o),
(625,351,cs),
(604,205,o),
(505,114,o),
(385,114,cs)
);
}
);
width = 800;
},
{
anchors = (
{
name = top;
pos = (464,700);
}
);
layerId = "897F30B6-1700-43C7-9C60-A606C7C7F267";
shapes = (
{
closed = 1;
nodes = (
(571,-12,o),
(727,135,o),
(757,337,cs),
(787,540,o),
(673,712,o),
(455,712,cs),
(259,712,o),
(102,564,o),
(72,359,cs),
(42,155,o),
(158,-12,o),
(374,-12,cs)
);
},
{
closed = 1;
nodes = (
(211,49,o),
(120,181,o),
(146,359,cs),
(172,539,o),
(296,650,o),
(447,650,cs),
(618,650,o),
(712,515,o),
(685,337,cs),
(658,161,o),
(533,49,o),
(383,49,cs)
);
}
);
width = 800;
}
);
unicode = 79;
},
{
glyphname = P;
kernLeft = H;
lastChange = "2023-01-28 22:03:00 +0000";
layers = (
{
associatedMasterId = "897F30B6-1700-43C7-9C60-A606C7C7F267";
layerId = "02575D39-7864-4EEF-9012-950E1A85E8A1";
name = public.background;
shapes = (
{
closed = 1;
nodes = (
(146,0,l),
(146,298,l),
(287,298,ls),
(451,298,o),
(523,385,o),
(523,498,cs),
(523,613,o),
(449,699,o),
(287,699,cs),
(76,699,l),
(76,0,l)
);
},
{
closed = 1;
nodes = (
(146,640,l),
(287,640,ls),
(405,640,o),
(451,588,o),
(451,498,cs),
(451,412,o),
(405,358,o),
(287,358,cs),
(146,358,l)
);
}
);
width = 570;
},
{
layerId = "BD1314B0-2F62-4F06-89D3-8B766BA843F0";
shapes = (
{
closed = 1;
nodes = (
(158,0,l),
(195,265,l),
(325,265,ls),
(499,265,o),
(585,364,o),
(602,475,cs),
(621,602,o),
(549,700,o),
(380,700,cs),
(117,700,l),
(18,0,l)
);
},
{
closed = 1;
nodes = (
(241,586,l),
(362,586,ls),
(444,586,o),
(471,551,o),
(463,490,cs),
(454,422,o),
(410,378,o),
(326,378,cs),
(211,378,l)
);
}
);
width = 589;
},
{
layerId = "897F30B6-1700-43C7-9C60-A606C7C7F267";
shapes = (
{
closed = 1;
nodes = (
(121,0,l),
(163,299,l),
(314,299,ls),
(477,299,o),
(562,386,o),
(578,499,cs),
(594,614,o),
(533,700,o),
(370,700,cs),
(149,700,l),
(51,0,l)
);
},
{
closed = 1;
nodes = (
(211,641,l),
(362,641,ls),
(479,641,o),
(519,589,o),
(505,499,cs),
(491,412,o),
(440,359,o),
(322,359,cs),
(171,359,l)
);
}
);
width = 589;
}
);
unicode = 80;
},
{
color = 4;
glyphname = Q;
kernLeft = O;
lastChange = "2023-01-28 22:49:45 +0000";
layers = (
{
associatedMasterId = "897F30B6-1700-43C7-9C60-A606C7C7F267";
layerId = "02575D39-7864-4EEF-9012-950E1A85E8A1";
name = public.background;
shapes = (
{
closed = 1;
nodes = (
(322,-137,l),
(109,59,l),
(45,33,l),
(228,-137,l)
);
},
{
alignment = -1;
pos = (45,0);
ref = O;
}
);
width = 834;
},
{
anchors = (
{
name = top;
pos = (391,700);
}
);
associatedMasterId = "897F30B6-1700-43C7-9C60-A606C7C7F267";
layerId = "E3160E8F-7C5D-4886-9BD2-DEE45D055A52";
name = "3 Jan 23 17:04";
shapes = (
{
closed = 1;
nodes = (
(537,0,o),
(734,101,o),
(734,355,cs),
(734,569,o),
(598,712,o),
(391,712,cs),
(185,712,o),
(48,569,o),
(48,355,cs),
(48,140,o),
(185,0,o),
(391,0,cs)
);
},
{
closed = 1;
nodes = (
(230,62,o),
(120,167,o),
(120,355,cs),
(120,543,o),
(230,650,o),
(391,650,cs),
(552,650,o),
(662,543,o),
(662,355,cs),
(662,167,o),
(552,62,o),
(391,62,cs)
);
},
{
closed = 1;
nodes = (
(495,293,l),
(407,293,l),
(686,0,l),
(770,0,l)
);
}
);
width = 795;
},
{
anchors = (
{
name = top;
pos = (395,700);
}
);
associatedMasterId = "BD1314B0-2F62-4F06-89D3-8B766BA843F0";
layerId = "BF73D2D9-CA50-47B5-AC17-B80F771C1F84";
name = "3 Jan 23 17:21";
shapes = (
{
closed = 1;
nodes = (
(783,0,l),
(784,129,l),
(462,128,l),
(395,0,l)
);
},
{
closed = 1;
nodes = (
(522,0,o),
(747,117,o),
(747,355,cs),
(747,569,o),
(604,712,o),
(395,712,cs),
(186,712,o),
(43,569,o),
(43,355,cs),
(43,141,o),
(186,0,o),
(395,0,cs)
);
},
{
closed = 1;
nodes = (
(267,126,o),
(185,209,o),
(185,355,cs),
(185,501,o),
(267,586,o),
(395,586,cs),
(522,586,o),
(604,501,o),
(604,355,cs),
(604,209,o),
(522,126,o),
(395,126,cs)
);
}
);
width = 807;
},
{
anchors = (
{
name = top;
pos = (464,700);
}
);
layerId = "BD1314B0-2F62-4F06-89D3-8B766BA843F0";
name = Heavy;
shapes = (
{
closed = 1;
nodes = (
(773,121,l),
(721,121,ls),
(696,121,o),
(689,122,o),
(680,134,cs),
(496,382,l),
(395,308,l),
(612,28,ls),
(627,9,o),
(636,0,o),
(670,0,cs),
(755,0,l)
);
},
{
pos = (22,0);
ref = O;
}
);
width = 819;
},
{
anchors = (
{
name = top;
pos = (391,700);
}
);
associatedMasterId = "897F30B6-1700-43C7-9C60-A606C7C7F267";
layerId = "0FE4D649-DBC0-4594-973C-3EBAEF739317";
name = "3 Jan 23 17:21";
shapes = (
{
closed = 1;
nodes = (
(767,0,l),
(767,62,l),
(474,58,l),
(391,0,l)
);
},
{
closed = 1;
nodes = (
(537,0,o),
(734,101,o),
(734,355,cs),
(734,569,o),
(598,712,o),
(391,712,cs),
(185,712,o),
(48,569,o),
(48,355,cs),
(48,140,o),
(185,0,o),
(391,0,cs)
);
},
{
closed = 1;
nodes = (
(230,62,o),
(120,167,o),
(120,355,cs),
(120,543,o),
(230,650,o),
(391,650,cs),
(552,650,o),
(662,543,o),
(662,355,cs),
(662,167,o),
(552,62,o),
(391,62,cs)
);
}
);
width = 795;
},
{
anchors = (
{
name = top;
pos = (466,700);
}
);
layerId = "897F30B6-1700-43C7-9C60-A606C7C7F267";
name = Light;
shapes = (
{
closed = 1;
nodes = (
(752,62,l),
(699,62,ls),
(679,62,o),
(675,63,o),
(665,76,cs),
(494,293,l),
(446,254,l),
(624,22,ls),
(637,6,o),
(653,0,o),
(673,0,cs),
(743,0,l)
);
},
{
pos = (28,0);
ref = O;
}
);
width = 819;
}
);
unicode = 81;
},
{
color = 4;
glyphname = R;
kernLeft = H;
kernRight = R;
lastChange = "2023-01-28 22:49:45 +0000";
layers = (
{
anchors = (
{
name = bottom;
pos = (251,0);
},
{
name = top;
pos = (309,700);
}
);
layerId = "BD1314B0-2F62-4F06-89D3-8B766BA843F0";
shapes = (
{
closed = 1;
nodes = (
(153,0,l),
(191,265,l),
(321,265,ls),
(458,265,o),
(580,353,o),
(598,475,cs),
(617,602,o),
(545,700,o),
(376,700,cs),
(112,700,l),
(13,0,l)
);
},
{
closed = 1;
nodes = (
(544,0,l),
(557,159,ls),
(567,287,o),
(495,368,o),
(331,372,c),
(330,349,o),
(321,286,o),
(322,269,c),
(404,266,o),
(424,235,o),
(419,167,cs),
(407,0,l)
);
},
{
closed = 1;
nodes = (
(236,586,l),
(357,586,ls),
(440,586,o),
(467,551,o),
(458,490,cs),
(448,422,o),
(405,378,o),
(322,378,cs),
(206,378,l)
);
}
);
width = 603;
},
{
anchors = (
{
name = bottom;
pos = (278,0);
},
{
name = top;
pos = (336,700);
}
);
layerId = "897F30B6-1700-43C7-9C60-A606C7C7F267";
shapes = (
{
closed = 1;
nodes = (
(122,0,l),
(162,293,l),
(304,293,ls),
(468,293,o),
(555,385,o),
(570,497,cs),
(585,612,o),
(528,700,o),
(366,700,cs),
(150,700,l),
(52,0,l)
);
},
{
closed = 1;
nodes = (
(508,0,l),
(521,147,ls),
(532,273,o),
(485,348,o),
(311,347,c),
(310,337,o),
(305,307,o),
(304,293,c),
(431,293,o),
(462,248,o),
(452,136,cs),
(440,0,l)
);
},
{
closed = 1;
nodes = (
(211,641,l),
(352,641,ls),
(470,641,o),
(509,585,o),
(498,497,cs),
(487,412,o),
(426,350,o),
(311,350,cs),
(171,350,l)
);
}
);
width = 603;
},
{
associatedMasterId = "897F30B6-1700-43C7-9C60-A606C7C7F267";
layerId = "02575D39-7864-4EEF-9012-950E1A85E8A1";
name = public.background;
shapes = (
{
closed = 1;
nodes = (
(146,0,l),
(146,293,l),
(287,293,ls),
(451,293,o),
(524,385,o),
(524,497,cs),
(524,612,o),
(448,700,o),
(286,700,cs),
(76,700,l),
(76,0,l)
);
},
{
closed = 1;
nodes = (
(532,0,l),
(341,315,l),
(261,315,l),
(448,0,l)
);
},
{
closed = 1;
nodes = (
(146,641,l),
(286,641,ls),
(404,641,o),
(452,585,o),
(452,497,cs),
(452,412,o),
(401,350,o),
(287,350,cs),
(146,350,l)
);
}
);
width = 583;
}
);
unicode = 82;
},
{
color = 4;
glyphname = S;
kernLeft = S;
kernRight = S;
lastChange = "2023-01-28 22:49:45 +0000";
layers = (
{
associatedMasterId = "897F30B6-1700-43C7-9C60-A606C7C7F267";
layerId = "02575D39-7864-4EEF-9012-950E1A85E8A1";
name = public.background;
shapes = (
{
closed = 1;
nodes = (
(440,-7,o),
(517,89,o),
(517,184,cs),
(517,444,o),
(133,320,o),
(133,522,cs),
(133,603,o),
(201,648,o),
(283,647,c),
(380,646,o),
(427,586,o),
(435,537,c),
(511,537,l),
(499,633,o),
(419,707,o),
(286,707,c),
(151,707,o),
(62,628,o),
(62,520,cs),
(62,257,o),
(446,387,o),
(446,181,cs),
(446,109,o),
(389,52,o),
(292,52,cs),
(179,52,o),
(136,122,o),
(130,180,c),
(56,180,l),
(60,73,o),
(152,-7,o),
(292,-7,cs)
);
}
);
width = 602;
},
{
anchors = (
{
name = bottom;
pos = (269,0);
},
{
name = top;
pos = (358,700);
}
);
layerId = "BD1314B0-2F62-4F06-89D3-8B766BA843F0";
shapes = (
{
closed = 1;
nodes = (
(414,-12,o),
(543,62,o),
(561,184,cs),
(582,323,o),
(513,368,o),
(400,398,cs),
(300,425,ls),
(237,442,o),
(212,465,o),
(218,512,cs),
(225,569,o),
(293,593,o),
(347,593,cs),
(397,593,o),
(463,571,o),
(465,481,c),
(593,481,l),
(600,641,o),
(492,712,o),
(347,712,cs),
(214,712,o),
(109,637,o),
(92,524,cs),
(75,409,o),
(132,344,o),
(246,312,cs),
(354,282,ls),
(424,263,o),
(439,243,o),
(432,195,cs),
(426,151,o),
(374,108,o),
(297,108,cs),
(237,108,o),
(152,137,o),
(150,240,c),
(23,240,l),
(15,60,o),
(157,-12,o),
(290,-12,cs)
);
}
);
width = 595;
},
{
anchors = (
{
name = bottom;
pos = (279,0);
},
{
name = top;
pos = (370,700);
}
);
layerId = "897F30B6-1700-43C7-9C60-A606C7C7F267";
shapes = (
{
closed = 1;
nodes = (
(421,-12,o),
(543,52,o),
(563,195,cs),
(576,287,o),
(529,341,o),
(422,371,cs),
(287,409,ls),
(222,427,o),
(172,458,o),
(181,520,cs),
(194,605,o),
(264,651,o),
(358,651,cs),
(457,651,o),
(523,603,o),
(521,511,c),
(594,511,l),
(600,640,o),
(501,712,o),
(368,712,cs),
(241,712,o),
(127,637,o),
(109,512,cs),
(96,423,o),
(156,371,o),
(247,346,cs),
(391,306,ls),
(470,284,o),
(500,249,o),
(491,192,cs),
(475,86,o),
(396,49,o),
(300,49,cs),
(189,49,o),
(104,101,o),
(112,211,c),
(40,211,l),
(27,61,o),
(145,-12,o),
(291,-12,cs)
);
}
);
width = 595;
}
);
unicode = 83;
},
{
glyphname = T;
kernLeft = T;
kernRight = T;
lastChange = "2023-01-28 20:12:23 +0000";
layers = (
{
associatedMasterId = "897F30B6-1700-43C7-9C60-A606C7C7F267";
layerId = "02575D39-7864-4EEF-9012-950E1A85E8A1";
name = public.background;
shapes = (
{
closed = 1;
nodes = (
(310,0,l),
(310,641,l),
(504,641,l),
(504,699,l),
(45,699,l),
(45,641,l),
(240,641,l),
(240,0,l)
);
}
);
width = 599;
},
{
anchors = (
{
name = bottom;
pos = (257,0);
},
{
name = top;
pos = (355,700);
}
);
layerId = "BD1314B0-2F62-4F06-89D3-8B766BA843F0";
shapes = (
{
closed = 1;
nodes = (
(329,0,l),
(412,587,l),
(615,587,l),
(630,700,l),
(84,700,l),
(68,587,l),
(272,587,l),
(189,0,l)
);
}
);
width = 587;
},
{
anchors = (
{
name = bottom;
pos = (258,0);
},
{
name = top;
pos = (358,700);
}
);
layerId = "897F30B6-1700-43C7-9C60-A606C7C7F267";
shapes = (
{
closed = 1;
nodes = (
(294,0,l),
(385,642,l),
(594,642,l),
(602,700,l),
(113,700,l),
(104,642,l),
(315,642,l),
(224,0,l)
);
}
);
width = 587;
}
);
unicode = 84;
},
{
color = 4;
glyphname = U;
kernLeft = U;
kernRight = U;
lastChange = "2023-01-28 22:49:45 +0000";
layers = (
{
associatedMasterId = "897F30B6-1700-43C7-9C60-A606C7C7F267";
layerId = "02575D39-7864-4EEF-9012-950E1A85E8A1";
name = public.background;
shapes = (
{
closed = 1;
nodes = (
(466,-7,o),
(578,75,o),
(578,260,cs),
(578,699,l),
(508,699,l),
(508,259,ls),
(508,114,o),
(434,55,o),
(325,55,cs),
(216,55,o),
(140,114,o),
(140,259,cs),
(140,699,l),
(70,699,l),
(70,260,ls),
(70,75,o),
(182,-7,o),
(324,-7,cs)
);
}
);
width = 688;
},
{
anchors = (
{
name = ogonek;
pos = (360,1);
},
{
name = top;
pos = (381,700);
}
);
layerId = "BD1314B0-2F62-4F06-89D3-8B766BA843F0";
shapes = (
{
closed = 1;
nodes = (
(437,-12,o),
(575,76,o),
(602,268,cs),
(663,700,l),
(523,700,l),
(463,274,ls),
(449,172,o),
(385,117,o),
(293,117,cs),
(206,117,o),
(164,165,o),
(178,267,cs),
(239,700,l),
(99,700,l),
(39,275,ls),
(12,83,o),
(125,-12,o),
(284,-12,cs)
);
}
);
width = 634;
},
{
anchors = (
{
name = ogonek;
pos = (350,0);
},
{
name = top;
pos = (379,700);
}
);
layerId = "897F30B6-1700-43C7-9C60-A606C7C7F267";
shapes = (
{
closed = 1;
nodes = (
(422,-12,o),
(546,70,o),
(572,255,cs),
(635,700,l),
(565,700,l),
(502,254,ls),
(482,109,o),
(399,50,o),
(290,50,cs),
(182,50,o),
(114,109,o),
(134,254,cs),
(196,700,l),
(126,700,l),
(64,255,ls),
(38,70,o),
(139,-12,o),
(281,-12,cs)
);
}
);
width = 634;
}
);
unicode = 85;
},
{
glyphname = V;
kernLeft = V;
kernRight = V;
lastChange = "2023-01-28 20:12:23 +0000";
layers = (
{
associatedMasterId = "897F30B6-1700-43C7-9C60-A606C7C7F267";
layerId = "02575D39-7864-4EEF-9012-950E1A85E8A1";
name = public.background;
shapes = (
{
closed = 1;
nodes = (
(369,0,l),
(634,699,l),
(560,699,l),
(329,76,l),
(100,699,l),
(24,699,l),
(289,0,l)
);
}
);
width = 708;
},
{
layerId = "BD1314B0-2F62-4F06-89D3-8B766BA843F0";
shapes = (
{
closed = 1;
nodes = (
(407,0,l),
(759,700,l),
(610,700,l),
(338,143,l),
(227,700,l),
(80,700,l),
(235,0,l)
);
}
);
width = 710;
},
{
layerId = "897F30B6-1700-43C7-9C60-A606C7C7F267";
shapes = (
{
closed = 1;
nodes = (
(360,0,l),
(724,700,l),
(650,700,l),
(331,76,l),
(189,700,l),
(113,700,l),
(280,0,l)
);
}
);
width = 710;
}
);
unicode = 86;
},
{
glyphname = W;
kernLeft = W;
kernRight = W;
lastChange = "2023-01-28 20:12:23 +0000";
layers = (
{
associatedMasterId = "897F30B6-1700-43C7-9C60-A606C7C7F267";
layerId = "02575D39-7864-4EEF-9012-950E1A85E8A1";
name = public.background;
shapes = (
{
closed = 1;
nodes = (
(296,0,l),
(488,634,l),
(465,634,l),
(652,0,l),
(730,0,l),
(928,699,l),
(853,699,l),
(681,42,l),
(705,42,l),
(518,699,l),
(440,699,l),
(248,43,l),
(272,43,l),
(101,699,l),
(26,699,l),
(220,-1,l)
);
}
);
width = 1021;
},
{
anchors = (
{
name = bottom;
pos = (472,0);
},
{
name = top;
pos = (571,700);
}
);
layerId = "BD1314B0-2F62-4F06-89D3-8B766BA843F0";
shapes = (
{
closed = 1;
nodes = (
(335,0,l),
(560,548,l),
(536,548,l),
(604,0,l),
(771,0,l),
(1057,700,l),
(905,700,l),
(680,75,l),
(717,75,l),
(648,700,l),
(494,700,l),
(244,76,l),
(282,76,l),
(232,700,l),
(85,700,l),
(170,0,l)
);
}
);
width = 1012;
},
{
anchors = (
{
name = bottom;
pos = (472,0);
},
{
name = top;
pos = (571,700);
}
);
layerId = "897F30B6-1700-43C7-9C60-A606C7C7F267";
shapes = (
{
closed = 1;
nodes = (
(290,0,l),
(572,635,l),
(549,635,l),
(646,0,l),
(724,0,l),
(1021,700,l),
(946,700,l),
(681,42,l),
(705,42,l),
(610,700,l),
(532,700,l),
(248,43,l),
(272,43,l),
(194,700,l),
(119,700,l),
(214,0,l)
);
}
);
width = 1012;
}
);
unicode = 87;
},
{
glyphname = X;
lastChange = "2023-01-28 20:12:23 +0000";
layers = (
{
associatedMasterId = "897F30B6-1700-43C7-9C60-A606C7C7F267";
layerId = "02575D39-7864-4EEF-9012-950E1A85E8A1";
name = public.background;
shapes = (
{
closed = 1;
nodes = (
(543,0,l),
(118,699,l),
(40,699,l),
(465,0,l)
);
},
{
closed = 1;
nodes = (
(118,0,l),
(305,323,l),
(265,375,l),
(40,0,l)
);
},
{
closed = 1;
nodes = (
(544,699,l),
(466,699,l),
(280,383,l),
(320,331,l)
);
}
);
width = 675;
},
{
layerId = "BD1314B0-2F62-4F06-89D3-8B766BA843F0";
shapes = (
{
closed = 1;
nodes = (
(592,0,l),
(235,700,l),
(75,700,l),
(432,0,l)
);
},
{
closed = 1;
nodes = (
(139,0,l),
(343,283,l),
(274,391,l),
(-23,0,l)
);
},
{
closed = 1;
nodes = (
(687,700,l),
(525,700,l),
(323,420,l),
(390,312,l)
);
}
);
width = 637;
},
{
layerId = "897F30B6-1700-43C7-9C60-A606C7C7F267";
shapes = (
{
closed = 1;
nodes = (
(535,0,l),
(208,700,l),
(129,700,l),
(457,0,l)
);
},
{
closed = 1;
nodes = (
(110,0,l),
(342,323,l),
(310,375,l),
(32,0,l)
);
},
{
closed = 1;
nodes = (
(634,700,l),
(555,700,l),
(325,383,l),
(358,331,l)
);
}
);
width = 637;
}
);
unicode = 88;
},
{
glyphname = Y;
kernLeft = Y;
kernRight = Y;
lastChange = "2023-01-28 20:12:23 +0000";
layers = (
{
associatedMasterId = "897F30B6-1700-43C7-9C60-A606C7C7F267";
layerId = "02575D39-7864-4EEF-9012-950E1A85E8A1";
name = public.background;
shapes = (
{
closed = 1;
nodes = (
(318,0,l),
(318,272,l),
(542,699,l),
(464,699,l),
(267,304,l),
(299,304,l),
(101,699,l),
(22,699,l),
(248,272,l),
(248,0,l)
);
}
);
width = 638;
},
{
anchors = (
{
name = top;
pos = (386,700);
}
);
layerId = "BD1314B0-2F62-4F06-89D3-8B766BA843F0";
shapes = (
{
closed = 1;
nodes = (
(356,0,l),
(392,244,l),
(693,700,l),
(533,700,l),
(318,348,l),
(354,348,l),
(236,700,l),
(79,700,l),
(252,244,l),
(217,0,l)
);
}
);
width = 642;
},
{
anchors = (
{
name = top;
pos = (387,700);
}
);
layerId = "897F30B6-1700-43C7-9C60-A606C7C7F267";
shapes = (
{
closed = 1;
nodes = (
(323,0,l),
(362,272,l),
(645,700,l),
(567,700,l),
(315,304,l),
(347,304,l),
(204,700,l),
(125,700,l),
(291,272,l),
(253,0,l)
);
}
);
width = 642;
}
);
unicode = 89;
},
{
glyphname = Z;
kernLeft = Z;
kernRight = Z;
lastChange = "2023-01-28 20:12:23 +0000";
layers = (
{
associatedMasterId = "897F30B6-1700-43C7-9C60-A606C7C7F267";
layerId = "02575D39-7864-4EEF-9012-950E1A85E8A1";
name = public.background;
shapes = (
{
closed = 1;
nodes = (
(482,0,l),
(482,62,l),
(125,62,l),
(477,643,l),
(477,699,l),
(49,699,l),
(49,637,l),
(395,637,l),
(43,56,l),
(43,0,l)
);
}
);
width = 574;
},
{
anchors = (
{
name = top;
pos = (335,700);
}
);
layerId = "BD1314B0-2F62-4F06-89D3-8B766BA843F0";
shapes = (
{
closed = 1;
nodes = (
(475,0,l),
(492,116,l),
(174,116,l),
(560,593,l),
(573,700,l),
(98,700,l),
(81,584,l),
(395,584,l),
(12,107,l),
(-2,0,l)
);
}
);
width = 542;
},
{
anchors = (
{
name = top;
pos = (335,700);
}
);
layerId = "897F30B6-1700-43C7-9C60-A606C7C7F267";
shapes = (
{
closed = 1;
nodes = (
(455,0,l),
(465,62,l),
(107,62,l),
(541,644,l),
(549,700,l),
(121,700,l),
(113,637,l),
(458,637,l),
(24,56,l),
(17,0,l)
);
}
);
width = 542;
}
);
unicode = 90;
},
{
color = 4;
glyphname = a;
kernLeft = a;
kernRight = a;
lastChange = "2023-04-05 18:47:00 +0000";
layers = (
{
associatedMasterId = "897F30B6-1700-43C7-9C60-A606C7C7F267";
layerId = "02575D39-7864-4EEF-9012-950E1A85E8A1";
name = public.background;
shapes = (
{
closed = 1;
nodes = (
(472,0,l),
(472,305,ls),
(472,425,o),
(407,508,o),
(270,508,cs),
(170,508,o),
(71,451,o),
(59,344,c),
(133,344,l),
(145,412,o),
(201,448,o),
(270,448,cs),
(351,448,o),
(402,398,o),
(402,305,cs),
(402,0,l)
);
},
{
closed = 1;
nodes = (
(352,-12,o),
(409,74,o),
(427,158,c),
(402,226,l),
(402,138,o),
(333,50,o),
(233,50,cs),
(157,50,o),
(115,88,o),
(115,144,cs),
(115,199,o),
(154,241,o),
(263,241,cs),
(432,241,l),
(432,301,l),
(258,301,ls),
(129,301,o),
(42,246,o),
(42,142,cs),
(42,60,o),
(101,-12,o),
(226,-12,cs)
);
}
);
width = 557;
},
{
associatedMasterId = "897F30B6-1700-43C7-9C60-A606C7C7F267";
layerId = "6C1A5388-76EA-4812-8815-21936706EF3B";
name = "27 Dec 22 23:44";
shapes = (
{
closed = 1;
nodes = (
(472,100,l),
(472,305,ls),
(472,425,o),
(407,508,o),
(270,508,cs),
(170,508,o),
(71,451,o),
(59,344,c),
(133,344,l),
(145,412,o),
(201,448,o),
(270,448,cs),
(351,448,o),
(402,398,o),
(402,305,cs),
(402,169,l),
(402,100,l)
);
},
{
closed = 1;
nodes = (
(360,-12,o),
(409,74,o),
(427,158,c),
(402,226,l),
(402,138,o),
(341,50,o),
(241,50,cs),
(165,50,o),
(123,88,o),
(123,144,cs),
(123,199,o),
(150,239,o),
(254,239,c),
(360,238,o),
(414,238,o),
(432,237,c),
(422,296,l),
(405,296,o),
(346,296,o),
(229,296,c),
(125,296,o),
(50,246,o),
(50,142,cs),
(50,60,o),
(109,-12,o),
(234,-12,cs)
);
},
{
closed = 1;
nodes = (
(402,23,o),
(457,0,o),
(516,0,cs),
(533,0,l),
(533,60,l),
(526,60,ls),
(496,60,o),
(472,62,o),
(472,135,c),
(472,135,o),
(402,122,o),
(402,122,c)
);
}
);
width = 571;
},
{
anchors = (
{
name = ogonek;
pos = (469,0);
},
{
name = top;
pos = (304,496);
}
);
guides = (
{
pos = (-13,344);
}
);
layerId = "BD1314B0-2F62-4F06-89D3-8B766BA843F0";
shapes = (
{
closed = 1;
nodes = (
(482,86,l),
(512,301,ls),
(530,432,o),
(446,508,o),
(294,508,cs),
(177,508,o),
(77,445,o),
(51,339,c),
(191,339,l),
(206,379,o),
(244,395,o),
(290,395,cs),
(346,395,o),
(382,372,o),
(373,308,cs),
(346,116,l),
(342,87,l)
);
},
{
closed = 1;
nodes = (
(297,-12,o),
(377,66,o),
(407,149,c),
(366,265,l),
(355,176,o),
(306,94,o),
(217,94,cs),
(178,94,o),
(148,114,o),
(152,146,cs),
(157,182,o),
(195,212,o),
(257,212,cs),
(312,212,o),
(369,190,o),
(387,182,c),
(394,268,l),
(381,274,o),
(336,299,o),
(242,299,cs),
(105,299,o),
(22,231,o),
(10,145,cs),
(-2,58,o),
(65,-12,o),
(182,-12,cs)
);
},
{
closed = 1;
nodes = (
(529,0,l),
(545,117,l),
(538,117,ls),
(495,117,o),
(487,123,o),
(493,165,c),
(352,155,l),
(334,32,o),
(388,0,o),
(491,0,cs)
);
}
);
width = 573;
},
{
anchors = (
{
name = ogonek;
pos = (444,0);
},
{
name = top;
pos = (308,496);
}
);
guides = (
{
pos = (18,344);
}
);
layerId = "897F30B6-1700-43C7-9C60-A606C7C7F267";
shapes = (
{
closed = 1;
nodes = (
(459,103,l),
(487,305,ls),
(504,425,o),
(451,508,o),
(313,508,cs),
(213,508,o),
(110,461,o),
(83,354,c),
(157,354,l),
(179,422,o),
(236,448,o),
(305,448,cs),
(386,448,o),
(431,398,o),
(417,305,cs),
(397,169,l),
(388,100,l)
);
},
{
closed = 1;
nodes = (
(331,-12,o),
(394,74,o),
(425,158,c),
(406,226,l),
(393,137,o),
(320,50,o),
(220,50,cs),
(144,50,o),
(107,87,o),
(114,144,cs),
(121,199,o),
(168,246,o),
(278,246,cs),
(346,246,o),
(417,225,o),
(434,216,c),
(442,272,l),
(427,281,o),
(361,305,o),
(281,305,cs),
(152,305,o),
(57,246,o),
(42,142,cs),
(30,60,o),
(80,-12,o),
(205,-12,cs)
);
},
{
closed = 1;
nodes = (
(504,0,l),
(513,62,l),
(505,62,ls),
(465,62,o),
(453,65,o),
(463,137,c),
(391,122,l),
(378,23,o),
(417,0,o),
(489,0,cs)
);
}
);
width = 573;
}
);
unicode = 97;
},
{
glyphname = b;
kernLeft = l;
kernRight = o;
lastChange = "2023-01-28 22:03:00 +0000";
layers = (
{
associatedMasterId = "897F30B6-1700-43C7-9C60-A606C7C7F267";
layerId = "02575D39-7864-4EEF-9012-950E1A85E8A1";
name = public.background;
shapes = (
{
closed = 1;
nodes = (
(477,-12,o),
(573,97,o),
(573,247,cs),
(573,397,o),
(477,508,o),
(327,508,cs),
(233,508,o),
(172,460,o),
(140,410,c),
(140,720,l),
(70,720,l),
(70,0,l),
(140,0,l),
(140,88,l),
(174,25,o),
(242,-12,o),
(326,-12,cs)
);
},
{
closed = 1;
nodes = (
(218,49,o),
(144,128,o),
(144,248,cs),
(144,368,o),
(218,447,o),
(323,447,cs),
(428,447,o),
(502,368,o),
(502,248,cs),
(502,128,o),
(428,49,o),
(323,49,cs)
);
}
);
width = 616;
},
{
layerId = "BD1314B0-2F62-4F06-89D3-8B766BA843F0";
shapes = (
{
closed = 1;
nodes = (
(445,-12,o),
(562,94,o),
(582,240,cs),
(603,393,o),
(511,508,o),
(371,508,cs),
(291,508,o),
(239,474,o),
(202,431,c),
(245,720,l),
(104,720,l),
(3,0,l),
(143,0,l),
(154,67,l),
(181,19,o),
(233,-12,o),
(309,-12,cs)
);
},
{
closed = 1;
nodes = (
(206,110,o),
(163,165,o),
(173,241,cs),
(184,323,o),
(251,386,o),
(332,386,cs),
(407,386,o),
(453,331,o),
(441,254,cs),
(428,172,o),
(362,110,o),
(281,110,cs)
);
}
);
width = 609;
},
{
layerId = "897F30B6-1700-43C7-9C60-A606C7C7F267";
shapes = (
{
closed = 1;
nodes = (
(435,-12,o),
(544,104,o),
(565,245,cs),
(586,385,o),
(508,508,o),
(358,508,cs),
(264,508,o),
(197,460,o),
(157,410,c),
(201,720,l),
(131,720,l),
(30,0,l),
(100,0,l),
(112,87,l),
(137,25,o),
(200,-12,o),
(284,-12,cs)
);
},
{
closed = 1;
nodes = (
(182,49,o),
(120,128,o),
(135,242,cs),
(152,375,o),
(250,447,o),
(346,447,cs),
(453,447,o),
(511,358,o),
(495,246,cs),
(479,133,o),
(395,49,o),
(289,49,cs)
);
}
);
width = 609;
}
);
unicode = 98;
},
{
glyphname = c;
kernLeft = o;
kernRight = c;
lastChange = "2023-01-28 22:03:00 +0000";
layers = (
{
associatedMasterId = "897F30B6-1700-43C7-9C60-A606C7C7F267";
layerId = "02575D39-7864-4EEF-9012-950E1A85E8A1";
name = public.background;
shapes = (
{
closed = 1;
nodes = (
(423,-8,o),
(512,69,o),
(537,178,c),
(462,178,l),
(443,98,o),
(378,51,o),
(286,51,cs),
(179,51,o),
(92,125,o),
(92,273,c),
(92,421,o),
(179,494,o),
(286,494,cs),
(378,494,o),
(444,446,o),
(462,368,c),
(537,368,l),
(512,481,o),
(423,554,o),
(286,554,cs),
(132,554,o),
(21,446,o),
(21,273,c),
(21,100,o),
(132,-8,o),
(286,-8,cs)
);
}
);
width = 580;
},
{
anchors = (
{
name = bottom;
pos = (249,0);
},
{
name = top;
pos = (326,496);
}
);
guides = (
{
pos = (-11,344);
}
);
layerId = "BD1314B0-2F62-4F06-89D3-8B766BA843F0";
shapes = (
{
closed = 1;
nodes = (
(382,-12,o),
(488,67,o),
(528,181,c),
(377,181,l),
(358,136,o),
(313,107,o),
(261,107,cs),
(197,107,o),
(154,157,o),
(167,241,cs),
(181,331,o),
(242,387,o),
(312,387,cs),
(358,387,o),
(392,365,o),
(398,322,c),
(544,322,l),
(535,441,o),
(450,508,o),
(319,508,cs),
(167,508,o),
(48,403,o),
(27,255,cs),
(5,100,o),
(100,-12,o),
(257,-12,cs)
);
}
);
width = 561;
},
{
anchors = (
{
name = bottom;
pos = (253,-1);
},
{
name = top;
pos = (328,497);
}
);
guides = (
{
pos = (11,344);
}
);
layerId = "897F30B6-1700-43C7-9C60-A606C7C7F267";
shapes = (
{
closed = 1;
nodes = (
(373,-12,o),
(465,56,o),
(500,152,c),
(429,152,l),
(405,85,o),
(338,50,o),
(278,50,cs),
(160,50,o),
(99,140,o),
(113,249,cs),
(130,377,o),
(228,448,o),
(313,448,cs),
(395,448,o),
(451,410,o),
(456,344,c),
(526,344,l),
(520,443,o),
(446,508,o),
(321,508,cs),
(192,508,o),
(71,407,o),
(48,254,cs),
(25,101,o),
(117,-12,o),
(266,-12,cs)
);
}
);
width = 561;
},
{
associatedMasterId = "897F30B6-1700-43C7-9C60-A606C7C7F267";
layerId = "91CB4FC6-77A3-4400-BAFF-ACF44F18AD42";
name = "5 Jan 23 00:49";
shapes = (
{
closed = 1;
nodes = (
(380,-12,o),
(497,85,o),
(518,231,cs),
(540,377,o),
(452,488,o),
(308,488,cs),
(185,488,o),
(68,391,o),
(46,244,cs),
(25,97,o),
(113,-12,o),
(256,-12,cs)
);
},
{
closed = 1;
nodes = (
(154,48,o),
(95,134,o),
(109,239,cs),
(125,362,o),
(219,430,o),
(301,430,cs),
(414,430,o),
(472,341,o),
(456,232,cs),
(440,122,o),
(358,48,o),
(267,48,cs)
);
}
);
width = 580;
}
);
unicode = 99;
},
{
glyphname = d;
kernLeft = o;
kernRight = l;
lastChange = "2023-01-28 22:03:00 +0000";
layers = (
{
associatedMasterId = "897F30B6-1700-43C7-9C60-A606C7C7F267";
layerId = "02575D39-7864-4EEF-9012-950E1A85E8A1";
name = public.background;
shapes = (
{
closed = 1;
nodes = (
(361,-12,o),
(422,36,o),
(454,86,c),
(454,0,l),
(524,0,l),
(524,720,l),
(454,720,l),
(454,408,l),
(420,471,o),
(352,508,o),
(268,508,cs),
(117,508,o),
(21,399,o),
(21,249,cs),
(21,99,o),
(117,-12,o),
(267,-12,cs)
);
},
{
closed = 1;
nodes = (
(166,49,o),
(92,128,o),
(92,248,cs),
(92,368,o),
(166,447,o),
(271,447,cs),
(376,447,o),
(450,368,o),
(450,248,cs),
(450,128,o),
(376,49,o),
(271,49,cs)
);
}
);
width = 653;
},
{
anchors = (
{
name = bottom;
pos = (278,0);
},
{
name = center;
pos = (313,248);
},
{
name = top;
pos = (379,720);
},
{
name = topright;
pos = (661,496);
}
);
layerId = "BD1314B0-2F62-4F06-89D3-8B766BA843F0";
shapes = (
{
closed = 1;
nodes = (
(318,-12,o),
(370,22,o),
(407,65,c),
(396,0,l),
(536,0,l),
(637,720,l),
(497,720,l),
(455,429,l),
(427,477,o),
(377,508,o),
(301,508,cs),
(164,508,o),
(48,402,o),
(27,256,cs),
(5,104,o),
(98,-12,o),
(239,-12,cs)
);
},
{
closed = 1;
nodes = (
(203,110,o),
(157,166,o),
(168,242,cs),
(180,324,o),
(248,386,o),
(327,386,cs),
(402,386,o),
(447,331,o),
(436,255,cs),
(424,173,o),
(357,110,o),
(277,110,cs)
);
}
);
width = 609;
},
{
anchors = (
{
name = bottom;
pos = (272,0);
},
{
name = center;
pos = (307,248);
},
{
name = top;
pos = (373,720);
},
{
name = topright;
pos = (631,496);
}
);
layerId = "897F30B6-1700-43C7-9C60-A606C7C7F267";
shapes = (
{
closed = 1;
nodes = (
(346,-12,o),
(413,36,o),
(453,86,c),
(440,0,l),
(511,0,l),
(612,720,l),
(541,720,l),
(498,408,l),
(473,471,o),
(410,508,o),
(326,508,cs),
(175,508,o),
(65,392,o),
(45,251,cs),
(25,110,o),
(102,-12,o),
(252,-12,cs)
);
},
{
closed = 1;
nodes = (
(159,49,o),
(98,137,o),
(115,250,cs),
(132,362,o),
(215,447,o),
(321,447,cs),
(426,447,o),
(488,368,o),
(472,248,cs),
(456,128,o),
(370,49,o),
(264,49,cs)
);
}
);
width = 609;
}
);
unicode = 100;
},
{
glyphname = e;
kernLeft = o;
kernRight = e;
lastChange = "2023-01-28 22:03:00 +0000";
layers = (
{
associatedMasterId = "897F30B6-1700-43C7-9C60-A606C7C7F267";
layerId = "02575D39-7864-4EEF-9012-950E1A85E8A1";
name = public.background;
shapes = (
{
closed = 1;
nodes = (
(377,-12,o),
(452,55,o),
(477,146,c),
(409,146,l),
(387,85,o),
(335,48,o),
(261,48,cs),
(175,48,o),
(89,112,o),
(89,247,cs),
(89,274,ls),
(89,387,o),
(169,448,o),
(260,448,cs),
(351,448,o),
(419,390,o),
(423,293,c),
(75,293,l),
(75,233,l),
(490,233,l),
(491,252,o),
(491,265,o),
(491,279,cs),
(491,398,o),
(407,508,o),
(263,508,cs),
(120,508,o),
(21,407,o),
(21,249,cs),
(21,91,o),
(121,-12,o),
(261,-12,cs)
);
}
);
width = 581;
},
{
anchors = (
{
name = bottom;
pos = (251,-3);
},
{
name = ogonek;
pos = (357,11);
},
{
name = top;
pos = (323,496);
}
);
layerId = "BD1314B0-2F62-4F06-89D3-8B766BA843F0";
shapes = (
{
closed = 1;
nodes = (
(376,-12,o),
(478,66,o),
(521,161,c),
(372,161,l),
(350,128,o),
(311,102,o),
(262,102,cs),
(193,102,o),
(153,148,o),
(163,224,cs),
(167,253,ls),
(181,346,o),
(246,395,o),
(317,395,cs),
(375,395,o),
(412,359,o),
(408,302,c),
(136,298,l),
(124,214,l),
(535,210,l),
(539,227,o),
(541,244,o),
(542,254,cs),
(563,399,o),
(472,508,o),
(321,508,cs),
(166,508,o),
(51,401,o),
(29,250,cs),
(7,96,o),
(103,-12,o),
(259,-12,cs)
);
}
);
width = 564;
},
{
anchors = (
{
name = bottom;
pos = (250,-1);
},
{
name = ogonek;
pos = (360,12);
},
{
name = top;
pos = (324,496);
}
);
layerId = "897F30B6-1700-43C7-9C60-A606C7C7F267";
shapes = (
{
closed = 1;
nodes = (
(369,-12,o),
(455,55,o),
(492,146,c),
(425,146,l),
(393,85,o),
(336,48,o),
(265,48,cs),
(176,48,o),
(92,125,o),
(117,253,cs),
(122,279,ls),
(141,380,o),
(226,448,o),
(314,448,cs),
(408,448,o),
(468,390,o),
(459,293,c),
(110,293,l),
(102,233,l),
(517,233,l),
(521,250,o),
(523,263,o),
(525,279,cs),
(542,398,o),
(473,508,o),
(325,508,cs),
(185,508,o),
(73,407,o),
(50,255,cs),
(27,103,o),
(113,-12,o),
(256,-12,cs)
);
}
);
width = 564;
}
);
unicode = 101;
},
{
glyphname = f;
lastChange = "2023-01-28 22:03:00 +0000";
layers = (
{
associatedMasterId = "897F30B6-1700-43C7-9C60-A606C7C7F267";
layerId = "02575D39-7864-4EEF-9012-950E1A85E8A1";
name = public.background;
shapes = (
{
closed = 1;
nodes = (
(168,0,l),
(168,584,ls),
(168,663,o),
(198,697,o),
(291,697,c),
(291,757,l),
(153,757,o),
(98,701,o),
(98,584,cs),
(98,0,l)
);
},
{
closed = 1;
nodes = (
(295,487,l),
(295,546,l),
(22,546,l),
(22,487,l)
);
}
);
width = 367;
},
{
layerId = "BD1314B0-2F62-4F06-89D3-8B766BA843F0";
shapes = (
{
closed = 1;
nodes = (
(182,0,l),
(258,543,ls),
(264,586,o),
(280,601,o),
(327,601,cs),
(359,601,l),
(376,720,l),
(311,720,ls),
(187,720,o),
(141,704,o),
(120,557,cs),
(42,0,l)
);
},
{
closed = 1;
nodes = (
(328,379,l),
(345,496,l),
(45,496,l),
(28,379,l)
);
}
);
width = 344;
},
{
layerId = "897F30B6-1700-43C7-9C60-A606C7C7F267";
shapes = (
{
closed = 1;
nodes = (
(143,0,l),
(225,587,ls),
(234,649,o),
(248,660,o),
(308,660,cs),
(347,660,l),
(355,720,l),
(305,720,ls),
(209,720,o),
(169,690,o),
(156,594,cs),
(73,0,l)
);
},
{
closed = 1;
nodes = (
(316,436,l),
(324,496,l),
(67,496,l),
(58,436,l)
);
}
);
width = 344;
}
);
unicode = 102;
},
{
color = 4;
glyphname = g;
kernLeft = g;
kernRight = g;
lastChange = "2023-01-28 22:49:45 +0000";
layers = (
{
associatedMasterId = "897F30B6-1700-43C7-9C60-A606C7C7F267";
layerId = "02575D39-7864-4EEF-9012-950E1A85E8A1";
name = public.background;
shapes = (
{
closed = 1;
nodes = (
(414,-232,o),
(482,-145,o),
(482,-63,cs),
(482,7,o),
(441,64,o),
(325,87,cs),
(107,131,l),
(109,93,l),
(200,187,l),
(136,211,l),
(52,115,l),
(52,76,l),
(279,32,ls),
(387,11,o),
(410,-17,o),
(410,-64,cs),
(410,-129,o),
(352,-172,o),
(264,-172,cs),
(173,-172,o),
(108,-141,o),
(108,-69,cs),
(108,-32,o),
(125,24,o),
(205,57,c),
(147,80,l),
(58,38,o),
(36,-30,o),
(36,-76,cs),
(36,-186,o),
(131,-232,o),
(264,-232,cs)
);
},
{
closed = 1;
nodes = (
(381,158,o),
(457,236,o),
(457,333,cs),
(457,430,o),
(381,508,o),
(262,508,cs),
(142,508,o),
(66,430,o),
(66,333,cs),
(66,236,o),
(142,158,o),
(262,158,cs)
);
},
{
closed = 1;
nodes = (
(191,218,o),
(137,259,o),
(137,333,cs),
(137,407,o),
(191,448,o),
(262,448,cs),
(332,448,o),
(386,407,o),
(386,333,cs),
(386,259,o),
(332,218,o),
(262,218,cs)
);
},
{
closed = 1;
nodes = (
(521,436,l),
(521,496,l),
(316,496,l),
(342,436,l)
);
}
);
width = 668;
},
{
anchors = (
{
name = top;
pos = (310,496);
}
);
layerId = "BD1314B0-2F62-4F06-89D3-8B766BA843F0";
shapes = (
{
closed = 1;
nodes = (
(412,-232,o),
(544,-147,o),
(569,27,cs),
(636,496,l),
(495,496,l),
(484,428,l),
(457,472,o),
(402,508,o),
(326,508,cs),
(187,508,o),
(68,402,o),
(48,261,cs),
(27,112,o),
(121,-1,o),
(267,-1,cs),
(344,-1,o),
(402,34,o),
(439,80,c),
(429,27,ls),
(412,-65,o),
(346,-111,o),
(273,-111,cs),
(210,-111,o),
(164,-84,o),
(162,-25,c),
(24,-25,l),
(20,-170,o),
(143,-232,o),
(271,-232,cs)
);
},
{
closed = 1;
nodes = (
(223,120,o),
(179,175,o),
(189,247,cs),
(200,325,o),
(267,386,o),
(350,386,cs),
(428,386,o),
(471,332,o),
(462,260,cs),
(452,182,o),
(385,120,o),
(300,120,cs)
);
}
);
width = 636;
},
{
anchors = (
{
name = top;
pos = (290,496);
}
);
guides = (
{
pos = (6,312);
}
);
layerId = "897F30B6-1700-43C7-9C60-A606C7C7F267";
shapes = (
{
closed = 1;
nodes = (
(391,-232,o),
(507,-131,o),
(530,29,cs),
(596,496,l),
(526,496,l),
(513,401,l),
(487,460,o),
(421,508,o),
(329,508,cs),
(189,508,o),
(63,399,o),
(42,249,cs),
(21,99,o),
(116,-12,o),
(254,-12,cs),
(357,-12,o),
(432,46,o),
(471,104,c),
(461,29,ls),
(444,-102,o),
(353,-171,o),
(249,-171,cs),
(160,-171,o),
(98,-120,o),
(86,-46,c),
(16,-46,l),
(22,-160,o),
(110,-232,o),
(241,-232,cs)
);
},
{
closed = 1;
nodes = (
(161,50,o),
(100,129,o),
(117,249,cs),
(134,369,o),
(219,448,o),
(324,448,cs),
(432,448,o),
(493,369,o),
(478,255,cs),
(461,122,o),
(364,50,o),
(268,50,cs)
);
}
);
width = 636;
}
);
unicode = 103;
},
{
glyphname = h;
kernLeft = l;
kernRight = n;
lastChange = "2023-01-28 20:12:23 +0000";
layers = (
{
associatedMasterId = "897F30B6-1700-43C7-9C60-A606C7C7F267";
layerId = "02575D39-7864-4EEF-9012-950E1A85E8A1";
name = public.background;
shapes = (
{
closed = 1;
nodes = (
(548,0,l),
(548,320,ls),
(548,480,o),
(451,556,o),
(330,556,c),
(224,556,o),
(136,498,o),
(120,389,c),
(140,298,l),
(140,431,o),
(211,495,o),
(313,495,c),
(413,495,o),
(479,433,o),
(479,312,cs),
(479,0,l)
);
},
{
closed = 1;
nodes = (
(140,0,l),
(140,740,l),
(70,740,l),
(70,0,l)
);
}
);
width = 664;
},
{
anchors = (
{
name = bottom;
pos = (254,0);
},
{
name = center;
pos = (304,360);
},
{
name = top;
pos = (176,720);
}
);
layerId = "BD1314B0-2F62-4F06-89D3-8B766BA843F0";
shapes = (
{
closed = 1;
nodes = (
(502,0,l),
(540,273,ls),
(561,422,o),
(502,508,o),
(375,508,cs),
(282,508,o),
(209,456,o),
(177,378,c),
(181,252,l),
(192,336,o),
(252,390,o),
(323,390,cs),
(390,390,o),
(412,349,o),
(401,268,cs),
(363,0,l)
);
},
{
closed = 1;
nodes = (
(144,0,l),
(246,720,l),
(106,720,l),
(5,0,l)
);
}
);
width = 569;
},
{
anchors = (
{
name = bottom;
pos = (252,0);
},
{
name = center;
pos = (300,360);
},
{
name = top;
pos = (179,720);
}
);
layerId = "897F30B6-1700-43C7-9C60-A606C7C7F267";
shapes = (
{
closed = 1;
nodes = (
(471,0,l),
(513,293,ls),
(534,441,o),
(466,508,o),
(355,508,cs),
(262,508,o),
(168,447,o),
(139,349,c),
(146,257,l),
(163,380,o),
(243,447,o),
(335,447,cs),
(420,447,o),
(458,394,o),
(443,285,cs),
(403,0,l)
);
},
{
closed = 1;
nodes = (
(110,0,l),
(211,720,l),
(141,720,l),
(40,0,l)
);
}
);
width = 569;
}
);
unicode = 104;
},
{
glyphname = i;
kernLeft = i;
kernRight = i;
lastChange = "2023-01-28 20:12:23 +0000";
layers = (
{
associatedMasterId = "897F30B6-1700-43C7-9C60-A606C7C7F267";
layerId = "02575D39-7864-4EEF-9012-950E1A85E8A1";
name = public.background;
shapes = (
{
closed = 1;
nodes = (
(150,0,l),
(150,518,l),
(80,518,l),
(80,0,l)
);
},
{
closed = 1;
nodes = (
(143,605,o),
(166,627,o),
(166,657,cs),
(166,687,o),
(143,708,o),
(115,708,cs),
(87,708,o),
(64,687,o),
(64,657,cs),
(64,627,o),
(87,605,o),
(115,605,cs)
);
}
);
width = 275;
},
{
anchors = (
{
name = ogonek;
pos = (151,0);
}
);
layerId = "BD1314B0-2F62-4F06-89D3-8B766BA843F0";
shapes = (
{
closed = 1;
nodes = (
(151,0,l),
(221,496,l),
(82,496,l),
(12,0,l)
);
},
{
closed = 1;
nodes = (
(75,564,l),
(248,564,l),
(270,720,l),
(97,720,l)
);
}
);
width = 231;
},
{
anchors = (
{
name = ogonek;
pos = (116,1);
}
);
layerId = "897F30B6-1700-43C7-9C60-A606C7C7F267";
shapes = (
{
closed = 1;
nodes = (
(116,0,l),
(185,496,l),
(115,496,l),
(45,0,l)
);
},
{
closed = 1;
nodes = (
(116,617,l),
(219,617,l),
(234,720,l),
(131,720,l)
);
}
);
width = 231;
}
);
unicode = 105;
},
{
glyphname = j;
lastChange = "2023-01-28 22:03:00 +0000";
layers = (
{
associatedMasterId = "897F30B6-1700-43C7-9C60-A606C7C7F267";
layerId = "02575D39-7864-4EEF-9012-950E1A85E8A1";
name = public.background;
shapes = (
{
closed = 1;
nodes = (
(102,-232,o),
(154,-191,o),
(154,-88,cs),
(154,496,l),
(84,496,l),
(84,-87,ls),
(84,-147,o),
(57,-172,o),
(16,-172,cs),
(-6,-172,o),
(-27,-168,o),
(-44,-161,c),
(-44,-221,l),
(-23,-228,o),
(0,-232,o),
(25,-232,cs)
);
},
{
closed = 1;
nodes = (
(148,617,o),
(170,639,o),
(170,669,cs),
(170,699,o),
(148,720,o),
(120,720,cs),
(92,720,o),
(69,699,o),
(69,669,cs),
(69,639,o),
(92,617,o),
(120,617,cs)
);
}
);
width = 276;
},
{
layerId = "BD1314B0-2F62-4F06-89D3-8B766BA843F0";
shapes = (
{
closed = 1;
nodes = (
(-17,-220,ls),
(91,-220,o),
(146,-193,o),
(164,-65,cs),
(242,496,l),
(103,496,l),
(26,-51,ls),
(20,-91,o),
(8,-101,o),
(-35,-101,cs),
(-81,-101,l),
(-97,-220,l)
);
},
{
closed = 1;
nodes = (
(98,564,l),
(268,564,l),
(290,720,l),
(119,720,l)
);
}
);
width = 267;
},
{
layerId = "897F30B6-1700-43C7-9C60-A606C7C7F267";
shapes = (
{
closed = 1;
nodes = (
(-17,-220,ls),
(70,-220,o),
(110,-189,o),
(122,-101,cs),
(205,496,l),
(135,496,l),
(52,-98,ls),
(45,-151,o),
(32,-160,o),
(-20,-160,cs),
(-68,-160,l),
(-76,-220,l)
);
},
{
closed = 1;
nodes = (
(137,617,l),
(238,617,l),
(253,720,l),
(152,720,l)
);
}
);
width = 267;
}
);
unicode = 106;
},
{
glyphname = k;
kernLeft = l;
kernRight = k;
lastChange = "2023-01-28 20:12:23 +0000";
layers = (
{
associatedMasterId = "897F30B6-1700-43C7-9C60-A606C7C7F267";
layerId = "02575D39-7864-4EEF-9012-950E1A85E8A1";
name = public.background;
shapes = (
{
closed = 1;
nodes = (
(452,0,l),
(177,297,l),
(176,250,l),
(425,496,l),
(338,496,l),
(114,273,l),
(361,0,l)
);
},
{
closed = 1;
nodes = (
(140,0,l),
(140,720,l),
(70,720,l),
(70,0,l)
);
}
);
width = 484;
},
{
anchors = (
{
name = bottom;
pos = (241,0);
}
);
layerId = "BD1314B0-2F62-4F06-89D3-8B766BA843F0";
shapes = (
{
closed = 1;
nodes = (
(157,0,l),
(259,720,l),
(119,720,l),
(17,0,l)
);
},
{
closed = 1;
nodes = (
(112,215,l),
(172,135,l),
(560,496,l),
(396,496,l)
);
},
{
closed = 1;
nodes = (
(296,326,l),
(202,243,l),
(356,0,l),
(525,0,l)
);
}
);
width = 561;
},
{
anchors = (
{
name = bottom;
pos = (238,0);
}
);
layerId = "897F30B6-1700-43C7-9C60-A606C7C7F267";
shapes = (
{
closed = 1;
nodes = (
(146,0,l),
(247,720,l),
(177,720,l),
(76,0,l)
);
},
{
closed = 1;
nodes = (
(159,253,l),
(159,179,l),
(526,496,l),
(437,496,l)
);
},
{
closed = 1;
nodes = (
(289,322,l),
(237,273,l),
(390,0,l),
(482,0,l)
);
}
);
width = 561;
}
);
unicode = 107;
},
{
glyphname = l;
kernLeft = l;
kernRight = l;
lastChange = "2023-01-28 20:12:23 +0000";
layers = (
{
associatedMasterId = "897F30B6-1700-43C7-9C60-A606C7C7F267";
layerId = "02575D39-7864-4EEF-9012-950E1A85E8A1";
name = public.background;
shapes = (
{
closed = 1;
nodes = (
(140,0,l),
(140,700,l),
(70,700,l),
(70,0,l)
);
}
);
width = 269;
},
{
anchors = (
{
name = bottom;
pos = (85,0);
},
{
name = commaaccent;
pos = (87,10);
},
{
name = top;
pos = (186,720);
},
{
name = topright;
pos = (287,554);
}
);
layerId = "BD1314B0-2F62-4F06-89D3-8B766BA843F0";
shapes = (
{
closed = 1;
nodes = (
(153,0,l),
(255,720,l),
(115,720,l),
(14,0,l)
);
}
);
width = 236;
},
{
anchors = (
{
name = bottom;
pos = (83,0);
},
{
name = commaaccent;
pos = (85,10);
},
{
name = top;
pos = (184,720);
},
{
name = topright;
pos = (249,546);
}
);
layerId = "897F30B6-1700-43C7-9C60-A606C7C7F267";
shapes = (
{
closed = 1;
nodes = (
(118,0,l),
(219,720,l),
(149,720,l),
(48,0,l)
);
}
);
width = 236;
}
);
unicode = 108;
},
{
color = 4;
glyphname = m;
kernLeft = n;
kernRight = n;
lastChange = "2023-01-28 22:49:45 +0000";
layers = (
{
associatedMasterId = "897F30B6-1700-43C7-9C60-A606C7C7F267";
layerId = "02575D39-7864-4EEF-9012-950E1A85E8A1";
name = public.background;
shapes = (
{
closed = 1;
nodes = (
(824,0,l),
(824,293,ls),
(824,441,o),
(745,508,o),
(630,508,cs),
(541,508,o),
(457,447,o),
(441,349,c),
(482,257,l),
(482,380,o),
(545,447,o),
(628,447,cs),
(708,447,o),
(754,394,o),
(754,285,cs),
(754,0,l)
);
},
{
closed = 1;
nodes = (
(140,0,l),
(140,496,l),
(70,496,l),
(70,0,l)
);
},
{
closed = 1;
nodes = (
(482,0,l),
(482,293,ls),
(482,439,o),
(407,508,o),
(293,508,cs),
(201,508,o),
(129,448,o),
(114,350,c),
(140,257,l),
(140,380,o),
(203,447,o),
(286,447,cs),
(366,447,o),
(412,394,o),
(412,285,cs),
(412,0,l)
);
}
);
width = 940;
},
{
layerId = "BD1314B0-2F62-4F06-89D3-8B766BA843F0";
shapes = (
{
closed = 1;
nodes = (
(831,0,l),
(870,273,ls),
(891,422,o),
(829,508,o),
(695,508,cs),
(605,508,o),
(525,458,o),
(484,380,c),
(525,252,l),
(535,336,o),
(589,390,o),
(657,390,cs),
(720,390,o),
(741,349,o),
(730,268,cs),
(693,0,l)
);
},
{
closed = 1;
nodes = (
(144,0,l),
(201,402,l),
(214,496,l),
(74,496,l),
(4,0,l)
);
},
{
closed = 1;
nodes = (
(489,0,l),
(527,273,ls),
(548,422,o),
(488,508,o),
(360,508,cs),
(269,508,o),
(200,456,o),
(167,378,c),
(180,252,l),
(192,336,o),
(245,390,o),
(313,390,cs),
(376,390,o),
(397,349,o),
(386,268,cs),
(349,0,l)
);
}
);
width = 899;
},
{
layerId = "897F30B6-1700-43C7-9C60-A606C7C7F267";
shapes = (
{
closed = 1;
nodes = (
(798,0,l),
(839,293,ls),
(860,441,o),
(790,508,o),
(675,508,cs),
(585,508,o),
(494,447,o),
(464,349,c),
(492,257,l),
(509,380,o),
(581,447,o),
(665,447,cs),
(745,447,o),
(784,394,o),
(768,285,cs),
(727,0,l)
);
},
{
closed = 1;
nodes = (
(114,0,l),
(170,400,l),
(183,496,l),
(114,496,l),
(44,0,l)
);
},
{
closed = 1;
nodes = (
(455,0,l),
(497,293,ls),
(518,439,o),
(452,508,o),
(338,508,cs),
(246,508,o),
(166,448,o),
(136,350,c),
(150,257,l),
(167,380,o),
(240,447,o),
(322,447,cs),
(402,447,o),
(442,394,o),
(426,285,cs),
(385,0,l)
);
}
);
width = 899;
}
);
unicode = 109;
},
{
color = 4;
glyphname = n;
kernLeft = n;
kernRight = n;
lastChange = "2023-01-28 22:49:45 +0000";
layers = (
{
associatedMasterId = "897F30B6-1700-43C7-9C60-A606C7C7F267";
layerId = "02575D39-7864-4EEF-9012-950E1A85E8A1";
name = public.background;
shapes = (
{
closed = 1;
nodes = (
(502,0,l),
(502,293,ls),
(502,441,o),
(425,508,o),
(310,508,cs),
(215,508,o),
(136,447,o),
(120,349,c),
(140,257,l),
(140,380,o),
(207,447,o),
(298,447,cs),
(384,447,o),
(432,394,o),
(432,285,cs),
(432,0,l)
);
},
{
closed = 1;
nodes = (
(140,0,l),
(140,496,l),
(70,496,l),
(70,0,l)
);
}
);
width = 618;
},
{
anchors = (
{
name = bottom;
pos = (254,0);
},
{
name = top;
pos = (344,496);
}
);
layerId = "BD1314B0-2F62-4F06-89D3-8B766BA843F0";
shapes = (
{
closed = 1;
nodes = (
(502,0,l),
(540,273,ls),
(561,422,o),
(502,508,o),
(374,508,cs),
(280,508,o),
(209,456,o),
(177,378,c),
(181,252,l),
(192,336,o),
(251,390,o),
(320,390,cs),
(389,390,o),
(412,349,o),
(401,268,cs),
(363,0,l)
);
},
{
closed = 1;
nodes = (
(144,0,l),
(196,370,l),
(214,496,l),
(75,496,l),
(5,0,l)
);
}
);
width = 569;
},
{
anchors = (
{
name = bottom;
pos = (250,0);
},
{
name = top;
pos = (337,496);
}
);
layerId = "897F30B6-1700-43C7-9C60-A606C7C7F267";
shapes = (
{
closed = 1;
nodes = (
(471,0,l),
(513,293,ls),
(534,441,o),
(466,508,o),
(352,508,cs),
(256,508,o),
(168,447,o),
(139,349,c),
(146,257,l),
(163,380,o),
(240,447,o),
(331,447,cs),
(417,447,o),
(457,394,o),
(442,285,cs),
(402,0,l)
);
},
{
closed = 1;
nodes = (
(110,0,l),
(160,358,l),
(180,496,l),
(110,496,l),
(40,0,l)
);
}
);
width = 569;
}
);
unicode = 110;
},
{
glyphname = o;
kernLeft = o;
kernRight = o;
lastChange = "2023-01-28 22:03:00 +0000";
layers = (
{
associatedMasterId = "897F30B6-1700-43C7-9C60-A606C7C7F267";
layerId = "02575D39-7864-4EEF-9012-950E1A85E8A1";
name = public.background;
shapes = (
{
closed = 1;
nodes = (
(446,-8,o),
(567,100,o),
(567,273,c),
(567,447,o),
(448,554,o),
(294,554,c),
(141,554,o),
(21,447,o),
(21,273,c),
(21,100,o),
(138,-8,o),
(292,-8,c)
);
},
{
closed = 1;
nodes = (
(188,53,o),
(92,123,o),
(92,273,c),
(92,423,o),
(189,493,o),
(293,493,c),
(397,493,o),
(495,423,o),
(495,273,c),
(495,123,o),
(395,53,o),
(292,53,c)
);
}
);
width = 610;
},
{
anchors = (
{
name = bottom;
pos = (247,0);
},
{
name = center;
pos = (282,248);
},
{
name = ogonek;
pos = (315,0);
},
{
name = top;
pos = (316,496);
},
{
name = topright;
pos = (602,496);
}
);
layerId = "BD1314B0-2F62-4F06-89D3-8B766BA843F0";
shapes = (
{
closed = 1;
nodes = (
(392,-12,o),
(516,92,o),
(537,237,cs),
(559,387,o),
(459,508,o),
(310,508,cs),
(173,508,o),
(48,405,o),
(27,260,cs),
(5,109,o),
(104,-12,o),
(253,-12,cs)
);
},
{
closed = 1;
nodes = (
(198,109,o),
(154,160,o),
(167,246,cs),
(181,339,o),
(241,387,o),
(305,387,cs),
(366,387,o),
(408,336,o),
(396,251,cs),
(383,159,o),
(322,109,o),
(258,109,cs)
);
}
);
width = 564;
},
{
anchors = (
{
name = bottom;
pos = (248,0);
},
{
name = center;
pos = (282,248);
},
{
name = ogonek;
pos = (309,0);
},
{
name = top;
pos = (318,496);
},
{
name = topright;
pos = (591,496);
}
);
layerId = "897F30B6-1700-43C7-9C60-A606C7C7F267";
shapes = (
{
closed = 1;
nodes = (
(384,-12,o),
(505,89,o),
(528,241,cs),
(551,393,o),
(459,508,o),
(309,508,cs),
(181,508,o),
(59,407,o),
(36,254,cs),
(13,101,o),
(106,-12,o),
(255,-12,cs)
);
},
{
closed = 1;
nodes = (
(149,50,o),
(88,140,o),
(102,249,cs),
(118,377,o),
(216,448,o),
(302,448,cs),
(419,448,o),
(480,355,o),
(463,242,cs),
(446,127,o),
(361,50,o),
(266,50,cs)
);
}
);
width = 564;
}
);
unicode = 111;
},
{
glyphname = p;
kernRight = o;
lastChange = "2023-01-28 22:03:00 +0000";
layers = (
{
associatedMasterId = "897F30B6-1700-43C7-9C60-A606C7C7F267";
layerId = "02575D39-7864-4EEF-9012-950E1A85E8A1";
name = public.background;
shapes = (
{
closed = 1;
nodes = (
(140,-220,l),
(140,88,l),
(174,25,o),
(242,-12,o),
(326,-12,cs),
(477,-12,o),
(573,97,o),
(573,247,cs),
(573,397,o),
(477,508,o),
(327,508,cs),
(233,508,o),
(172,460,o),
(140,410,c),
(140,496,l),
(70,496,l),
(70,-220,l)
);
},
{
closed = 1;
nodes = (
(218,49,o),
(144,128,o),
(144,248,cs),
(144,368,o),
(218,447,o),
(323,447,cs),
(428,447,o),
(502,368,o),
(502,248,cs),
(502,128,o),
(428,49,o),
(323,49,cs)
);
}
);
width = 616;
},
{
layerId = "BD1314B0-2F62-4F06-89D3-8B766BA843F0";
shapes = (
{
closed = 1;
nodes = (
(112,-220,l),
(154,67,l),
(181,19,o),
(233,-12,o),
(309,-12,cs),
(445,-12,o),
(562,94,o),
(582,240,cs),
(603,393,o),
(511,508,o),
(371,508,cs),
(291,508,o),
(239,474,o),
(202,431,c),
(212,496,l),
(73,496,l),
(-28,-220,l)
);
},
{
closed = 1;
nodes = (
(206,110,o),
(163,165,o),
(173,241,cs),
(184,323,o),
(251,386,o),
(332,386,cs),
(407,386,o),
(453,331,o),
(441,254,cs),
(428,172,o),
(362,110,o),
(281,110,cs)
);
}
);
width = 609;
},
{
layerId = "897F30B6-1700-43C7-9C60-A606C7C7F267";
shapes = (
{
closed = 1;
nodes = (
(69,-220,l),
(112,87,l),
(137,25,o),
(200,-12,o),
(284,-12,cs),
(435,-12,o),
(544,105,o),
(565,246,cs),
(586,386,o),
(508,508,o),
(358,508,cs),
(264,508,o),
(197,460,o),
(157,410,c),
(170,496,l),
(100,496,l),
(-1,-220,l)
);
},
{
closed = 1;
nodes = (
(182,49,o),
(120,128,o),
(135,242,cs),
(152,375,o),
(250,447,o),
(346,447,cs),
(453,447,o),
(511,359,o),
(495,247,cs),
(479,134,o),
(395,49,o),
(289,49,cs)
);
}
);
width = 609;
}
);
unicode = 112;
},
{
glyphname = q;
kernLeft = o;
lastChange = "2023-01-28 22:03:00 +0000";
layers = (
{
associatedMasterId = "897F30B6-1700-43C7-9C60-A606C7C7F267";
layerId = "02575D39-7864-4EEF-9012-950E1A85E8A1";
name = public.background;
shapes = (
{
closed = 1;
nodes = (
(524,-220,l),
(524,496,l),
(454,496,l),
(454,408,l),
(420,471,o),
(352,508,o),
(268,508,cs),
(117,508,o),
(21,399,o),
(21,249,cs),
(21,99,o),
(117,-12,o),
(267,-12,cs),
(361,-12,o),
(422,36,o),
(454,86,c),
(454,-220,l)
);
},
{
closed = 1;
nodes = (
(166,49,o),
(92,128,o),
(92,248,cs),
(92,368,o),
(166,447,o),
(271,447,cs),
(376,447,o),
(450,368,o),
(450,248,cs),
(450,128,o),
(376,49,o),
(271,49,cs)
);
}
);
width = 653;
},
{
layerId = "BD1314B0-2F62-4F06-89D3-8B766BA843F0";
shapes = (
{
closed = 1;
nodes = (
(505,-220,l),
(606,496,l),
(465,496,l),
(455,429,l),
(427,477,o),
(377,508,o),
(301,508,cs),
(164,508,o),
(48,402,o),
(27,256,cs),
(5,104,o),
(98,-12,o),
(239,-12,cs),
(318,-12,o),
(370,22,o),
(407,65,c),
(365,-220,l)
);
},
{
closed = 1;
nodes = (
(203,110,o),
(157,166,o),
(168,242,cs),
(180,324,o),
(248,386,o),
(327,386,cs),
(402,386,o),
(447,331,o),
(436,255,cs),
(424,173,o),
(357,110,o),
(277,110,cs)
);
}
);
width = 609;
},
{
layerId = "897F30B6-1700-43C7-9C60-A606C7C7F267";
shapes = (
{
closed = 1;
nodes = (
(480,-220,l),
(580,496,l),
(510,496,l),
(498,408,l),
(473,471,o),
(410,508,o),
(326,508,cs),
(175,508,o),
(65,392,o),
(45,251,cs),
(24,101,o),
(102,-12,o),
(252,-12,cs),
(346,-12,o),
(413,36,o),
(453,86,c),
(410,-220,l)
);
},
{
closed = 1;
nodes = (
(155,50,o),
(97,139,o),
(113,251,cs),
(129,364,o),
(213,448,o),
(319,448,cs),
(426,448,o),
(488,369,o),
(473,255,cs),
(456,122,o),
(358,50,o),
(262,50,cs)
);
}
);
width = 609;
}
);
unicode = 113;
},
{
color = 4;
glyphname = r;
kernLeft = n;
kernRight = r;
lastChange = "2023-01-28 22:49:45 +0000";
layers = (
{
associatedMasterId = "897F30B6-1700-43C7-9C60-A606C7C7F267";
layerId = "02575D39-7864-4EEF-9012-950E1A85E8A1";
name = public.background;
shapes = (
{
closed = 1;
nodes = (
(140,0,l),
(140,496,l),
(70,496,l),
(70,0,l)
);
},
{
closed = 1;
nodes = (
(140,257,l),
(140,394,o),
(217,435,o),
(308,435,cs),
(327,435,l),
(327,508,l),
(187,508,o),
(118,420,o),
(118,287,c)
);
}
);
width = 353;
},
{
anchors = (
{
name = bottom;
pos = (86,0);
},
{
name = top;
pos = (268,496);
}
);
layerId = "BD1314B0-2F62-4F06-89D3-8B766BA843F0";
shapes = (
{
closed = 1;
nodes = (
(157,0,l),
(212,387,l),
(226,496,l),
(87,496,l),
(17,0,l)
);
},
{
closed = 1;
nodes = (
(187,206,l),
(201,315,o),
(242,377,o),
(317,377,cs),
(389,377,l),
(407,501,l),
(342,501,ls),
(244,501,o),
(175,391,o),
(157,256,c)
);
}
);
width = 381;
},
{
anchors = (
{
name = bottom;
pos = (86,0);
},
{
name = top;
pos = (261,496);
}
);
layerId = "897F30B6-1700-43C7-9C60-A606C7C7F267";
shapes = (
{
closed = 1;
nodes = (
(119,0,l),
(173,383,l),
(189,496,l),
(119,496,l),
(49,0,l)
);
},
{
closed = 1;
nodes = (
(154,247,l),
(173,384,o),
(229,432,o),
(290,432,cs),
(367,432,l),
(376,499,l),
(307,499,ls),
(207,499,o),
(155,410,o),
(136,277,c)
);
}
);
width = 381;
}
);
unicode = 114;
},
{
color = 4;
glyphname = s;
kernLeft = s;
kernRight = s;
lastChange = "2023-01-28 22:49:45 +0000";
layers = (
{
associatedMasterId = "897F30B6-1700-43C7-9C60-A606C7C7F267";
layerId = "02575D39-7864-4EEF-9012-950E1A85E8A1";
name = public.background;
shapes = (
{
closed = 1;
nodes = (
(368,-8,o),
(445,57,o),
(445,145,c),
(442,338,o),
(119,259,o),
(119,407,c),
(119,455,o),
(165,494,o),
(238,494,cs),
(321,494,o),
(366,448,o),
(370,387,c),
(440,387,l),
(434,492,o),
(357,554,o),
(240,554,cs),
(125,554,o),
(48,487,o),
(48,406,c),
(48,201,o),
(376,280,o),
(376,145,c),
(376,93,o),
(332,51,o),
(254,51,cs),
(165,51,o),
(113,94,o),
(107,154,c),
(35,154,l),
(44,54,o),
(131,-8,o),
(255,-8,cs)
);
}
);
width = 532;
},
{
anchors = (
{
name = bottom;
pos = (211,0);
},
{
name = top;
pos = (280,496);
}
);
guides = (
{
pos = (-10,357);
}
);
layerId = "BD1314B0-2F62-4F06-89D3-8B766BA843F0";
shapes = (
{
closed = 1;
nodes = (
(370,-12,o),
(444,52,o),
(456,149,cs),
(469,254,o),
(398,283,o),
(316,299,cs),
(299,302,o),
(251,312,o),
(231,317,cs),
(197,325,o),
(176,334,o),
(180,359,cs),
(184,385,o),
(207,401,o),
(262,401,cs),
(300,401,o),
(337,378,o),
(336,343,c),
(469,343,l),
(473,444,o),
(397,508,o),
(264,508,cs),
(137,508,o),
(69,442,o),
(56,356,cs),
(42,265,o),
(104,230,o),
(190,207,cs),
(205,203,o),
(244,194,o),
(265,190,cs),
(294,184,o),
(332,179,o),
(325,137,cs),
(321,112,o),
(297,94,o),
(240,94,cs),
(194,94,o),
(147,112,o),
(146,161,c),
(4,161,l),
(0,59,o),
(95,-12,o),
(232,-12,cs)
);
}
);
width = 495;
},
{
anchors = (
{
name = bottom;
pos = (213,0);
},
{
name = top;
pos = (281,496);
}
);
guides = (
{
pos = (14,357);
}
);
layerId = "897F30B6-1700-43C7-9C60-A606C7C7F267";
shapes = (
{
closed = 1;
nodes = (
(347,-12,o),
(423,54,o),
(433,131,cs),
(448,245,o),
(361,265,o),
(306,278,cs),
(286,283,o),
(259,289,o),
(234,296,cs),
(180,311,o),
(150,330,o),
(156,374,cs),
(162,421,o),
(201,447,o),
(262,447,cs),
(328,447,o),
(382,422,o),
(379,357,c),
(450,357,l),
(454,465,o),
(373,508,o),
(272,508,cs),
(165,508,o),
(99,451,o),
(87,375,cs),
(72,278,o),
(146,247,o),
(207,230,cs),
(234,223,o),
(259,217,o),
(288,210,cs),
(326,201,o),
(372,191,o),
(365,137,cs),
(358,86,o),
(320,49,o),
(245,49,cs),
(162,49,o),
(103,87,o),
(102,154,c),
(29,154,l),
(27,40,o),
(118,-12,o),
(233,-12,cs)
);
}
);
width = 495;
}
);
unicode = 115;
},
{
glyphname = t;
kernLeft = t;
kernRight = t;
lastChange = "2023-01-28 22:03:00 +0000";
layers = (
{
associatedMasterId = "897F30B6-1700-43C7-9C60-A606C7C7F267";
layerId = "02575D39-7864-4EEF-9012-950E1A85E8A1";
name = public.background;
shapes = (
{
closed = 1;
nodes = (
(331,0,l),
(331,60,l),
(282,60,ls),
(214,60,o),
(190,78,o),
(190,145,cs),
(190,436,l),
(340,436,l),
(340,496,l),
(190,496,l),
(190,621,l),
(120,596,l),
(120,496,l),
(34,496,l),
(34,436,l),
(120,436,l),
(120,145,ls),
(120,36,o),
(171,0,o),
(258,0,cs)
);
}
);
width = 416;
},
{
anchors = (
{
name = bottom;
pos = (202,0);
},
{
name = topright;
pos = (408,700);
}
);
layerId = "BD1314B0-2F62-4F06-89D3-8B766BA843F0";
shapes = (
{
closed = 1;
nodes = (
(324,0,l),
(341,119,l),
(278,119,ls),
(231,119,o),
(223,125,o),
(229,171,cs),
(258,379,l),
(380,379,l),
(397,496,l),
(274,496,l),
(294,632,l),
(153,632,l),
(134,496,l),
(49,496,l),
(33,379,l),
(118,379,l),
(88,161,ls),
(70,31,o),
(123,0,o),
(227,0,cs)
);
}
);
width = 400;
},
{
anchors = (
{
name = bottom;
pos = (223,0);
},
{
name = topright;
pos = (379,700);
}
);
guides = (
{
angle = 20.03;
pos = (152,596);
},
{
pos = (32,596);
},
{
pos = (32,621);
}
);
layerId = "897F30B6-1700-43C7-9C60-A606C7C7F267";
shapes = (
{
closed = 1;
nodes = (
(302,0,l),
(310,60,l),
(267,60,ls),
(199,60,o),
(189,62,o),
(199,135,cs),
(242,436,l),
(373,436,l),
(381,496,l),
(250,496,l),
(266,611,l),
(196,611,l),
(180,496,l),
(94,496,l),
(85,436,l),
(172,436,l),
(127,122,ls),
(113,23,o),
(151,0,o),
(228,0,cs)
);
}
);
width = 400;
}
);
unicode = 116;
},
{
color = 4;
glyphname = u;
kernLeft = u;
kernRight = u;
lastChange = "2023-01-28 22:49:45 +0000";
layers = (
{
anchors = (
{
name = bottom;
pos = (248,0);
},
{
name = ogonek;
pos = (495,0);
},
{
name = top;
pos = (314,496);
},
{
name = topright;
pos = (565,496);
}
);
layerId = "BD1314B0-2F62-4F06-89D3-8B766BA843F0";
shapes = (
{
closed = 1;
nodes = (
(289,-12,o),
(360,40,o),
(393,118,c),
(389,244,l),
(378,159,o),
(318,106,o),
(249,106,cs),
(181,106,o),
(159,147,o),
(170,228,cs),
(208,496,l),
(68,496,l),
(30,223,ls),
(9,74,o),
(69,-12,o),
(198,-12,cs)
);
},
{
closed = 1;
nodes = (
(494,0,l),
(564,496,l),
(425,496,l),
(373,126,l),
(355,0,l)
);
}
);
width = 568;
},
{
anchors = (
{
name = bottom;
pos = (239,0);
},
{
name = ogonek;
pos = (459,0);
},
{
name = top;
pos = (309,496);
},
{
name = topright;
pos = (529,496);
}
);
layerId = "897F30B6-1700-43C7-9C60-A606C7C7F267";
shapes = (
{
closed = 1;
nodes = (
(312,-12,o),
(400,49,o),
(430,147,c),
(423,239,l),
(405,116,o),
(329,49,o),
(238,49,cs),
(152,49,o),
(112,102,o),
(127,211,cs),
(166,496,l),
(97,496,l),
(56,203,ls),
(35,55,o),
(103,-12,o),
(217,-12,cs)
);
},
{
closed = 1;
nodes = (
(459,0,l),
(529,496,l),
(459,496,l),
(408,137,l),
(389,0,l)
);
}
);
width = 568;
}
);
unicode = 117;
},
{
glyphname = v;
lastChange = "2023-01-28 20:12:23 +0000";
layers = (
{
associatedMasterId = "897F30B6-1700-43C7-9C60-A606C7C7F267";
layerId = "02575D39-7864-4EEF-9012-950E1A85E8A1";
name = public.background;
shapes = (
{
closed = 1;
nodes = (
(295,0,l),
(514,546,l),
(440,546,l),
(256,68,l),
(72,546,l),
(-3,546,l),
(216,0,l)
);
}
);
width = 562;
},
{
layerId = "BD1314B0-2F62-4F06-89D3-8B766BA843F0";
shapes = (
{
closed = 1;
nodes = (
(327,0,l),
(578,496,l),
(430,496,l),
(259,132,l),
(191,496,l),
(46,496,l),
(157,0,l)
);
}
);
width = 552;
},
{
layerId = "897F30B6-1700-43C7-9C60-A606C7C7F267";
shapes = (
{
closed = 1;
nodes = (
(281,0,l),
(541,496,l),
(469,496,l),
(251,68,l),
(155,496,l),
(81,496,l),
(202,0,l)
);
}
);
width = 552;
}
);
unicode = 118;
},
{
color = 4;
glyphname = w;
kernLeft = w;
kernRight = w;
lastChange = "2023-01-28 22:49:45 +0000";
layers = (
{
associatedMasterId = "897F30B6-1700-43C7-9C60-A606C7C7F267";
layerId = "02575D39-7864-4EEF-9012-950E1A85E8A1";
name = public.background;
shapes = (
{
closed = 1;
nodes = (
(218,0,l),
(385,507,l),
(352,508,l),
(520,0,l),
(590,0,l),
(761,546,l),
(692,546,l),
(544,25,l),
(571,25,l),
(406,546,l),
(336,546,l),
(168,25,l),
(196,25,l),
(47,546,l),
(-24,546,l),
(147,0,l)
);
}
);
width = 816;
},
{
anchors = (
{
name = bottom;
pos = (368,0);
},
{
name = top;
pos = (437,496);
}
);
layerId = "BD1314B0-2F62-4F06-89D3-8B766BA843F0";
shapes = (
{
closed = 1;
nodes = (
(267,0,l),
(448,428,l),
(409,428,l),
(471,0,l),
(615,0,l),
(831,496,l),
(692,496,l),
(534,79,l),
(570,80,l),
(514,496,l),
(359,496,l),
(187,80,l),
(222,79,l),
(182,496,l),
(46,496,l),
(122,0,l)
);
}
);
width = 806;
},
{
anchors = (
{
name = bottom;
pos = (369,0);
},
{
name = top;
pos = (438,496);
}
);
layerId = "897F30B6-1700-43C7-9C60-A606C7C7F267";
shapes = (
{
closed = 1;
nodes = (
(242,0,l),
(440,451,l),
(423,451,l),
(496,0,l),
(567,0,l),
(781,496,l),
(710,496,l),
(531,67,l),
(549,67,l),
(478,496,l),
(398,496,l),
(207,67,l),
(225,67,l),
(167,496,l),
(95,496,l),
(171,0,l)
);
}
);
width = 806;
}
);
unicode = 119;
},
{
glyphname = x;
lastChange = "2023-01-28 20:12:23 +0000";
layers = (
{
associatedMasterId = "897F30B6-1700-43C7-9C60-A606C7C7F267";
layerId = "02575D39-7864-4EEF-9012-950E1A85E8A1";
name = public.background;
shapes = (
{
closed = 1;
nodes = (
(420,0,l),
(103,496,l),
(30,496,l),
(347,0,l)
);
},
{
closed = 1;
nodes = (
(70,0,l),
(220,242,l),
(189,299,l),
(-4,0,l)
);
},
{
closed = 1;
nodes = (
(392,496,l),
(320,496,l),
(201,305,l),
(231,247,l)
);
}
);
width = 578;
},
{
layerId = "BD1314B0-2F62-4F06-89D3-8B766BA843F0";
shapes = (
{
closed = 1;
nodes = (
(129,0,l),
(276,168,l),
(372,0,l),
(519,0,l),
(373,248,l),
(591,496,l),
(439,496,l),
(293,328,l),
(197,496,l),
(48,496,l),
(194,248,l),
(-24,0,l)
);
}
);
width = 566;
},
{
layerId = "897F30B6-1700-43C7-9C60-A606C7C7F267";
shapes = (
{
closed = 1;
nodes = (
(105,0,l),
(279,214,l),
(392,0,l),
(467,0,l),
(333,248,l),
(537,496,l),
(462,496,l),
(288,282,l),
(175,496,l),
(100,496,l),
(233,248,l),
(30,0,l)
);
}
);
width = 566;
}
);
unicode = 120;
},
{
color = 4;
glyphname = y;
kernLeft = y;
kernRight = y;
lastChange = "2023-01-28 22:49:45 +0000";
layers = (
{
associatedMasterId = "897F30B6-1700-43C7-9C60-A606C7C7F267";
layerId = "02575D39-7864-4EEF-9012-950E1A85E8A1";
name = public.background;
shapes = (
{
closed = 1;
nodes = (
(195,-220,l),
(523,496,l),
(451,496,l),
(281,120,l),
(126,496,l),
(50,496,l),
(243,42,l),
(122,-220,l)
);
}
);
width = 608;
},
{
anchors = (
{
name = top;
pos = (342,496);
}
);
layerId = "BD1314B0-2F62-4F06-89D3-8B766BA843F0";
shapes = (
{
closed = 1;
nodes = (
(623,496,l),
(471,496,l),
(285,158,l),
(202,496,l),
(52,496,l),
(186,-4,l),
(155,-57,ls),
(126,-102,o),
(112,-110,o),
(82,-110,cs),
(18,-110,l),
(2,-220,l),
(136,-220,ls),
(205,-220,o),
(221,-200,o),
(275,-107,cs)
);
}
);
width = 603;
},
{
anchors = (
{
name = top;
pos = (333,496);
}
);
layerId = "897F30B6-1700-43C7-9C60-A606C7C7F267";
shapes = (
{
closed = 1;
nodes = (
(588,496,l),
(516,496,l),
(277,98,l),
(161,496,l),
(85,496,l),
(232,23,l),
(168,-85,ls),
(129,-151,o),
(120,-160,o),
(92,-160,cs),
(44,-160,l),
(35,-220,l),
(99,-220,ls),
(156,-220,o),
(166,-209,o),
(232,-98,cs)
);
}
);
width = 603;
}
);
unicode = 121;
},
{
glyphname = z;
kernLeft = z;
kernRight = z;
lastChange = "2023-01-28 20:12:23 +0000";
layers = (
{
associatedMasterId = "897F30B6-1700-43C7-9C60-A606C7C7F267";
layerId = "02575D39-7864-4EEF-9012-950E1A85E8A1";
name = public.background;
shapes = (
{
closed = 1;
nodes = (
(402,0,l),
(402,58,l),
(116,58,l),
(397,488,l),
(397,546,l),
(41,546,l),
(41,488,l),
(317,488,l),
(36,58,l),
(36,0,l)
);
}
);
width = 486;
},
{
anchors = (
{
name = top;
pos = (264,496);
}
);
layerId = "BD1314B0-2F62-4F06-89D3-8B766BA843F0";
shapes = (
{
closed = 1;
nodes = (
(398,0,l),
(414,116,l),
(159,116,l),
(448,384,l),
(462,496,l),
(58,496,l),
(42,380,l),
(285,380,l),
(0,112,l),
(-15,0,l)
);
}
);
width = 465;
},
{
anchors = (
{
name = top;
pos = (266,496);
}
);
layerId = "897F30B6-1700-43C7-9C60-A606C7C7F267";
shapes = (
{
closed = 1;
nodes = (
(378,0,l),
(386,58,l),
(99,58,l),
(435,437,l),
(443,496,l),
(87,496,l),
(79,437,l),
(357,437,l),
(21,58,l),
(12,0,l)
);
}
);
width = 465;
}
);
unicode = 122;
},
{
glyphname = Aogonek;
kernLeft = A;
kernRight = A;
lastChange = "2023-01-28 22:36:17 +0000";
layers = (
{
associatedMasterId = "897F30B6-1700-43C7-9C60-A606C7C7F267";
layerId = "02575D39-7864-4EEF-9012-950E1A85E8A1";
name = public.background;
shapes = (
{
closed = 1;
nodes = (
(576,-201,o),
(602,-196,o),
(624,-188,c),
(624,-139,l),
(602,-148,o),
(579,-153,o),
(559,-153,cs),
(523,-153,o),
(498,-135,o),
(498,-102,cs),
(498,-76,o),
(513,-52,o),
(561,-29,cs),
(620,0,l),
(601,38,l),
(547,13,ls),
(468,-23,o),
(439,-64,o),
(439,-109,cs),
(439,-176,o),
(494,-201,o),
(552,-201,cs)
);
},
{
alignment = -1;
ref = A;
}
);
width = 716;
},
{
layerId = "BD1314B0-2F62-4F06-89D3-8B766BA843F0";
shapes = (
{
ref = A;
},
{
pos = (431,0);
ref = ogonekcomb.case;
}
);
width = 694;
},
{
layerId = "897F30B6-1700-43C7-9C60-A606C7C7F267";
shapes = (
{
ref = A;
},
{
pos = (429,0);
ref = ogonekcomb.case;
}
);
width = 694;
}
);
unicode = 260;
},
{
glyphname = AE;
kernLeft = AE;
kernRight = E;
lastChange = "2023-01-28 20:45:07 +0000";
layers = (
{
associatedMasterId = "897F30B6-1700-43C7-9C60-A606C7C7F267";
layerId = "02575D39-7864-4EEF-9012-950E1A85E8A1";
name = public.background;
shapes = (
{
closed = 1;
nodes = (
(109,0,l),
(479,640,l),
(479,0,l),
(844,0,l),
(844,56,l),
(549,56,l),
(549,324,l),
(814,324,l),
(814,380,l),
(549,380,l),
(549,644,l),
(844,644,l),
(844,700,l),
(438,700,l),
(32,0,l)
);
},
{
closed = 1;
nodes = (
(511,166,l),
(511,222,l),
(195,222,l),
(166,166,l)
);
}
);
width = 932;
},
{
anchors = (
{
name = bottom;
pos = (429,0);
},
{
name = top;
pos = (627,700);
}
);
layerId = "BD1314B0-2F62-4F06-89D3-8B766BA843F0";
shapes = (
{
closed = 1;
nodes = (
(123,0,l),
(521,594,l),
(436,0,l),
(842,0,l),
(858,111,l),
(592,111,l),
(619,303,l),
(855,303,l),
(871,410,l),
(634,410,l),
(659,589,l),
(925,589,l),
(940,700,l),
(439,700,l),
(-32,0,l)
);
},
{
closed = 1;
nodes = (
(523,133,l),
(537,240,l),
(204,240,l),
(131,133,l)
);
}
);
width = 914;
},
{
anchors = (
{
name = bottom;
pos = (429,0);
},
{
name = top;
pos = (627,700);
}
);
layerId = "897F30B6-1700-43C7-9C60-A606C7C7F267";
shapes = (
{
closed = 1;
nodes = (
(80,0,l),
(540,640,l),
(450,0,l),
(815,0,l),
(823,56,l),
(528,56,l),
(565,324,l),
(831,324,l),
(838,380,l),
(574,380,l),
(610,644,l),
(906,644,l),
(913,700,l),
(507,700,l),
(3,0,l)
);
},
{
closed = 1;
nodes = (
(506,166,l),
(513,222,l),
(198,222,l),
(160,166,l)
);
}
);
width = 914;
}
);
unicode = 198;
},
{
glyphname = Eth;
kernLeft = Eth;
kernRight = O;
lastChange = "2023-01-28 20:28:12 +0000";
layers = (
{
associatedMasterId = "897F30B6-1700-43C7-9C60-A606C7C7F267";
layerId = "02575D39-7864-4EEF-9012-950E1A85E8A1";
name = public.background;
shapes = (
{
closed = 1;
nodes = (
(312,0,l),
(545,0,o),
(682,131,o),
(682,348,c),
(682,567,o),
(545,699,o),
(312,699,c),
(104,699,l),
(104,0,l)
);
},
{
closed = 1;
nodes = (
(379,316,l),
(379,381,l),
(9,381,l),
(9,316,l)
);
},
{
closed = 1;
nodes = (
(175,642,l),
(312,642,l),
(509,642,o),
(610,529,o),
(610,348,c),
(610,168,o),
(509,55,o),
(312,55,c),
(175,55,l)
);
},
{
alignment = -1;
pos = (24,0);
ref = D;
}
);
width = 738;
},
{
layerId = "BD1314B0-2F62-4F06-89D3-8B766BA843F0";
shapes = (
{
closed = 1;
nodes = (
(386,291,l),
(403,409,l),
(23,409,l),
(6,291,l)
);
},
{
alignment = -1;
pos = (19,0);
ref = D;
}
);
width = 709;
},
{
layerId = "897F30B6-1700-43C7-9C60-A606C7C7F267";
shapes = (
{
closed = 1;
nodes = (
(386,316,l),
(396,381,l),
(26,381,l),
(16,316,l)
);
},
{
alignment = -1;
pos = (36,0);
ref = D;
}
);
width = 709;
}
);
unicode = 208;
},
{
color = 4;
glyphname = Schwa;
kernRight = O;
lastChange = "2023-01-28 22:49:45 +0000";
layers = (
{
anchors = (
{
name = top;
pos = (382,700);
}
);
associatedMasterId = "897F30B6-1700-43C7-9C60-A606C7C7F267";
layerId = "C2F9BAFC-5580-4CF8-8BE5-F0A0A7E63D04";
name = "#instance";
shapes = (
{
closed = 1;
nodes = (
(587,-12,o),
(724,132,o),
(724,348,cs),
(724,568,o),
(586,712,o),
(382,712,cs),
(215,712,o),
(91,612,o),
(62,490,c),
(216,490,l),
(230,541,o),
(300,586,o),
(383,586,cs),
(494,586,o),
(578,507,o),
(578,374,cs),
(578,310,ls),
(578,186,o),
(489,116,o),
(380,116,cs),
(269,116,o),
(191,185,o),
(189,289,c),
(599,289,l),
(599,389,l),
(48,389,l),
(46,368,o),
(45,347,o),
(45,328,cs),
(45,115,o),
(181,-12,o),
(382,-12,cs)
);
}
);
width = 768;
},
{
associatedMasterId = "897F30B6-1700-43C7-9C60-A606C7C7F267";
layerId = "02575D39-7864-4EEF-9012-950E1A85E8A1";
name = public.background;
shapes = (
{
closed = 1;
nodes = (
(567,-7,o),
(701,137,o),
(701,350,cs),
(701,560,o),
(566,707,o),
(370,707,cs),
(211,707,o),
(90,616,o),
(49,476,c),
(129,476,l),
(161,581,o),
(255,643,o),
(370,643,cs),
(517,643,o),
(625,534,o),
(625,362,cs),
(625,325,ls),
(625,154,o),
(513,56,o),
(367,56,cs),
(215,56,o),
(115,157,o),
(118,311,c),
(640,311,l),
(640,376,l),
(48,376,l),
(46,356,o),
(45,337,o),
(45,318,cs),
(45,112,o),
(178,-7,o),
(367,-7,cs)
);
}
);
width = 757;
},
{
layerId = "BD1314B0-2F62-4F06-89D3-8B766BA843F0";
shapes = (
{
closed = 1;
nodes = (
(557,-12,o),
(711,128,o),
(741,341,cs),
(772,565,o),
(652,712,o),
(445,712,cs),
(281,712,o),
(145,616,o),
(99,494,c),
(258,494,l),
(279,542,o),
(355,586,o),
(440,586,cs),
(548,586,o),
(616,510,o),
(599,378,cs),
(591,314,ls),
(575,190,o),
(471,116,o),
(359,116,cs),
(252,116,o),
(185,181,o),
(198,285,c),
(609,289,l),
(622,389,l),
(71,393,l),
(67,372,o),
(63,351,o),
(61,335,cs),
(31,119,o),
(152,-12,o),
(355,-12,cs)
);
}
);
width = 776;
},
{
layerId = "897F30B6-1700-43C7-9C60-A606C7C7F267";
shapes = (
{
closed = 1;
nodes = (
(545,-12,o),
(699,132,o),
(730,345,cs),
(762,565,o),
(646,712,o),
(450,712,cs),
(291,712,o),
(158,621,o),
(96,481,c),
(177,481,l),
(223,586,o),
(327,648,o),
(441,648,cs),
(588,648,o),
(685,538,o),
(656,357,cs),
(650,320,ls),
(622,150,o),
(500,51,o),
(355,51,cs),
(203,51,o),
(116,152,o),
(141,306,c),
(663,306,l),
(672,371,l),
(81,371,l),
(76,351,o),
(72,332,o),
(69,312,cs),
(40,107,o),
(157,-12,o),
(345,-12,cs)
);
}
);
width = 776;
}
);
unicode = 399;
},
{
glyphname = Gcommaaccent;
kernLeft = O;
kernRight = G;
lastChange = "2023-01-28 22:36:17 +0000";
layers = (
{
associatedMasterId = "897F30B6-1700-43C7-9C60-A606C7C7F267";
layerId = "02575D39-7864-4EEF-9012-950E1A85E8A1";
name = public.background;
shapes = (
{
closed = 1;
nodes = (
(305,-226,l),
(361,-226,o),
(395,-197,o),
(395,-119,cs),
(395,-100,o),
(392,-76,o),
(387,-52,c),
(308,-52,l),
(308,-121,l),
(351,-121,l),
(351,-135,ls),
(351,-171,o),
(338,-191,o),
(305,-191,c)
);
},
{
alignment = -1;
ref = G;
}
);
width = 797;
},
{
layerId = "BD1314B0-2F62-4F06-89D3-8B766BA843F0";
shapes = (
{
ref = G;
},
{
pos = (305,103);
ref = commaaccentcomb.case;
}
);
width = 781;
},
{
layerId = "897F30B6-1700-43C7-9C60-A606C7C7F267";
shapes = (
{
ref = G;
},
{
pos = (337,97);
ref = commaaccentcomb.case;
}
);
width = 781;
}
);
unicode = 290;
},
{
color = 4;
glyphname = IJ;
lastChange = "2023-01-28 22:49:45 +0000";
layers = (
{
background = {
shapes = (
{
closed = 1;
nodes = (
(124,208,l),
(222,700,l),
(152,700,l),
(54,208,l)
);
}
);
};
layerId = "897F30B6-1700-43C7-9C60-A606C7C7F267";
shapes = (
{
pos = (17,0);
ref = J;
},
{
closed = 1;
nodes = (
(147,209,l),
(216,700,l),
(149,700,l),
(80,209,l)
);
}
);
width = 415;
},
{
background = {
shapes = (
{
closed = 1;
nodes = (
(163,208,l),
(262,700,l),
(123,700,l),
(24,208,l)
);
}
);
};
layerId = "BD1314B0-2F62-4F06-89D3-8B766BA843F0";
shapes = (
{
pos = (14,0);
ref = J;
},
{
closed = 1;
nodes = (
(168,208,l),
(238,700,l),
(103,700,l),
(33,208,l)
);
}
);
width = 415;
}
);
unicode = 306;
},
{
glyphname = Kcommaaccent;
kernLeft = H;
kernRight = K;
lastChange = "2023-01-28 22:36:17 +0000";
layers = (
{
associatedMasterId = "897F30B6-1700-43C7-9C60-A606C7C7F267";
layerId = "02575D39-7864-4EEF-9012-950E1A85E8A1";
name = public.background;
shapes = (
{
closed = 1;
nodes = (
(238,-226,l),
(294,-226,o),
(328,-197,o),
(328,-119,cs),
(328,-100,o),
(325,-76,o),
(320,-52,c),
(241,-52,l),
(241,-121,l),
(284,-121,l),
(284,-135,ls),
(284,-171,o),
(271,-191,o),
(238,-191,c)
);
},
{
alignment = -1;
ref = K;
}
);
width = 564;
},
{
layerId = "BD1314B0-2F62-4F06-89D3-8B766BA843F0";
shapes = (
{
ref = K;
},
{
pos = (233,103);
ref = commaaccentcomb.case;
}
);
width = 630;
},
{
layerId = "897F30B6-1700-43C7-9C60-A606C7C7F267";
shapes = (
{
ref = K;
},
{
pos = (256,97);
ref = commaaccentcomb.case;
}
);
width = 630;
}
);
unicode = 310;
},
{
color = 4;
glyphname = Lcaron;
kernLeft = H;
kernRight = L;
lastChange = "2023-01-28 22:49:45 +0000";
layers = (
{
associatedMasterId = "897F30B6-1700-43C7-9C60-A606C7C7F267";
layerId = "02575D39-7864-4EEF-9012-950E1A85E8A1";
name = public.background;
shapes = (
{
closed = 1;
nodes = (
(266,511,l),
(324,511,o),
(357,541,o),
(357,614,cs),
(357,638,o),
(354,666,o),
(348,699,c),
(267,699,l),
(267,623,l),
(313,623,l),
(313,599,ls),
(313,565,o),
(300,547,o),
(266,547,c)
);
},
{
alignment = -1;
ref = L;
}
);
width = 517;
},
{
layerId = "BD1314B0-2F62-4F06-89D3-8B766BA843F0";
shapes = (
{
closed = 1;
nodes = (
(331,455,l),
(415,455,o),
(464,503,o),
(476,589,cs),
(491,700,l),
(359,700,l),
(344,591,l),
(402,591,l),
(400,577,ls),
(394,534,o),
(370,511,o),
(337,511,c)
);
},
{
alignment = -1;
pos = (-7,0);
ref = L;
}
);
width = 521;
},
{
layerId = "897F30B6-1700-43C7-9C60-A606C7C7F267";
shapes = (
{
closed = 1;
nodes = (
(306,512,l),
(364,512,o),
(400,542,o),
(411,615,cs),
(424,700,l),
(333,700,l),
(322,624,l),
(368,624,l),
(365,600,ls),
(361,566,o),
(344,548,o),
(311,548,c)
);
},
{
alignment = -1;
pos = (13,0);
ref = L;
}
);
width = 521;
}
);
unicode = 317;
},
{
glyphname = Lcommaaccent;
kernLeft = H;
kernRight = L;
lastChange = "2023-01-28 22:36:17 +0000";
layers = (
{
associatedMasterId = "897F30B6-1700-43C7-9C60-A606C7C7F267";
layerId = "02575D39-7864-4EEF-9012-950E1A85E8A1";
name = public.background;
shapes = (
{
closed = 1;
nodes = (
(196,-226,l),
(253,-226,o),
(287,-197,o),
(287,-119,cs),
(287,-100,o),
(284,-76,o),
(278,-52,c),
(200,-52,l),
(200,-121,l),
(242,-121,l),
(242,-135,ls),
(242,-171,o),
(229,-191,o),
(196,-191,c)
);
},
{
alignment = -1;
ref = L;
}
);
width = 517;
},
{
anchors = (
{
name = _commaaccent;
pos = (209,3);
},
{
name = bottom;
pos = (263,0);
},
{
name = center;
pos = (283,350);
},
{
name = commaaccent;
pos = (264,7);
},
{
name = top;
pos = (190,700);
},
{
name = topright;
pos = (558,700);
}
);
layerId = "BD1314B0-2F62-4F06-89D3-8B766BA843F0";
shapes = (
{
ref = L;
},
{
pos = (212,103);
ref = commaaccentcomb.case;
}
);
width = 521;
},
{
anchors = (
{
name = _commaaccent;
pos = (208,0);
},
{
name = bottom;
pos = (259,0);
},
{
name = center;
pos = (299,350);
},
{
name = commaaccent;
pos = (259,0);
},
{
name = top;
pos = (183,700);
},
{
name = topright;
pos = (543,700);
}
);
layerId = "897F30B6-1700-43C7-9C60-A606C7C7F267";
shapes = (
{
ref = L;
},
{
pos = (232,97);
ref = commaaccentcomb.case;
}
);
width = 521;
}
);
unicode = 315;
},
{
glyphname = Ldot;
kernLeft = H;
kernRight = L;
lastChange = "2023-01-28 20:29:13 +0000";
layers = (
{
associatedMasterId = "897F30B6-1700-43C7-9C60-A606C7C7F267";
guides = (
{
pos = (0,351);
}
);
layerId = "02575D39-7864-4EEF-9012-950E1A85E8A1";
name = public.background;
shapes = (
{
closed = 1;
nodes = (
(401,0,l),
(401,57,l),
(150,57,l),
(150,699,l),
(80,699,l),
(80,0,l)
);
},
{
closed = 1;
nodes = (
(363,330,o),
(384,351,o),
(384,376,cs),
(384,401,o),
(363,422,o),
(338,422,cs),
(312,422,o),
(292,401,o),
(292,376,cs),
(292,351,o),
(312,330,o),
(338,330,cs)
);
},
{
alignment = -1;
ref = L;
},
{
alignment = -1;
pos = (260,4);
ref = periodcentered;
}
);
width = 521;
},
{
layerId = "BD1314B0-2F62-4F06-89D3-8B766BA843F0";
shapes = (
{
alignment = -1;
pos = (-7,0);
ref = L;
},
{
alignment = -1;
pos = (248,25);
ref = periodcentered;
}
);
width = 521;
},
{
layerId = "897F30B6-1700-43C7-9C60-A606C7C7F267";
shapes = (
{
alignment = -1;
pos = (13,0);
ref = L;
},
{
alignment = -1;
pos = (273,4);
ref = periodcentered;
}
);
width = 521;
}
);
unicode = 319;
},
{
glyphname = Lslash;
kernRight = L;
lastChange = "2023-01-28 22:03:00 +0000";
layers = (
{
associatedMasterId = "897F30B6-1700-43C7-9C60-A606C7C7F267";
layerId = "02575D39-7864-4EEF-9012-950E1A85E8A1";
name = public.background;
shapes = (
{
closed = 1;
nodes = (
(427,0,l),
(427,55,l),
(176,55,l),
(176,699,l),
(106,699,l),
(106,0,l)
);
},
{
closed = 1;
nodes = (
(301,399,l),
(301,454,l),
(20,344,l),
(20,289,l)
);
},
{
alignment = -1;
pos = (26,0);
ref = L;
}
);
width = 547;
},
{
anchors = (
{
name = bottom;
pos = (301,0);
},
{
name = center;
pos = (320,350);
},
{
name = commaaccent;
pos = (302,7);
},
{
name = top;
pos = (228,700);
},
{
name = topright;
pos = (595,700);
}
);
layerId = "BD1314B0-2F62-4F06-89D3-8B766BA843F0";
shapes = (
{
closed = 1;
nodes = (
(339,364,l),
(355,480,l),
(34,381,l),
(18,264,l)
);
},
{
alignment = -1;
pos = (31,0);
ref = L;
}
);
width = 572;
},
{
anchors = (
{
name = bottom;
pos = (297,0);
},
{
name = center;
pos = (337,350);
},
{
name = commaaccent;
pos = (297,0);
},
{
name = top;
pos = (221,700);
},
{
name = topright;
pos = (582,700);
}
);
layerId = "897F30B6-1700-43C7-9C60-A606C7C7F267";
shapes = (
{
closed = 1;
nodes = (
(337,399,l),
(345,454,l),
(49,344,l),
(41,289,l)
);
},
{
alignment = -1;
pos = (52,0);
ref = L;
}
);
width = 572;
}
);
unicode = 321;
},
{
glyphname = Ncommaaccent;
kernLeft = H;
kernRight = H;
lastChange = "2023-01-28 22:36:17 +0000";
layers = (
{
associatedMasterId = "897F30B6-1700-43C7-9C60-A606C7C7F267";
layerId = "02575D39-7864-4EEF-9012-950E1A85E8A1";
name = public.background;
shapes = (
{
closed = 1;
nodes = (
(299,-226,l),
(355,-226,o),
(389,-197,o),
(389,-119,cs),
(389,-100,o),
(386,-76,o),
(380,-52,c),
(302,-52,l),
(302,-121,l),
(344,-121,l),
(344,-135,ls),
(344,-171,o),
(331,-191,o),
(299,-191,c)
);
},
{
alignment = -1;
ref = N;
}
);
width = 721;
},
{
layerId = "BD1314B0-2F62-4F06-89D3-8B766BA843F0";
shapes = (
{
ref = N;
},
{
pos = (265,103);
ref = commaaccentcomb.case;
}
);
width = 691;
},
{
layerId = "897F30B6-1700-43C7-9C60-A606C7C7F267";
shapes = (
{
ref = N;
},
{
pos = (285,97);
ref = commaaccentcomb.case;
}
);
width = 691;
}
);
unicode = 325;
},
{
glyphname = Oslash;
lastChange = "2023-01-28 20:28:12 +0000";
layers = (
{
associatedMasterId = "897F30B6-1700-43C7-9C60-A606C7C7F267";
layerId = "02575D39-7864-4EEF-9012-950E1A85E8A1";
name = public.background;
shapes = (
{
closed = 1;
nodes = (
(102,0,l),
(745,700,l),
(686,700,l),
(42,0,l)
);
},
{
alignment = -1;
ref = O;
}
);
width = 784;
},
{
layerId = "BD1314B0-2F62-4F06-89D3-8B766BA843F0";
shapes = (
{
closed = 1;
nodes = (
(128,0,l),
(822,700,l),
(689,700,l),
(-5,0,l)
);
},
{
alignment = -1;
pos = (17,0);
ref = O;
}
);
width = 787;
},
{
layerId = "897F30B6-1700-43C7-9C60-A606C7C7F267";
shapes = (
{
closed = 1;
nodes = (
(88,0,l),
(809,700,l),
(729,700,l),
(8,0,l)
);
},
{
alignment = -1;
pos = (16,0);
ref = O;
}
);
width = 787;
}
);
unicode = 216;
},
{
color = 4;
glyphname = OE;
kernLeft = O;
kernRight = E;
lastChange = "2023-01-28 22:49:45 +0000";
layers = (
{
associatedMasterId = "897F30B6-1700-43C7-9C60-A606C7C7F267";
layerId = "02575D39-7864-4EEF-9012-950E1A85E8A1";
name = public.background;
shapes = (
{
closed = 1;
nodes = (
(514,-7,o),
(620,59,o),
(665,171,c),
(665,0,l),
(1031,0,l),
(1031,56,l),
(735,56,l),
(735,324,l),
(1001,324,l),
(1001,379,l),
(735,379,l),
(735,643,l),
(1031,643,l),
(1031,699,l),
(665,699,l),
(665,530,l),
(620,640,o),
(514,707,o),
(386,707,c),
(195,707,o),
(45,560,o),
(45,350,c),
(45,140,o),
(195,-7,o),
(386,-7,c)
);
},
{
closed = 1;
nodes = (
(236,56,o),
(117,169,o),
(117,350,c),
(117,531,o),
(236,643,o),
(391,643,c),
(546,643,o),
(665,531,o),
(665,350,c),
(665,169,o),
(546,56,o),
(391,56,c)
);
}
);
width = 1119;
},
{
layerId = "BD1314B0-2F62-4F06-89D3-8B766BA843F0";
shapes = (
{
closed = 1;
nodes = (
(431,-12,o),
(524,22,o),
(583,86,c),
(569,0,l),
(1003,0,l),
(1018,112,l),
(725,112,l),
(751,301,l),
(1015,301,l),
(1030,410,l),
(767,410,l),
(792,587,l),
(1085,587,l),
(1100,700,l),
(668,700,l),
(653,606,l),
(612,672,o),
(526,712,o),
(437,712,cs),
(244,712,o),
(80,568,o),
(50,357,cs),
(19,140,o),
(148,-12,o),
(347,-12,cs)
);
},
{
closed = 1;
nodes = (
(251,114,o),
(169,200,o),
(190,343,cs),
(212,493,o),
(323,586,o),
(443,586,cs),
(559,586,o),
(638,500,o),
(618,357,cs),
(597,207,o),
(486,114,o),
(365,114,cs)
);
}
);
width = 1079;
},
{
layerId = "897F30B6-1700-43C7-9C60-A606C7C7F267";
shapes = (
{
closed = 1;
nodes = (
(451,-12,o),
(557,37,o),
(633,133,c),
(614,0,l),
(1009,0,l),
(1017,58,l),
(692,58,l),
(730,323,l),
(1024,323,l),
(1033,381,l),
(737,381,l),
(774,642,l),
(1099,642,l),
(1107,700,l),
(712,700,l),
(693,567,l),
(644,661,o),
(553,712,o),
(438,712,cs),
(242,712,o),
(71,564,o),
(41,350,cs),
(11,135,o),
(140,-12,o),
(336,-12,cs)
);
},
{
closed = 1;
nodes = (
(193,49,o),
(87,162,o),
(113,350,cs),
(139,537,o),
(279,650,o),
(429,650,cs),
(580,650,o),
(687,537,o),
(661,350,cs),
(635,162,o),
(495,49,o),
(344,49,cs)
);
}
);
width = 1079;
}
);
unicode = 338;
},
{
glyphname = Thorn;
kernLeft = H;
lastChange = "2023-01-28 22:50:49 +0000";
layers = (
{
associatedMasterId = "897F30B6-1700-43C7-9C60-A606C7C7F267";
layerId = "02575D39-7864-4EEF-9012-950E1A85E8A1";
name = public.background;
shapes = (
{
closed = 1;
nodes = (
(146,0,l),
(146,150,l),
(287,150,ls),
(451,150,o),
(523,236,o),
(523,350,cs),
(523,465,o),
(449,551,o),
(287,551,cs),
(145,551,l),
(145,700,l),
(76,700,l),
(76,0,l)
);
},
{
closed = 1;
nodes = (
(146,494,l),
(287,494,ls),
(405,494,o),
(451,439,o),
(451,350,cs),
(451,264,o),
(405,207,o),
(287,207,cs),
(146,207,l)
);
}
);
width = 570;
},
{
layerId = "BD1314B0-2F62-4F06-89D3-8B766BA843F0";
shapes = (
{
closed = 1;
nodes = (
(158,0,l),
(176,133,l),
(306,133,ls),
(480,133,o),
(568,230,o),
(584,342,cs),
(602,470,o),
(530,568,o),
(362,568,cs),
(238,568,l),
(256,700,l),
(117,700,l),
(18,0,l)
);
},
{
closed = 1;
nodes = (
(222,454,l),
(343,454,ls),
(426,454,o),
(452,418,o),
(444,356,cs),
(435,289,o),
(391,245,o),
(308,245,cs),
(193,245,l)
);
}
);
width = 589;
},
{
layerId = "897F30B6-1700-43C7-9C60-A606C7C7F267";
shapes = (
{
closed = 1;
nodes = (
(121,0,l),
(142,150,l),
(293,150,ls),
(456,150,o),
(539,237,o),
(556,350,cs),
(573,465,o),
(512,551,o),
(349,551,cs),
(198,551,l),
(219,700,l),
(149,700,l),
(51,0,l)
);
},
{
closed = 1;
nodes = (
(190,492,l),
(341,492,ls),
(459,492,o),
(497,440,o),
(485,350,cs),
(474,264,o),
(419,210,o),
(301,210,cs),
(150,210,l)
);
}
);
width = 589;
}
);
unicode = 222;
},
{
glyphname = Rcommaaccent;
kernLeft = H;
kernRight = R;
lastChange = "2023-01-28 22:36:17 +0000";
layers = (
{
associatedMasterId = "897F30B6-1700-43C7-9C60-A606C7C7F267";
layerId = "02575D39-7864-4EEF-9012-950E1A85E8A1";
name = public.background;
shapes = (
{
closed = 1;
nodes = (
(247,-226,l),
(303,-226,o),
(337,-197,o),
(337,-119,cs),
(337,-100,o),
(334,-76,o),
(329,-52,c),
(250,-52,l),
(250,-121,l),
(292,-121,l),
(292,-135,ls),
(292,-171,o),
(279,-191,o),
(247,-191,c)
);
},
{
alignment = -1;
ref = R;
}
);
width = 583;
},
{
layerId = "BD1314B0-2F62-4F06-89D3-8B766BA843F0";
shapes = (
{
ref = R;
},
{
pos = (204,103);
ref = commaaccentcomb.case;
}
);
width = 603;
},
{
layerId = "897F30B6-1700-43C7-9C60-A606C7C7F267";
shapes = (
{
ref = R;
},
{
pos = (251,97);
ref = commaaccentcomb.case;
}
);
width = 603;
}
);
unicode = 342;
},
{
glyphname = Scommaaccent;
kernLeft = S;
kernRight = S;
lastChange = "2023-01-28 22:36:17 +0000";
layers = (
{
associatedMasterId = "897F30B6-1700-43C7-9C60-A606C7C7F267";
layerId = "02575D39-7864-4EEF-9012-950E1A85E8A1";
name = public.background;
shapes = (
{
closed = 1;
nodes = (
(253,-226,l),
(310,-226,o),
(344,-197,o),
(344,-119,cs),
(344,-100,o),
(341,-76,o),
(336,-52,c),
(257,-52,l),
(257,-121,l),
(300,-121,l),
(300,-135,ls),
(300,-171,o),
(286,-191,o),
(253,-191,c)
);
},
{
alignment = -1;
ref = S;
}
);
width = 602;
},
{
layerId = "BD1314B0-2F62-4F06-89D3-8B766BA843F0";
shapes = (
{
ref = S;
},
{
pos = (222,103);
ref = commaaccentcomb.case;
}
);
width = 595;
},
{
layerId = "897F30B6-1700-43C7-9C60-A606C7C7F267";
shapes = (
{
ref = S;
},
{
pos = (252,97);
ref = commaaccentcomb.case;
}
);
width = 595;
}
);
unicode = 536;
},
{
color = 4;
glyphname = Germandbls;
lastChange = "2023-08-04 20:43:35 +0000";
layers = (
{
layerId = "897F30B6-1700-43C7-9C60-A606C7C7F267";
shapes = (
{
closed = 1;
nodes = (
(177,3,l),
(200,-3,o),
(233,-7,o),
(271,-7,cs),
(418,-7,o),
(529,80,o),
(546,206,cs),
(563,326,o),
(490,396,o),
(371,410,c),
(546,647,l),
(554,700,l),
(141,700,l),
(42,0,l),
(112,0,l),
(202,641,l),
(460,641,l),
(288,409,l),
(280,355,l),
(307,355,ls),
(422,355,o),
(490,304,o),
(476,204,cs),
(462,106,o),
(379,54,o),
(272,54,cs),
(237,54,o),
(208,58,o),
(185,64,c)
);
}
);
width = 610;
},
{
layerId = "BD1314B0-2F62-4F06-89D3-8B766BA843F0";
shapes = (
{
closed = 1;
nodes = (
(188,7,l),
(224,-6,o),
(267,-12,o),
(312,-12,cs),
(443,-12,o),
(568,70,o),
(588,209,cs),
(603,318,o),
(541,382,o),
(422,402,c),
(574,594,l),
(589,700,l),
(87,700,l),
(-11,0,l),
(129,0,l),
(210,581,l),
(409,581,l),
(276,403,l),
(264,318,l),
(299,318,ls),
(431,318,o),
(466,263,o),
(459,213,cs),
(452,165,o),
(415,106,o),
(309,106,cs),
(267,106,o),
(228,112,o),
(203,118,c)
);
}
);
width = 610;
}
);
unicode = 7838;
},
{
glyphname = Tcommaaccent;
kernLeft = T;
kernRight = T;
lastChange = "2023-01-28 22:36:17 +0000";
layers = (
{
associatedMasterId = "897F30B6-1700-43C7-9C60-A606C7C7F267";
layerId = "02575D39-7864-4EEF-9012-950E1A85E8A1";
name = public.background;
shapes = (
{
closed = 1;
nodes = (
(215,-226,l),
(271,-226,o),
(305,-197,o),
(305,-119,cs),
(305,-100,o),
(302,-76,o),
(297,-52,c),
(218,-52,l),
(218,-121,l),
(261,-121,l),
(261,-135,ls),
(261,-171,o),
(247,-191,o),
(215,-191,c)
);
},
{
alignment = -1;
ref = T;
}
);
width = 599;
},
{
layerId = "BD1314B0-2F62-4F06-89D3-8B766BA843F0";
shapes = (
{
ref = T;
},
{
pos = (210,103);
ref = commaaccentcomb.case;
}
);
width = 587;
},
{
layerId = "897F30B6-1700-43C7-9C60-A606C7C7F267";
shapes = (
{
ref = T;
},
{
pos = (231,97);
ref = commaaccentcomb.case;
}
);
width = 587;
}
);
unicode = 538;
},
{
glyphname = ae;
kernLeft = a;
kernRight = e;
lastChange = "2023-01-28 22:03:31 +0000";
layers = (
{
associatedMasterId = "897F30B6-1700-43C7-9C60-A606C7C7F267";
layerId = "02575D39-7864-4EEF-9012-950E1A85E8A1";
name = public.background;
shapes = (
{
closed = 1;
nodes = (
(408,-8,o),
(486,49,o),
(521,126,c),
(521,0,l),
(582,0,l),
(582,126,l),
(618,41,o),
(704,-8,o),
(801,-8,cs),
(934,-8,o),
(1022,70,o),
(1047,173,c),
(971,173,l),
(954,99,o),
(887,51,o),
(790,51,cs),
(691,51,o),
(590,120,o),
(590,265,cs),
(590,283,ls),
(590,421,o),
(685,494,o),
(791,494,cs),
(895,494,o),
(987,429,o),
(983,300,c),
(580,300,l),
(580,248,l),
(1051,248,l),
(1054,267,o),
(1055,281,o),
(1055,302,cs),
(1055,438,o),
(959,554,o),
(801,554,cs),
(706,554,o),
(626,512,o),
(582,422,c),
(582,546,l),
(523,546,l),
(523,423,l),
(484,503,o),
(408,554,o),
(306,554,c),
(153,554,o),
(42,445,o),
(42,274,c),
(42,103,o),
(153,-8,o),
(303,-8,c)
);
},
{
closed = 1;
nodes = (
(201,53,o),
(113,136,o),
(113,274,c),
(113,413,o),
(201,493,o),
(316,493,c),
(428,493,o),
(519,409,o),
(519,273,c),
(519,137,o),
(428,53,o),
(316,53,c)
);
}
);
width = 1145;
},
{
anchors = (
{
name = bottom;
pos = (417,0);
},
{
name = top;
pos = (487,496);
}
);
layerId = "BD1314B0-2F62-4F06-89D3-8B766BA843F0";
shapes = (
{
closed = 1;
nodes = (
(293,-12,o),
(356,26,o),
(407,86,c),
(442,28,o),
(511,-12,o),
(601,-12,cs),
(722,-12,o),
(819,58,o),
(859,161,c),
(719,161,l),
(697,123,o),
(659,102,o),
(604,102,cs),
(547,102,o),
(505,141,o),
(509,208,c),
(875,208,l),
(879,226,o),
(882,243,o),
(883,252,cs),
(904,400,o),
(811,508,o),
(662,508,cs),
(598,508,o),
(533,485,o),
(482,441,c),
(450,481,o),
(391,508,o),
(309,508,cs),
(188,508,o),
(87,445,o),
(63,339,c),
(199,339,l),
(212,380,o),
(256,395,o),
(306,395,cs),
(354,395,o),
(384,372,o),
(379,308,cs),
(378,296,l),
(243,296,ls),
(97,296,o),
(25,233,o),
(12,147,cs),
(-1,60,o),
(63,-12,o),
(195,-12,cs)
);
},
{
closed = 1;
nodes = (
(180,96,o),
(155,115,o),
(160,147,cs),
(166,183,o),
(198,212,o),
(256,212,cs),
(360,212,l),
(359,208,ls),
(344,146,o),
(284,96,o),
(219,96,cs)
);
},
{
closed = 1;
nodes = (
(546,358,o),
(602,395,o),
(659,395,cs),
(714,395,o),
(752,361,o),
(749,300,c),
(524,293,l)
);
}
);
width = 904;
},
{
anchors = (
{
name = bottom;
pos = (417,0);
},
{
name = top;
pos = (487,496);
}
);
layerId = "897F30B6-1700-43C7-9C60-A606C7C7F267";
shapes = (
{
closed = 1;
nodes = (
(292,-12,o),
(365,42,o),
(413,111,c),
(443,34,o),
(512,-12,o),
(600,-12,cs),
(718,-12,o),
(805,62,o),
(843,161,c),
(776,161,l),
(744,91,o),
(688,48,o),
(609,48,cs),
(530,48,o),
(454,109,o),
(469,237,c),
(859,237,l),
(863,256,o),
(865,269,o),
(867,283,cs),
(883,398,o),
(814,508,o),
(676,508,cs),
(596,508,o),
(522,473,o),
(471,411,c),
(449,471,o),
(394,508,o),
(307,508,cs),
(212,508,o),
(107,451,o),
(80,344,c),
(154,344,l),
(176,412,o),
(235,448,o),
(299,448,cs),
(375,448,o),
(420,398,o),
(408,305,cs),
(407,297,l),
(268,297,ls),
(144,297,o),
(50,246,o),
(35,142,cs),
(23,60,o),
(73,-12,o),
(198,-12,cs)
);
},
{
closed = 1;
nodes = (
(137,50,o),
(100,87,o),
(108,144,cs),
(116,199,o),
(160,237,o),
(265,237,cs),
(399,237,l),
(395,214,ls),
(380,129,o),
(298,50,o),
(208,50,cs)
);
},
{
closed = 1;
nodes = (
(502,395,o),
(584,448,o),
(666,448,cs),
(749,448,o),
(809,392,o),
(801,297,c),
(478,297,l)
);
}
);
width = 904;
}
);
unicode = 230;
},
{
color = 4;
glyphname = eth;
kernLeft = o;
lastChange = "2023-01-28 22:49:45 +0000";
layers = (
{
associatedMasterId = "897F30B6-1700-43C7-9C60-A606C7C7F267";
layerId = "02575D39-7864-4EEF-9012-950E1A85E8A1";
name = public.background;
shapes = (
{
closed = 1;
nodes = (
(112,47,o),
(21,125,o),
(21,249,cs),
(21,373,o),
(112,451,o),
(212,451,cs),
(312,451,o),
(403,373,o),
(403,249,cs),
(403,125,o),
(312,47,o),
(212,47,cs)
);
}
);
width = 446;
},
{
layerId = "BD1314B0-2F62-4F06-89D3-8B766BA843F0";
shapes = (
{
closed = 1;
nodes = (
(421,-12,o),
(557,101,o),
(583,286,cs),
(602,421,o),
(562,584,o),
(447,698,c),
(321,702,l),
(401,624,o),
(456,512,o),
(464,406,c),
(488,426,l),
(441,476,o),
(388,502,o),
(318,502,cs),
(171,502,o),
(47,397,o),
(27,253,cs),
(6,105,o),
(106,-12,o),
(268,-12,cs)
);
},
{
closed = 1;
nodes = (
(208,107,o),
(156,156,o),
(168,239,cs),
(181,326,o),
(253,383,o),
(327,383,cs),
(395,383,o),
(446,333,o),
(435,253,cs),
(423,164,o),
(350,107,o),
(276,107,cs)
);
},
{
closed = 1;
nodes = (
(591,627,l),
(602,709,l),
(296,616,l),
(284,533,l)
);
}
);
width = 604;
},
{
layerId = "897F30B6-1700-43C7-9C60-A606C7C7F267";
shapes = (
{
closed = 1;
nodes = (
(413,-12,o),
(545,104,o),
(568,266,cs),
(593,443,o),
(537,583,o),
(412,700,c),
(341,700,l),
(447,602,o),
(496,506,o),
(513,395,c),
(519,393,l),
(489,478,o),
(409,508,o),
(333,508,cs),
(190,508,o),
(62,399,o),
(41,247,cs),
(21,104,o),
(113,-12,o),
(265,-12,cs)
);
},
{
closed = 1;
nodes = (
(174,47,o),
(95,125,o),
(111,249,cs),
(127,371,o),
(231,449,o),
(331,449,cs),
(431,449,o),
(512,371,o),
(494,249,cs),
(476,125,o),
(374,47,o),
(274,47,cs)
);
},
{
closed = 1;
nodes = (
(584,657,l),
(592,708,l),
(291,606,l),
(284,555,l)
);
}
);
width = 604;
}
);
unicode = 240;
},
{
color = 4;
glyphname = dcaron;
kernLeft = o;
kernRight = lcaron;
lastChange = "2023-01-28 22:49:45 +0000";
layers = (
{
associatedMasterId = "897F30B6-1700-43C7-9C60-A606C7C7F267";
layerId = "02575D39-7864-4EEF-9012-950E1A85E8A1";
name = public.background;
shapes = (
{
closed = 1;
nodes = (
(674,552,l),
(733,552,o),
(766,581,o),
(766,655,cs),
(766,679,o),
(763,707,o),
(756,740,c),
(675,740,l),
(675,664,l),
(721,664,l),
(721,639,ls),
(721,606,o),
(709,588,o),
(674,588,c)
);
},
{
alignment = -1;
ref = d;
}
);
width = 884;
},
{
layerId = "BD1314B0-2F62-4F06-89D3-8B766BA843F0";
shapes = (
{
closed = 1;
nodes = (
(685,495,l),
(776,495,o),
(823,544,o),
(834,628,cs),
(849,740,l),
(716,740,l),
(700,631,l),
(759,631,l),
(756,617,ls),
(747,575,o),
(728,551,o),
(694,551,c)
);
},
{
alignment = -1;
pos = (1,0);
ref = d;
}
);
width = 789;
},
{
layerId = "897F30B6-1700-43C7-9C60-A606C7C7F267";
shapes = (
{
closed = 1;
nodes = (
(700,552,l),
(760,552,o),
(795,581,o),
(806,655,cs),
(819,740,l),
(727,740,l),
(717,664,l),
(763,664,l),
(760,639,ls),
(756,606,o),
(740,587,o),
(705,587,c)
);
},
{
alignment = -1;
pos = (46,0);
ref = d;
}
);
width = 789;
}
);
unicode = 271;
},
{
glyphname = dcroat;
kernLeft = o;
lastChange = "2023-01-28 20:28:12 +0000";
layers = (
{
associatedMasterId = "897F30B6-1700-43C7-9C60-A606C7C7F267";
layerId = "02575D39-7864-4EEF-9012-950E1A85E8A1";
name = public.background;
shapes = (
{
closed = 1;
nodes = (
(685,618,l),
(685,662,l),
(412,662,l),
(412,618,l)
);
},
{
alignment = -1;
ref = d;
}
);
width = 650;
},
{
layerId = "BD1314B0-2F62-4F06-89D3-8B766BA843F0";
shapes = (
{
closed = 1;
nodes = (
(703,564,l),
(714,647,l),
(366,647,l),
(355,564,l)
);
},
{
alignment = -1;
pos = (9,0);
ref = d;
}
);
width = 666;
},
{
layerId = "897F30B6-1700-43C7-9C60-A606C7C7F267";
shapes = (
{
closed = 1;
nodes = (
(672,572,l),
(680,632,l),
(386,632,l),
(378,572,l)
);
},
{
alignment = -1;
pos = (11,0);
ref = d;
}
);
width = 666;
}
);
unicode = 273;
},
{
color = 4;
glyphname = schwa;
kernLeft = o;
kernRight = o;
lastChange = "2023-01-28 22:49:45 +0000";
layers = (
{
layerId = "BD1314B0-2F62-4F06-89D3-8B766BA843F0";
shapes = (
{
closed = 1;
nodes = (
(400,-12,o),
(514,95,o),
(535,246,cs),
(556,400,o),
(462,508,o),
(306,508,cs),
(190,508,o),
(92,439,o),
(53,346,c),
(200,346,l),
(220,376,o),
(255,394,o),
(304,394,cs),
(372,394,o),
(409,348,o),
(401,272,cs),
(398,243,ls),
(388,150,o),
(321,101,o),
(249,101,cs),
(191,101,o),
(157,132,o),
(160,207,c),
(432,211,l),
(443,295,l),
(33,299,l),
(27,281,o),
(23,252,o),
(22,242,cs),
(2,97,o),
(95,-12,o),
(246,-12,cs)
);
}
);
width = 564;
},
{
layerId = "897F30B6-1700-43C7-9C60-A606C7C7F267";
shapes = (
{
closed = 1;
nodes = (
(378,-12,o),
(491,89,o),
(513,247,cs),
(535,405,o),
(451,508,o),
(310,508,cs),
(195,508,o),
(110,441,o),
(73,350,c),
(140,350,l),
(171,411,o),
(228,448,o),
(302,448,cs),
(388,448,o),
(466,384,o),
(446,249,cs),
(442,222,ls),
(425,109,o),
(337,48,o),
(247,48,cs),
(156,48,o),
(96,107,o),
(108,221,c),
(456,221,l),
(464,281,l),
(55,281,l),
(47,262,o),
(42,236,o),
(39,217,cs),
(23,98,o),
(91,-12,o),
(235,-12,cs)
);
}
);
width = 564;
}
);
unicode = 601;
},
{
glyphname = gcommaaccent;
kernLeft = g;
kernRight = g;
lastChange = "2023-01-28 22:36:17 +0000";
layers = (
{
associatedMasterId = "897F30B6-1700-43C7-9C60-A606C7C7F267";
layerId = "02575D39-7864-4EEF-9012-950E1A85E8A1";
name = public.background;
shapes = (
{
closed = 1;
nodes = (
(406,595,l),
(406,672,l),
(360,672,l),
(360,696,ls),
(360,730,o),
(373,747,o),
(407,747,c),
(407,783,l),
(349,783,o),
(316,754,o),
(316,680,cs),
(316,656,o),
(319,628,o),
(325,595,c)
);
},
{
alignment = -1;
ref = g;
}
);
width = 668;
},
{
layerId = "BD1314B0-2F62-4F06-89D3-8B766BA843F0";
shapes = (
{
ref = g;
},
{
pos = (163,0);
ref = commaturnedabovecomb;
}
);
width = 636;
},
{
layerId = "897F30B6-1700-43C7-9C60-A606C7C7F267";
shapes = (
{
ref = g;
},
{
pos = (166,0);
ref = commaturnedabovecomb;
}
);
width = 636;
}
);
unicode = 291;
},
{
color = 4;
glyphname = hbar;
lastChange = "2023-01-28 22:49:45 +0000";
layers = (
{
layerId = "897F30B6-1700-43C7-9C60-A606C7C7F267";
shapes = (
{
alignment = -1;
pos = (67,0);
ref = h;
},
{
closed = 1;
nodes = (
(454,572,l),
(464,632,l),
(125,632,l),
(115,572,l)
);
}
);
width = 636;
},
{
layerId = "BD1314B0-2F62-4F06-89D3-8B766BA843F0";
shapes = (
{
alignment = -1;
pos = (70,0);
ref = h;
},
{
closed = 1;
nodes = (
(440,557,l),
(454,649,l),
(108,649,l),
(94,557,l)
);
}
);
width = 636;
}
);
unicode = 295;
},
{
glyphname = idotless;
kernLeft = n;
kernRight = u;
lastChange = "2023-01-28 22:03:00 +0000";
layers = (
{
associatedMasterId = "897F30B6-1700-43C7-9C60-A606C7C7F267";
layerId = "02575D39-7864-4EEF-9012-950E1A85E8A1";
name = public.background;
shapes = (
{
closed = 1;
nodes = (
(140,0,l),
(140,546,l),
(70,546,l),
(70,0,l)
);
}
);
width = 210;
},
{
anchors = (
{
name = ogonek;
pos = (141,0);
},
{
name = top;
pos = (142,496);
}
);
layerId = "BD1314B0-2F62-4F06-89D3-8B766BA843F0";
shapes = (
{
closed = 1;
nodes = (
(141,0,l),
(211,496,l),
(72,496,l),
(2,0,l)
);
}
);
width = 212;
},
{
anchors = (
{
name = ogonek;
pos = (106,0);
},
{
name = top;
pos = (140,496);
}
);
layerId = "897F30B6-1700-43C7-9C60-A606C7C7F267";
shapes = (
{
closed = 1;
nodes = (
(106,0,l),
(176,496,l),
(106,496,l),
(36,0,l)
);
}
);
width = 212;
}
);
unicode = 305;
},
{
glyphname = ij;
lastChange = "2023-01-28 20:30:53 +0000";
layers = (
{
layerId = "897F30B6-1700-43C7-9C60-A606C7C7F267";
shapes = (
{
closed = 1;
nodes = (
(35,-220,l),
(131,-220,l),
(139,-160,l),
(43,-160,l)
);
},
{
alignment = -1;
pos = (10,0);
ref = i;
},
{
pos = (206,0);
ref = j;
}
);
width = 465;
},
{
layerId = "BD1314B0-2F62-4F06-89D3-8B766BA843F0";
shapes = (
{
closed = 1;
nodes = (
(-2,-220,l),
(110,-220,l),
(126,-101,l),
(14,-101,l)
);
},
{
alignment = -1;
pos = (10,0);
ref = i;
},
{
pos = (206,0);
ref = j;
}
);
width = 465;
}
);
unicode = 307;
},
{
color = 4;
glyphname = jdotless;
lastChange = "2023-01-28 22:49:45 +0000";
layers = (
{
layerId = "897F30B6-1700-43C7-9C60-A606C7C7F267";
shapes = (
{
closed = 1;
nodes = (
(-17,-220,ls),
(70,-220,o),
(110,-189,o),
(122,-101,cs),
(205,496,l),
(135,496,l),
(52,-98,ls),
(45,-151,o),
(32,-160,o),
(-20,-160,cs),
(-68,-160,l),
(-76,-220,l)
);
}
);
width = 267;
},
{
layerId = "BD1314B0-2F62-4F06-89D3-8B766BA843F0";
shapes = (
{
closed = 1;
nodes = (
(-17,-220,ls),
(91,-220,o),
(146,-193,o),
(164,-65,cs),
(242,496,l),
(103,496,l),
(26,-51,ls),
(20,-91,o),
(8,-101,o),
(-35,-101,cs),
(-81,-101,l),
(-97,-220,l)
);
}
);
width = 267;
}
);
unicode = 567;
},
{
glyphname = kcommaaccent;
kernLeft = l;
kernRight = k;
lastChange = "2023-01-28 22:51:36 +0000";
layers = (
{
associatedMasterId = "897F30B6-1700-43C7-9C60-A606C7C7F267";
layerId = "02575D39-7864-4EEF-9012-950E1A85E8A1";
name = public.background;
shapes = (
{
closed = 1;
nodes = (
(198,-226,l),
(254,-226,o),
(288,-197,o),
(288,-119,cs),
(288,-100,o),
(285,-76,o),
(280,-52,c),
(201,-52,l),
(201,-121,l),
(244,-121,l),
(244,-135,ls),
(244,-171,o),
(231,-191,o),
(198,-191,c)
);
},
{
alignment = -1;
ref = k;
}
);
width = 484;
},
{
layerId = "BD1314B0-2F62-4F06-89D3-8B766BA843F0";
shapes = (
{
ref = k;
},
{
pos = (156,-166);
ref = commaaccentcomb;
}
);
width = 561;
},
{
layerId = "897F30B6-1700-43C7-9C60-A606C7C7F267";
shapes = (
{
ref = k;
},
{
pos = (178,-135);
ref = commaaccentcomb;
}
);
width = 561;
}
);
unicode = 311;
},
{
color = 4;
glyphname = lcaron;
kernLeft = l;
kernRight = lcaron;
lastChange = "2023-01-28 22:49:45 +0000";
layers = (
{
associatedMasterId = "897F30B6-1700-43C7-9C60-A606C7C7F267";
layerId = "02575D39-7864-4EEF-9012-950E1A85E8A1";
name = public.background;
shapes = (
{
closed = 1;
nodes = (
(217,552,l),
(275,552,o),
(308,581,o),
(308,655,cs),
(308,679,o),
(306,707,o),
(299,740,c),
(218,740,l),
(218,664,l),
(264,664,l),
(264,639,ls),
(264,606,o),
(251,588,o),
(217,588,c)
);
},
{
alignment = -1;
ref = l;
}
);
width = 426;
},
{
layerId = "BD1314B0-2F62-4F06-89D3-8B766BA843F0";
shapes = (
{
closed = 1;
nodes = (
(274,495,l),
(363,495,o),
(409,544,o),
(420,628,cs),
(435,740,l),
(303,740,l),
(288,631,l),
(346,631,l),
(345,617,ls),
(342,575,o),
(316,551,o),
(282,551,c)
);
},
{
alignment = -1;
pos = (1,0);
ref = l;
}
);
width = 401;
},
{
layerId = "897F30B6-1700-43C7-9C60-A606C7C7F267";
shapes = (
{
closed = 1;
nodes = (
(264,552,l),
(322,552,o),
(360,581,o),
(370,655,cs),
(382,740,l),
(292,740,l),
(281,664,l),
(328,664,l),
(323,639,ls),
(316,606,o),
(304,587,o),
(269,587,c)
);
},
{
alignment = -1;
pos = (9,0);
ref = l;
}
);
width = 401;
}
);
unicode = 318;
},
{
glyphname = lcommaaccent;
kernLeft = l;
kernRight = l;
lastChange = "2023-01-28 22:51:36 +0000";
layers = (
{
associatedMasterId = "897F30B6-1700-43C7-9C60-A606C7C7F267";
layerId = "02575D39-7864-4EEF-9012-950E1A85E8A1";
name = public.background;
shapes = (
{
closed = 1;
nodes = (
(69,-226,l),
(126,-226,o),
(160,-197,o),
(160,-119,cs),
(160,-100,o),
(157,-76,o),
(152,-52,c),
(73,-52,l),
(73,-121,l),
(116,-121,l),
(116,-135,ls),
(116,-171,o),
(102,-191,o),
(69,-191,c)
);
},
{
alignment = -1;
ref = l;
}
);
width = 275;
},
{
layerId = "BD1314B0-2F62-4F06-89D3-8B766BA843F0";
shapes = (
{
ref = l;
},
{
pos = (0,-166);
ref = commaaccentcomb;
}
);
width = 236;
},
{
layerId = "897F30B6-1700-43C7-9C60-A606C7C7F267";
shapes = (
{
ref = l;
},
{
pos = (23,-135);
ref = commaaccentcomb;
}
);
width = 236;
}
);
unicode = 316;
},
{
color = 4;
glyphname = ldot;
kernLeft = l;
lastChange = "2023-08-14 16:49:37 +0000";
layers = (
{
associatedMasterId = "897F30B6-1700-43C7-9C60-A606C7C7F267";
layerId = "02575D39-7864-4EEF-9012-950E1A85E8A1";
name = public.background;
shapes = (
{
closed = 1;
nodes = (
(150,0,l),
(150,740,l),
(80,740,l),
(80,0,l)
);
},
{
closed = 1;
nodes = (
(280,322,o),
(301,343,o),
(301,368,cs),
(301,393,o),
(280,414,o),
(255,414,cs),
(229,414,o),
(209,393,o),
(209,368,cs),
(209,343,o),
(229,322,o),
(255,322,cs)
);
}
);
width = 407;
},
{
layerId = "BD1314B0-2F62-4F06-89D3-8B766BA843F0";
shapes = (
{
closed = 1;
nodes = (
(167,0,l),
(269,720,l),
(128,720,l),
(27,0,l)
);
},
{
alignment = -1;
pos = (199,40);
ref = periodcentered;
}
);
width = 401;
},
{
layerId = "897F30B6-1700-43C7-9C60-A606C7C7F267";
shapes = (
{
closed = 1;
nodes = (
(116,0,l),
(217,720,l),
(146,720,l),
(45,0,l)
);
},
{
alignment = -1;
pos = (146,21);
ref = periodcentered;
}
);
width = 331;
}
);
unicode = 320;
},
{
glyphname = lslash;
lastChange = "2023-01-28 22:03:00 +0000";
layers = (
{
associatedMasterId = "897F30B6-1700-43C7-9C60-A606C7C7F267";
layerId = "02575D39-7864-4EEF-9012-950E1A85E8A1";
name = public.background;
shapes = (
{
closed = 1;
nodes = (
(154,0,l),
(154,740,l),
(84,740,l),
(84,0,l)
);
},
{
closed = 1;
nodes = (
(230,439,l),
(230,494,l),
(9,398,l),
(9,343,l)
);
}
);
width = 299;
},
{
layerId = "BD1314B0-2F62-4F06-89D3-8B766BA843F0";
shapes = (
{
closed = 1;
nodes = (
(179,0,l),
(280,720,l),
(140,720,l),
(39,0,l)
);
},
{
closed = 1;
nodes = (
(301,375,l),
(317,493,l),
(27,400,l),
(12,283,l)
);
}
);
width = 289;
},
{
layerId = "897F30B6-1700-43C7-9C60-A606C7C7F267";
shapes = (
{
closed = 1;
nodes = (
(144,0,l),
(246,720,l),
(175,720,l),
(74,0,l)
);
},
{
closed = 1;
nodes = (
(283,439,l),
(290,494,l),
(55,398,l),
(47,343,l)
);
}
);
width = 289;
}
);
unicode = 322;
},
{
glyphname = ncommaaccent;
kernLeft = n;
kernRight = n;
lastChange = "2023-01-28 22:51:36 +0000";
layers = (
{
associatedMasterId = "897F30B6-1700-43C7-9C60-A606C7C7F267";
layerId = "02575D39-7864-4EEF-9012-950E1A85E8A1";
name = public.background;
shapes = (
{
closed = 1;
nodes = (
(275,-226,l),
(331,-226,o),
(365,-197,o),
(365,-119,cs),
(365,-100,o),
(362,-76,o),
(357,-52,c),
(278,-52,l),
(278,-121,l),
(321,-121,l),
(321,-135,ls),
(321,-171,o),
(308,-191,o),
(275,-191,c)
);
},
{
alignment = -1;
ref = n;
}
);
width = 618;
},
{
layerId = "BD1314B0-2F62-4F06-89D3-8B766BA843F0";
shapes = (
{
ref = n;
},
{
pos = (169,-166);
ref = commaaccentcomb;
}
);
width = 569;
},
{
layerId = "897F30B6-1700-43C7-9C60-A606C7C7F267";
shapes = (
{
ref = n;
},
{
pos = (190,-135);
ref = commaaccentcomb;
}
);
width = 569;
}
);
unicode = 326;
},
{
color = 4;
glyphname = eng;
lastChange = "2023-01-28 22:49:45 +0000";
layers = (
{
layerId = "897F30B6-1700-43C7-9C60-A606C7C7F267";
shapes = (
{
closed = 1;
nodes = (
(319,-220,ls),
(406,-220,o),
(446,-189,o),
(458,-101,cs),
(513,293,l),
(443,293,l),
(388,-98,ls),
(381,-151,o),
(368,-160,o),
(316,-160,cs),
(268,-160,l),
(260,-220,l)
);
},
{
alignment = -1;
ref = n;
}
);
width = 569;
},
{
layerId = "BD1314B0-2F62-4F06-89D3-8B766BA843F0";
shapes = (
{
closed = 1;
nodes = (
(312,-220,ls),
(420,-220,o),
(475,-193,o),
(493,-65,cs),
(540,273,l),
(402,273,l),
(355,-51,ls),
(349,-91,o),
(337,-101,o),
(294,-101,cs),
(248,-101,l),
(232,-220,l)
);
},
{
alignment = -1;
ref = n;
}
);
width = 569;
}
);
unicode = 331;
},
{
color = 4;
glyphname = oslash;
lastChange = "2023-01-28 22:49:45 +0000";
layers = (
{
associatedMasterId = "897F30B6-1700-43C7-9C60-A606C7C7F267";
layerId = "02575D39-7864-4EEF-9012-950E1A85E8A1";
name = public.background;
shapes = (
{
closed = 1;
nodes = (
(100,0,l),
(596,546,l),
(544,546,l),
(47,0,l)
);
}
);
width = 586;
},
{
layerId = "BD1314B0-2F62-4F06-89D3-8B766BA843F0";
shapes = (
{
closed = 1;
nodes = (
(91,0,l),
(587,496,l),
(479,496,l),
(-18,0,l)
);
},
{
closed = 1;
nodes = (
(394,-12,o),
(516,92,o),
(538,241,cs),
(561,397,o),
(462,508,o),
(315,508,cs),
(175,508,o),
(51,405,o),
(30,255,cs),
(8,99,o),
(107,-12,o),
(253,-12,cs)
);
},
{
closed = 1;
nodes = (
(192,96,o),
(146,144,o),
(160,241,cs),
(175,345,o),
(242,400,o),
(312,400,cs),
(376,400,o),
(423,353,o),
(409,255,cs),
(394,151,o),
(328,96,o),
(256,96,cs)
);
}
);
width = 567;
},
{
layerId = "897F30B6-1700-43C7-9C60-A606C7C7F267";
shapes = (
{
closed = 1;
nodes = (
(70,0,l),
(570,496,l),
(499,496,l),
(-2,0,l)
);
},
{
closed = 1;
nodes = (
(385,-12,o),
(507,89,o),
(530,248,cs),
(553,407,o),
(461,508,o),
(322,508,cs),
(183,508,o),
(60,407,o),
(38,248,cs),
(16,89,o),
(108,-12,o),
(247,-12,cs)
);
},
{
closed = 1;
nodes = (
(165,48,o),
(91,115,o),
(110,248,cs),
(129,381,o),
(223,448,o),
(313,448,cs),
(403,448,o),
(477,381,o),
(458,248,cs),
(439,115,o),
(345,48,o),
(255,48,cs)
);
}
);
width = 567;
}
);
unicode = 248;
},
{
color = 4;
glyphname = oe;
kernLeft = o;
kernRight = e;
lastChange = "2023-01-28 22:49:45 +0000";
layers = (
{
associatedMasterId = "897F30B6-1700-43C7-9C60-A606C7C7F267";
layerId = "02575D39-7864-4EEF-9012-950E1A85E8A1";
name = public.background;
shapes = (
{
closed = 1;
nodes = (
(399,-8,o),
(488,47,o),
(529,144,c),
(568,47,o),
(653,-8,o),
(760,-8,cs),
(897,-8,o),
(986,70,o),
(1011,173,c),
(937,173,l),
(917,100,o),
(854,51,o),
(760,51,cs),
(655,51,o),
(567,122,o),
(567,258,cs),
(567,286,ls),
(567,424,o),
(657,494,o),
(760,494,cs),
(861,494,o),
(953,429,o),
(950,298,c),
(540,298,l),
(540,248,l),
(1017,248,l),
(1020,267,o),
(1021,281,o),
(1021,302,cs),
(1021,440,o),
(924,554,o),
(763,554,cs),
(654,554,o),
(568,499,o),
(530,403,c),
(489,499,o),
(401,554,o),
(294,554,c),
(141,554,o),
(21,447,o),
(21,273,c),
(21,100,o),
(137,-8,o),
(292,-8,c)
);
},
{
closed = 1;
nodes = (
(188,51,o),
(92,123,o),
(92,273,c),
(92,423,o),
(189,494,o),
(293,494,c),
(397,494,o),
(495,423,o),
(495,273,c),
(495,123,o),
(395,51,o),
(292,51,c)
);
}
);
width = 1111;
},
{
layerId = "BD1314B0-2F62-4F06-89D3-8B766BA843F0";
shapes = (
{
closed = 1;
nodes = (
(348,-12,o),
(414,15,o),
(464,70,c),
(500,21,o),
(565,-12,o),
(649,-12,cs),
(771,-12,o),
(871,65,o),
(912,168,c),
(772,174,l),
(749,135,o),
(708,102,o),
(653,102,cs),
(590,102,o),
(549,142,o),
(553,210,c),
(925,210,l),
(929,227,o),
(933,244,o),
(934,254,cs),
(954,399,o),
(861,508,o),
(711,508,cs),
(632,508,o),
(561,480,o),
(508,424,c),
(475,474,o),
(417,508,o),
(337,508,cs),
(197,508,o),
(72,405,o),
(52,255,cs),
(31,99,o),
(129,-12,o),
(275,-12,cs)
);
},
{
closed = 1;
nodes = (
(222,109,o),
(179,152,o),
(192,241,cs),
(206,336,o),
(268,387,o),
(332,387,cs),
(391,387,o),
(433,344,o),
(420,255,cs),
(406,159,o),
(346,109,o),
(281,109,cs)
);
},
{
closed = 1;
nodes = (
(591,359,o),
(646,395,o),
(707,395,cs),
(765,395,o),
(803,359,o),
(798,302,c),
(569,295,l)
);
}
);
width = 977;
},
{
layerId = "897F30B6-1700-43C7-9C60-A606C7C7F267";
shapes = (
{
closed = 1;
nodes = (
(347,-12,o),
(429,33,o),
(479,110,c),
(508,33,o),
(577,-12,o),
(670,-12,cs),
(792,-12,o),
(880,62,o),
(917,161,c),
(850,161,l),
(818,91,o),
(759,48,o),
(679,48,cs),
(595,48,o),
(520,108,o),
(533,233,c),
(934,233,l),
(936,248,o),
(939,264,o),
(941,279,cs),
(958,398,o),
(889,508,o),
(745,508,cs),
(649,508,o),
(567,462,o),
(517,387,c),
(490,464,o),
(422,508,o),
(330,508,cs),
(191,508,o),
(69,407,o),
(46,248,cs),
(23,89,o),
(116,-12,o),
(255,-12,cs)
);
},
{
closed = 1;
nodes = (
(173,48,o),
(99,115,o),
(118,248,cs),
(137,381,o),
(231,448,o),
(321,448,cs),
(412,448,o),
(485,381,o),
(466,248,cs),
(447,115,o),
(355,48,o),
(263,48,cs)
);
},
{
closed = 1;
nodes = (
(564,394,o),
(647,448,o),
(734,448,cs),
(824,448,o),
(885,390,o),
(874,293,c),
(542,293,l)
);
}
);
width = 977;
}
);
unicode = 339;
},
{
color = 4;
glyphname = thorn;
kernRight = o;
lastChange = "2023-01-28 22:49:45 +0000";
layers = (
{
associatedMasterId = "897F30B6-1700-43C7-9C60-A606C7C7F267";
layerId = "02575D39-7864-4EEF-9012-950E1A85E8A1";
name = public.background;
shapes = (
{
closed = 1;
nodes = (
(139,-258,l),
(139,136,l),
(171,53,o),
(247,-8,o),
(356,-8,c),
(505,-8,o),
(616,103,o),
(616,274,c),
(616,445,o),
(505,554,o),
(356,554,c),
(247,554,o),
(171,494,o),
(139,412,c),
(139,740,l),
(70,740,l),
(70,-258,l)
);
},
{
closed = 1;
nodes = (
(231,53,o),
(139,137,o),
(139,273,c),
(139,409,o),
(231,493,o),
(342,493,c),
(457,493,o),
(545,413,o),
(545,274,c),
(545,136,o),
(457,53,o),
(342,53,c)
);
}
);
width = 659;
},
{
layerId = "BD1314B0-2F62-4F06-89D3-8B766BA843F0";
shapes = (
{
closed = 1;
nodes = (
(119,-220,l),
(161,67,l),
(188,19,o),
(240,-12,o),
(316,-12,cs),
(452,-12,o),
(569,94,o),
(589,240,cs),
(610,393,o),
(518,508,o),
(378,508,cs),
(299,508,o),
(246,474,o),
(209,431,c),
(252,720,l),
(111,720,l),
(-21,-220,l)
);
},
{
closed = 1;
nodes = (
(213,110,o),
(170,165,o),
(180,241,cs),
(191,323,o),
(258,386,o),
(339,386,cs),
(414,386,o),
(460,331,o),
(448,254,cs),
(435,172,o),
(369,110,o),
(288,110,cs)
);
}
);
width = 622;
},
{
layerId = "897F30B6-1700-43C7-9C60-A606C7C7F267";
shapes = (
{
closed = 1;
nodes = (
(75,-220,l),
(118,87,l),
(143,25,o),
(206,-12,o),
(290,-12,cs),
(441,-12,o),
(552,97,o),
(573,247,cs),
(594,397,o),
(514,508,o),
(364,508,cs),
(270,508,o),
(203,460,o),
(163,410,c),
(207,720,l),
(137,720,l),
(5,-220,l)
);
},
{
closed = 1;
nodes = (
(190,49,o),
(127,128,o),
(144,248,cs),
(161,368,o),
(246,447,o),
(352,447,cs),
(457,447,o),
(519,368,o),
(503,248,cs),
(487,128,o),
(401,49,o),
(295,49,cs)
);
}
);
width = 622;
}
);
unicode = 254;
},
{
glyphname = rcommaaccent;
kernLeft = n;
kernRight = r;
lastChange = "2023-01-28 22:36:17 +0000";
layers = (
{
associatedMasterId = "897F30B6-1700-43C7-9C60-A606C7C7F267";
layerId = "02575D39-7864-4EEF-9012-950E1A85E8A1";
name = public.background;
shapes = (
{
closed = 1;
nodes = (
(69,-226,l),
(126,-226,o),
(159,-197,o),
(159,-119,cs),
(159,-100,o),
(157,-76,o),
(151,-52,c),
(72,-52,l),
(72,-121,l),
(115,-121,l),
(115,-135,ls),
(115,-171,o),
(102,-191,o),
(69,-191,c)
);
},
{
alignment = -1;
ref = r;
}
);
width = 353;
},
{
layerId = "BD1314B0-2F62-4F06-89D3-8B766BA843F0";
shapes = (
{
ref = r;
},
{
pos = (1,-166);
ref = commaaccentcomb;
}
);
width = 381;
},
{
layerId = "897F30B6-1700-43C7-9C60-A606C7C7F267";
shapes = (
{
ref = r;
},
{
pos = (26,-135);
ref = commaaccentcomb;
}
);
width = 381;
}
);
unicode = 343;
},
{
glyphname = scommaaccent;
kernLeft = s;
kernRight = s;
lastChange = "2023-01-28 22:51:36 +0000";
layers = (
{
associatedMasterId = "897F30B6-1700-43C7-9C60-A606C7C7F267";
layerId = "02575D39-7864-4EEF-9012-950E1A85E8A1";
name = public.background;
shapes = (
{
closed = 1;
nodes = (
(221,-226,l),
(277,-226,o),
(311,-197,o),
(311,-119,cs),
(311,-100,o),
(308,-76,o),
(303,-52,c),
(224,-52,l),
(224,-121,l),
(267,-121,l),
(267,-135,ls),
(267,-171,o),
(254,-191,o),
(221,-191,c)
);
},
{
alignment = -1;
ref = s;
}
);
width = 532;
},
{
layerId = "BD1314B0-2F62-4F06-89D3-8B766BA843F0";
shapes = (
{
ref = s;
},
{
pos = (126,-166);
ref = commaaccentcomb;
}
);
width = 495;
},
{
layerId = "897F30B6-1700-43C7-9C60-A606C7C7F267";
shapes = (
{
ref = s;
},
{
pos = (153,-135);
ref = commaaccentcomb;
}
);
width = 495;
}
);
unicode = 537;
},
{
color = 4;
glyphname = germandbls;
kernLeft = H;
kernRight = s;
lastChange = "2023-08-04 20:42:04 +0000";
layers = (
{
associatedMasterId = "897F30B6-1700-43C7-9C60-A606C7C7F267";
layerId = "02575D39-7864-4EEF-9012-950E1A85E8A1";
name = public.background;
shapes = (
{
closed = 1;
nodes = (
(543,-10,o),
(610,54,o),
(610,147,cs),
(610,222,o),
(570,271,o),
(474,302,cs),
(381,332,o),
(357,352,o),
(357,385,cs),
(357,453,o),
(503,486,o),
(503,609,cs),
(503,695,o),
(430,768,o),
(295,768,cs),
(146,768,o),
(72,679,o),
(72,560,cs),
(72,0,l),
(142,0,l),
(142,552,ls),
(142,649,o),
(190,709,o),
(294,709,cs),
(380,709,o),
(433,668,o),
(433,604,cs),
(433,509,o),
(286,479,o),
(286,376,cs),
(286,316,o),
(327,284,o),
(432,249,cs),
(509,224,o),
(538,195,o),
(538,142,cs),
(538,83,o),
(498,47,o),
(430,47,cs),
(355,47,o),
(309,95,o),
(303,167,c),
(232,167,l),
(242,57,o),
(319,-10,o),
(430,-10,cs)
);
}
);
width = 719;
},
{
layerId = "BD1314B0-2F62-4F06-89D3-8B766BA843F0";
shapes = (
{
closed = 1;
nodes = (
(496,388,o),
(547,444,o),
(558,524,cs),
(571,614,o),
(510,712,o),
(342,712,cs),
(197,712,o),
(97,633,o),
(78,499,cs),
(8,0,l),
(148,0,l),
(217,489,ls),
(225,551,o),
(253,594,o),
(325,594,cs),
(387,594,o),
(423,561,o),
(416,513,cs),
(408,455,o),
(358,425,o),
(286,425,cs),
(270,425,l),
(256,318,l),
(299,318,ls),
(423,318,o),
(449,263,o),
(442,213,cs),
(435,165,o),
(406,106,o),
(306,106,cs),
(266,106,o),
(240,112,o),
(216,118,c),
(201,7,l),
(225,-6,o),
(265,-12,o),
(308,-12,cs),
(431,-12,o),
(552,70,o),
(571,209,cs),
(587,318,o),
(526,382,o),
(415,402,c),
(425,369,l)
);
}
);
width = 593;
},
{
layerId = "897F30B6-1700-43C7-9C60-A606C7C7F267";
shapes = (
{
closed = 1;
nodes = (
(464,405,o),
(509,473,o),
(518,540,cs),
(532,634,o),
(460,712,o),
(346,712,cs),
(229,712,o),
(128,633,o),
(113,524,cs),
(39,0,l),
(109,0,l),
(180,505,ls),
(194,601,o),
(260,650,o),
(337,650,cs),
(408,650,o),
(455,602,o),
(446,536,cs),
(435,459,o),
(372,411,o),
(285,411,cs),
(242,411,l),
(234,350,l),
(281,350,ls),
(409,350,o),
(466,294,o),
(453,204,cs),
(441,116,o),
(366,54,o),
(269,54,cs),
(234,54,o),
(206,58,o),
(182,64,c),
(174,3,l),
(197,-3,o),
(230,-7,o),
(268,-7,cs),
(405,-7,o),
(507,90,o),
(523,206,cs),
(539,316,o),
(477,396,o),
(358,410,c),
(380,385,l)
);
}
);
width = 593;
}
);
unicode = 223;
},
{
color = 4;
glyphname = tcaron;
kernLeft = t;
kernRight = t;
lastChange = "2023-01-28 22:49:45 +0000";
layers = (
{
associatedMasterId = "897F30B6-1700-43C7-9C60-A606C7C7F267";
layerId = "02575D39-7864-4EEF-9012-950E1A85E8A1";
name = public.background;
shapes = (
{
closed = 1;
nodes = (
(243,591,l),
(301,591,o),
(334,616,o),
(334,683,cs),
(334,708,o),
(331,730,o),
(325,763,c),
(244,763,l),
(244,687,l),
(290,687,l),
(290,665,ls),
(290,640,o),
(277,627,o),
(243,627,c)
);
},
{
alignment = -1;
ref = t;
}
);
width = 416;
},
{
layerId = "BD1314B0-2F62-4F06-89D3-8B766BA843F0";
shapes = (
{
alignment = -1;
pos = (30,0);
ref = t;
},
{
closed = 1;
nodes = (
(369,535,l),
(458,535,o),
(504,584,o),
(515,668,cs),
(530,780,l),
(398,780,l),
(383,671,l),
(441,671,l),
(440,657,ls),
(437,615,o),
(411,591,o),
(377,591,c)
);
}
);
width = 465;
},
{
layerId = "897F30B6-1700-43C7-9C60-A606C7C7F267";
shapes = (
{
alignment = -1;
pos = (65,0);
ref = t;
},
{
closed = 1;
nodes = (
(395,552,l),
(453,552,o),
(491,581,o),
(501,655,cs),
(513,740,l),
(423,740,l),
(412,664,l),
(459,664,l),
(454,639,ls),
(447,606,o),
(435,587,o),
(400,587,c)
);
}
);
width = 465;
}
);
unicode = 357;
},
{
glyphname = tcedilla;
kernLeft = t;
kernRight = t;
lastChange = "2023-01-28 22:36:17 +0000";
layers = (
{
associatedMasterId = "897F30B6-1700-43C7-9C60-A606C7C7F267";
layerId = "02575D39-7864-4EEF-9012-950E1A85E8A1";
name = public.background;
shapes = (
{
closed = 1;
nodes = (
(331,0,l),
(331,60,l),
(267,60,ls),
(204,60,o),
(181,81,o),
(181,148,cs),
(181,683,l),
(110,683,l),
(110,148,ls),
(110,39,o),
(161,0,o),
(256,0,cs)
);
},
{
closed = 1;
nodes = (
(247,-258,ls),
(317,-258,o),
(364,-220,o),
(364,-160,cs),
(364,-98,o),
(314,-65,o),
(236,-67,c),
(236,35,l),
(186,35,l),
(186,-112,l),
(233,-112,ls),
(283,-112,o),
(304,-129,o),
(304,-160,cs),
(304,-194,o),
(283,-211,o),
(233,-211,cs),
(147,-211,l),
(147,-258,l)
);
},
{
closed = 1;
nodes = (
(331,487,l),
(331,546,l),
(34,546,l),
(34,487,l)
);
},
{
alignment = -1;
ref = t;
}
);
width = 416;
},
{
layerId = "BD1314B0-2F62-4F06-89D3-8B766BA843F0";
shapes = (
{
ref = t;
},
{
pos = (95,-3);
ref = cedillacomb;
}
);
width = 400;
},
{
layerId = "897F30B6-1700-43C7-9C60-A606C7C7F267";
shapes = (
{
ref = t;
},
{
pos = (141,0);
ref = cedillacomb;
}
);
width = 400;
}
);
unicode = 355;
},
{
glyphname = tcommaaccent;
kernLeft = t;
kernRight = t;
lastChange = "2023-01-28 22:36:17 +0000";
layers = (
{
associatedMasterId = "897F30B6-1700-43C7-9C60-A606C7C7F267";
layerId = "02575D39-7864-4EEF-9012-950E1A85E8A1";
name = public.background;
shapes = (
{
closed = 1;
nodes = (
(34,-226,l),
(90,-226,o),
(124,-197,o),
(124,-119,cs),
(124,-100,o),
(122,-76,o),
(116,-52,c),
(37,-52,l),
(37,-121,l),
(80,-121,l),
(80,-135,ls),
(80,-171,o),
(67,-191,o),
(34,-191,c)
);
}
);
width = 200;
},
{
layerId = "BD1314B0-2F62-4F06-89D3-8B766BA843F0";
shapes = (
{
ref = t;
},
{
pos = (117,-166);
ref = commaaccentcomb;
}
);
width = 400;
},
{
layerId = "897F30B6-1700-43C7-9C60-A606C7C7F267";
shapes = (
{
ref = t;
},
{
pos = (163,-135);
ref = commaaccentcomb;
}
);
width = 400;
}
);
unicode = 539;
},
{
glyphname = dieresiscomb;
lastChange = "2023-01-28 22:33:58 +0000";
layers = (
{
associatedMasterId = "897F30B6-1700-43C7-9C60-A606C7C7F267";
layerId = "02575D39-7864-4EEF-9012-950E1A85E8A1";
name = public.background;
shapes = (
{
closed = 1;
nodes = (
(71,623,o),
(92,644,o),
(92,669,cs),
(92,694,o),
(71,715,o),
(46,715,cs),
(20,715,o),
(0,694,o),
(0,669,cs),
(0,644,o),
(20,623,o),
(46,623,cs)
);
},
{
closed = 1;
nodes = (
(225,623,o),
(245,644,o),
(245,669,cs),
(245,694,o),
(225,715,o),
(200,715,cs),
(174,715,o),
(154,694,o),
(154,669,cs),
(154,644,o),
(174,623,o),
(200,623,cs)
);
}
);
width = 316;
},
{
anchors = (
{
name = _top;
pos = (219,496);
}
);
layerId = "BD1314B0-2F62-4F06-89D3-8B766BA843F0";
shapes = (
{
closed = 1;
nodes = (
(383,575,l),
(401,705,l),
(277,705,l),
(259,575,l)
);
},
{
closed = 1;
nodes = (
(200,575,l),
(218,705,l),
(94,705,l),
(76,575,l)
);
}
);
width = 367;
},
{
anchors = (
{
name = _top;
pos = (189,496);
}
);
layerId = "897F30B6-1700-43C7-9C60-A606C7C7F267";
shapes = (
{
closed = 1;
nodes = (
(325,597,l),
(339,700,l),
(243,700,l),
(229,597,l)
);
},
{
closed = 1;
nodes = (
(176,597,l),
(190,700,l),
(94,700,l),
(80,597,l)
);
}
);
width = 306;
},
{
anchors = (
{
name = _top;
pos = (193,496);
}
);
associatedMasterId = "BD1314B0-2F62-4F06-89D3-8B766BA843F0";
layerId = "50958C3A-B8FA-483C-AE76-624582ED54CC";
name = "28 Jan 23, 22:59";
shapes = (
{
closed = 1;
nodes = (
(46,564,l),
(175,564,l),
(197,720,l),
(67,720,l)
);
},
{
closed = 1;
nodes = (
(231,564,l),
(361,564,l),
(383,720,l),
(253,720,l)
);
}
);
width = 316;
},
{
anchors = (
{
name = _top;
pos = (157,496);
}
);
associatedMasterId = "897F30B6-1700-43C7-9C60-A606C7C7F267";
layerId = "1A205F0B-A2B3-4C2B-A69A-120983CA3A0D";
name = "28 Jan 23, 22:59";
shapes = (
{
closed = 1;
nodes = (
(52,620,l),
(148,620,l),
(163,723,l),
(67,723,l)
);
},
{
closed = 1;
nodes = (
(201,620,l),
(297,620,l),
(312,723,l),
(216,723,l)
);
}
);
width = 245;
}
);
unicode = 776;
},
{
glyphname = dotaccentcomb;
lastChange = "2023-01-28 22:33:58 +0000";
layers = (
{
associatedMasterId = "897F30B6-1700-43C7-9C60-A606C7C7F267";
layerId = "02575D39-7864-4EEF-9012-950E1A85E8A1";
name = public.background;
shapes = (
{
closed = 1;
nodes = (
(71,623,o),
(92,644,o),
(92,669,cs),
(92,694,o),
(71,715,o),
(46,715,cs),
(21,715,o),
(0,694,o),
(0,669,cs),
(0,644,o),
(21,623,o),
(46,623,cs)
);
}
);
width = 130;
},
{
anchors = (
{
name = _top;
pos = (130,496);
}
);
layerId = "BD1314B0-2F62-4F06-89D3-8B766BA843F0";
shapes = (
{
closed = 1;
nodes = (
(206,575,l),
(224,705,l),
(94,705,l),
(76,575,l)
);
}
);
width = 190;
},
{
anchors = (
{
name = _top;
pos = (117,496);
}
);
layerId = "897F30B6-1700-43C7-9C60-A606C7C7F267";
shapes = (
{
closed = 1;
nodes = (
(181,597,l),
(195,700,l),
(94,700,l),
(80,597,l)
);
}
);
width = 162;
},
{
anchors = (
{
name = _top;
pos = (100,496);
}
);
associatedMasterId = "BD1314B0-2F62-4F06-89D3-8B766BA843F0";
layerId = "7492DC90-AD22-4F32-B500-B580B99457B2";
name = "28 Jan 23, 22:59";
shapes = (
{
closed = 1;
nodes = (
(174,560,l),
(192,690,l),
(63,690,l),
(44,560,l)
);
}
);
width = 130;
},
{
anchors = (
{
name = _top;
pos = (81,496);
}
);
associatedMasterId = "897F30B6-1700-43C7-9C60-A606C7C7F267";
layerId = "CCADB098-2576-469C-AD01-66DC17919C0F";
name = "28 Jan 23, 22:59";
shapes = (
{
closed = 1;
nodes = (
(137,562,l),
(149,655,l),
(57,655,l),
(45,562,l)
);
}
);
width = 92;
}
);
unicode = 775;
},
{
glyphname = gravecomb;
lastChange = "2023-01-28 22:33:58 +0000";
layers = (
{
associatedMasterId = "897F30B6-1700-43C7-9C60-A606C7C7F267";
layerId = "02575D39-7864-4EEF-9012-950E1A85E8A1";
name = public.background;
shapes = (
{
closed = 1;
nodes = (
(205,642,l),
(0,770,l),
(0,707,l),
(205,588,l)
);
}
);
width = 230;
},
{
anchors = (
{
name = _top;
pos = (244,496);
}
);
layerId = "BD1314B0-2F62-4F06-89D3-8B766BA843F0";
shapes = (
{
closed = 1;
nodes = (
(315,634,l),
(101,753,l),
(86,642,l),
(301,535,l)
);
}
);
width = 291;
},
{
anchors = (
{
name = _top;
pos = (227,496);
}
);
layerId = "897F30B6-1700-43C7-9C60-A606C7C7F267";
shapes = (
{
closed = 1;
nodes = (
(286,612,l),
(99,740,l),
(88,657,l),
(276,538,l)
);
}
);
width = 265;
},
{
anchors = (
{
name = _top;
pos = (214,496);
}
);
associatedMasterId = "BD1314B0-2F62-4F06-89D3-8B766BA843F0";
layerId = "622C0FDC-00A9-4ACC-9C78-B0A530A89390";
name = "28 Jan 23, 22:59";
shapes = (
{
closed = 1;
nodes = (
(284,634,l),
(71,753,l),
(57,642,l),
(271,535,l)
);
}
);
width = 230;
},
{
anchors = (
{
name = _top;
pos = (197,496);
}
);
associatedMasterId = "897F30B6-1700-43C7-9C60-A606C7C7F267";
layerId = "6A51AE82-2C5D-454B-859F-A50FCC29C9A0";
name = "28 Jan 23, 22:59";
shapes = (
{
closed = 1;
nodes = (
(256,612,l),
(69,740,l),
(57,657,l),
(246,537,l)
);
}
);
width = 205;
}
);
unicode = 768;
},
{
glyphname = acutecomb;
lastChange = "2023-01-28 22:33:58 +0000";
layers = (
{
associatedMasterId = "897F30B6-1700-43C7-9C60-A606C7C7F267";
layerId = "02575D39-7864-4EEF-9012-950E1A85E8A1";
name = public.background;
shapes = (
{
closed = 1;
nodes = (
(205,707,l),
(205,770,l),
(0,642,l),
(0,588,l)
);
}
);
width = 230;
},
{
anchors = (
{
name = _top;
pos = (115,496);
}
);
layerId = "BD1314B0-2F62-4F06-89D3-8B766BA843F0";
shapes = (
{
closed = 1;
nodes = (
(315,642,l),
(330,753,l),
(84,634,l),
(70,535,l)
);
}
);
width = 290;
},
{
anchors = (
{
name = _top;
pos = (108,496);
}
);
layerId = "897F30B6-1700-43C7-9C60-A606C7C7F267";
shapes = (
{
closed = 1;
nodes = (
(293,657,l),
(304,740,l),
(81,612,l),
(71,538,l)
);
}
);
width = 266;
},
{
anchors = (
{
name = _top;
pos = (86,496);
}
);
associatedMasterId = "BD1314B0-2F62-4F06-89D3-8B766BA843F0";
layerId = "AED43135-8B5B-4B29-A4D1-B6CE3155D1E3";
name = "28 Jan 23, 22:59";
shapes = (
{
closed = 1;
nodes = (
(286,642,l),
(300,753,l),
(55,634,l),
(41,535,l)
);
}
);
width = 230;
},
{
anchors = (
{
name = _top;
pos = (78,496);
}
);
associatedMasterId = "897F30B6-1700-43C7-9C60-A606C7C7F267";
layerId = "8F77ED23-425A-4D65-B166-D0879FD5DD4B";
name = "28 Jan 23, 22:59";
shapes = (
{
closed = 1;
nodes = (
(262,657,l),
(274,740,l),
(51,612,l),
(41,537,l)
);
}
);
width = 205;
}
);
unicode = 769;
},
{
glyphname = hungarumlautcomb;
lastChange = "2023-01-28 22:33:58 +0000";
layers = (
{
associatedMasterId = "897F30B6-1700-43C7-9C60-A606C7C7F267";
layerId = "02575D39-7864-4EEF-9012-950E1A85E8A1";
name = public.background;
shapes = (
{
closed = 1;
nodes = (
(186,601,l),
(270,740,l),
(207,740,l),
(138,601,l)
);
},
{
closed = 1;
nodes = (
(49,601,l),
(128,740,l),
(65,740,l),
(0,601,l)
);
}
);
width = 373;
},
{
anchors = (
{
name = _top;
pos = (208,496);
}
);
layerId = "BD1314B0-2F62-4F06-89D3-8B766BA843F0";
shapes = (
{
closed = 1;
nodes = (
(335,543,l),
(470,730,l),
(357,730,l),
(247,543,l)
);
},
{
closed = 1;
nodes = (
(159,543,l),
(282,730,l),
(169,730,l),
(71,543,l)
);
}
);
width = 432;
},
{
anchors = (
{
name = _top;
pos = (168,496);
}
);
layerId = "897F30B6-1700-43C7-9C60-A606C7C7F267";
shapes = (
{
closed = 1;
nodes = (
(259,551,l),
(363,690,l),
(280,690,l),
(191,551,l)
);
},
{
closed = 1;
nodes = (
(142,551,l),
(241,690,l),
(158,690,l),
(73,551,l)
);
}
);
width = 331;
},
{
anchors = (
{
name = _top;
pos = (180,496);
}
);
associatedMasterId = "BD1314B0-2F62-4F06-89D3-8B766BA843F0";
layerId = "C713C8DC-C1AC-4F5E-A16F-3C48FC8E9736";
name = "28 Jan 23, 22:59";
shapes = (
{
closed = 1;
nodes = (
(307,543,l),
(442,730,l),
(328,730,l),
(217,543,l)
);
},
{
closed = 1;
nodes = (
(131,543,l),
(255,730,l),
(139,730,l),
(41,543,l)
);
}
);
width = 373;
},
{
anchors = (
{
name = _top;
pos = (137,496);
}
);
associatedMasterId = "897F30B6-1700-43C7-9C60-A606C7C7F267";
layerId = "405DF284-029A-4F49-9F5C-FED48B957390";
name = "28 Jan 23, 22:59";
shapes = (
{
closed = 1;
nodes = (
(229,551,l),
(333,690,l),
(250,690,l),
(161,551,l)
);
},
{
closed = 1;
nodes = (
(112,551,l),
(211,690,l),
(128,690,l),
(43,551,l)
);
}
);
width = 270;
}
);
unicode = 779;
},
{
glyphname = circumflexcomb;
lastChange = "2023-01-28 22:33:58 +0000";
layers = (
{
associatedMasterId = "897F30B6-1700-43C7-9C60-A606C7C7F267";
layerId = "02575D39-7864-4EEF-9012-950E1A85E8A1";
name = public.background;
shapes = (
{
closed = 1;
nodes = (
(134,688,l),
(268,604,l),
(268,661,l),
(134,743,l),
(0,661,l),
(0,604,l)
);
}
);
width = 297;
},
{
anchors = (
{
name = _top;
pos = (214,496);
}
);
layerId = "BD1314B0-2F62-4F06-89D3-8B766BA843F0";
shapes = (
{
closed = 1;
nodes = (
(232,623,l),
(368,540,l),
(382,639,l),
(246,719,l),
(85,639,l),
(71,540,l)
);
}
);
width = 357;
},
{
anchors = (
{
name = _top;
pos = (199,496);
}
);
layerId = "897F30B6-1700-43C7-9C60-A606C7C7F267";
shapes = (
{
closed = 1;
nodes = (
(219,638,l),
(341,554,l),
(352,631,l),
(229,713,l),
(84,631,l),
(73,554,l)
);
}
);
width = 328;
},
{
anchors = (
{
name = _top;
pos = (184,496);
}
);
associatedMasterId = "BD1314B0-2F62-4F06-89D3-8B766BA843F0";
layerId = "015C7E92-5956-4E4B-88E9-E52F83C6E97A";
name = "28 Jan 23, 22:59";
shapes = (
{
closed = 1;
nodes = (
(203,623,l),
(339,540,l),
(351,639,l),
(214,719,l),
(54,639,l),
(42,540,l)
);
}
);
width = 297;
},
{
anchors = (
{
name = _top;
pos = (169,496);
}
);
associatedMasterId = "897F30B6-1700-43C7-9C60-A606C7C7F267";
layerId = "C7195411-45EC-4142-835E-6A9CD1DA1CBF";
name = "28 Jan 23, 22:59";
shapes = (
{
closed = 1;
nodes = (
(189,637,l),
(312,554,l),
(323,631,l),
(200,712,l),
(55,631,l),
(43,554,l)
);
}
);
width = 268;
}
);
unicode = 770;
},
{
glyphname = caroncomb;
lastChange = "2023-01-28 22:33:58 +0000";
layers = (
{
associatedMasterId = "897F30B6-1700-43C7-9C60-A606C7C7F267";
layerId = "02575D39-7864-4EEF-9012-950E1A85E8A1";
name = public.background;
shapes = (
{
closed = 1;
nodes = (
(268,685,l),
(268,741,l),
(134,658,l),
(0,741,l),
(0,685,l),
(134,603,l)
);
}
);
width = 297;
},
{
anchors = (
{
name = _top;
pos = (213,496);
}
);
layerId = "BD1314B0-2F62-4F06-89D3-8B766BA843F0";
shapes = (
{
closed = 1;
nodes = (
(379,620,l),
(393,719,l),
(232,633,l),
(96,719,l),
(82,620,l),
(219,540,l)
);
}
);
width = 357;
},
{
anchors = (
{
name = _top;
pos = (199,496);
}
);
layerId = "897F30B6-1700-43C7-9C60-A606C7C7F267";
shapes = (
{
closed = 1;
nodes = (
(352,635,l),
(363,711,l),
(217,628,l),
(95,711,l),
(84,635,l),
(207,553,l)
);
}
);
width = 328;
},
{
anchors = (
{
name = _top;
pos = (184,496);
}
);
associatedMasterId = "BD1314B0-2F62-4F06-89D3-8B766BA843F0";
layerId = "BB83E501-9E11-4946-9568-59627714004C";
name = "28 Jan 23, 22:59";
shapes = (
{
closed = 1;
nodes = (
(350,620,l),
(363,719,l),
(202,633,l),
(66,719,l),
(53,620,l),
(192,540,l)
);
}
);
width = 297;
},
{
anchors = (
{
name = _top;
pos = (169,496);
}
);
associatedMasterId = "897F30B6-1700-43C7-9C60-A606C7C7F267";
layerId = "3F1E6CE1-53D2-4CA9-A44E-954F13AF0750";
name = "28 Jan 23, 22:59";
shapes = (
{
closed = 1;
nodes = (
(324,635,l),
(334,711,l),
(188,628,l),
(65,711,l),
(55,635,l),
(178,553,l)
);
}
);
width = 268;
}
);
unicode = 780;
},
{
color = 4;
glyphname = brevecomb;
lastChange = "2023-01-28 22:49:45 +0000";
layers = (
{
associatedMasterId = "897F30B6-1700-43C7-9C60-A606C7C7F267";
layerId = "02575D39-7864-4EEF-9012-950E1A85E8A1";
name = public.background;
shapes = (
{
closed = 1;
nodes = (
(225,606,o),
(271,662,o),
(271,729,cs),
(271,742,l),
(226,742,l),
(226,691,o),
(199,662,o),
(135,662,c),
(71,662,o),
(44,691,o),
(44,742,c),
(0,742,l),
(0,729,ls),
(0,662,o),
(45,606,o),
(135,606,c)
);
}
);
width = 320;
},
{
anchors = (
{
name = _top;
pos = (224,496);
}
);
layerId = "BD1314B0-2F62-4F06-89D3-8B766BA843F0";
shapes = (
{
closed = 1;
nodes = (
(328,543,o),
(403,601,o),
(414,700,cs),
(416,718,l),
(331,718,l),
(326,678,o),
(300,630,o),
(244,630,cs),
(187,630,o),
(175,678,o),
(180,718,c),
(96,718,l),
(94,700,ls),
(83,601,o),
(135,543,o),
(232,543,cs)
);
}
);
width = 380;
},
{
anchors = (
{
name = _top;
pos = (201,496);
}
);
layerId = "897F30B6-1700-43C7-9C60-A606C7C7F267";
shapes = (
{
closed = 1;
nodes = (
(300,573,o),
(354,629,o),
(364,696,cs),
(366,709,l),
(311,709,l),
(304,664,o),
(275,629,o),
(218,629,cs),
(161,629,o),
(142,664,o),
(149,709,c),
(95,709,l),
(93,696,ls),
(83,629,o),
(120,573,o),
(210,573,cs)
);
}
);
width = 331;
},
{
anchors = (
{
name = _top;
pos = (194,496);
}
);
associatedMasterId = "BD1314B0-2F62-4F06-89D3-8B766BA843F0";
layerId = "0C617EDE-A13F-454F-B7BE-EA81071513A3";
name = "28 Jan 23, 22:59";
shapes = (
{
closed = 1;
nodes = (
(301,543,o),
(369,598,o),
(384,696,cs),
(387,718,l),
(303,722,l),
(296,681,o),
(267,630,o),
(208,630,cs),
(155,630,o),
(144,674,o),
(151,715,c),
(66,718,l),
(65,704,ls),
(51,606,o),
(108,543,o),
(208,543,cs)
);
}
);
width = 320;
},
{
anchors = (
{
name = _top;
pos = (170,496);
}
);
associatedMasterId = "897F30B6-1700-43C7-9C60-A606C7C7F267";
layerId = "3946A9EA-593C-473D-B41F-F83DE702D975";
name = "28 Jan 23, 22:59";
shapes = (
{
closed = 1;
nodes = (
(271,573,o),
(326,629,o),
(335,696,cs),
(336,709,l),
(282,709,l),
(276,664,o),
(246,629,o),
(189,629,cs),
(132,629,o),
(113,664,o),
(119,709,c),
(65,709,l),
(63,696,ls),
(54,629,o),
(91,573,o),
(181,573,cs)
);
}
);
width = 271;
}
);
unicode = 774;
},
{
glyphname = ringcomb;
lastChange = "2023-01-28 22:33:58 +0000";
layers = (
{
associatedMasterId = "897F30B6-1700-43C7-9C60-A606C7C7F267";
layerId = "02575D39-7864-4EEF-9012-950E1A85E8A1";
name = public.background;
shapes = (
{
closed = 1;
nodes = (
(159,610,o),
(204,648,o),
(204,710,cs),
(204,772,o),
(159,810,o),
(102,810,cs),
(47,810,o),
(0,772,o),
(0,710,cs),
(0,648,o),
(47,610,o),
(102,610,cs)
);
},
{
closed = 1;
nodes = (
(70,649,o),
(44,673,o),
(44,710,cs),
(44,748,o),
(70,771,o),
(102,771,cs),
(135,771,o),
(161,748,o),
(161,710,cs),
(161,673,o),
(135,649,o),
(102,649,cs)
);
}
);
width = 232;
},
{
anchors = (
{
name = _top;
pos = (181,496);
}
);
layerId = "BD1314B0-2F62-4F06-89D3-8B766BA843F0";
shapes = (
{
closed = 1;
nodes = (
(252,544,o),
(310,588,o),
(320,659,cs),
(330,730,o),
(284,773,o),
(220,773,cs),
(157,773,o),
(98,730,o),
(88,659,cs),
(78,588,o),
(125,544,o),
(188,544,cs)
);
},
{
closed = 1;
nodes = (
(172,611,o),
(154,630,o),
(158,659,cs),
(162,688,o),
(186,706,o),
(211,706,cs),
(237,706,o),
(254,688,o),
(250,659,cs),
(246,630,o),
(223,611,o),
(197,611,cs)
);
}
);
width = 292;
},
{
anchors = (
{
name = _top;
pos = (167,496);
}
);
layerId = "897F30B6-1700-43C7-9C60-A606C7C7F267";
shapes = (
{
closed = 1;
nodes = (
(233,560,o),
(283,598,o),
(292,660,cs),
(301,722,o),
(261,760,o),
(204,760,cs),
(149,760,o),
(97,722,o),
(88,660,cs),
(79,598,o),
(121,560,o),
(176,560,cs)
);
},
{
closed = 1;
nodes = (
(158,611,o),
(140,630,o),
(144,660,cs),
(148,690,o),
(172,709,o),
(197,709,cs),
(224,709,o),
(241,690,o),
(237,660,cs),
(233,630,o),
(210,611,o),
(183,611,cs)
);
}
);
width = 264;
},
{
anchors = (
{
name = _top;
pos = (151,496);
}
);
associatedMasterId = "BD1314B0-2F62-4F06-89D3-8B766BA843F0";
layerId = "5D5F5505-DEF2-427A-B041-6062862BC3EF";
name = "28 Jan 23, 22:59";
shapes = (
{
closed = 1;
nodes = (
(225,544,o),
(280,584,o),
(289,651,cs),
(299,726,o),
(251,773,o),
(184,773,cs),
(124,773,o),
(69,733,o),
(59,667,cs),
(48,592,o),
(98,544,o),
(164,544,cs)
);
},
{
closed = 1;
nodes = (
(136,606,o),
(118,623,o),
(122,651,cs),
(127,687,o),
(157,711,o),
(188,711,cs),
(214,711,o),
(231,695,o),
(226,667,cs),
(221,631,o),
(193,606,o),
(161,606,cs)
);
}
);
width = 232;
},
{
anchors = (
{
name = _top;
pos = (136,496);
}
);
associatedMasterId = "897F30B6-1700-43C7-9C60-A606C7C7F267";
layerId = "B9FE76CD-9598-4EDA-82FC-B9F46F6B6646";
name = "28 Jan 23, 22:59";
shapes = (
{
closed = 1;
nodes = (
(203,560,o),
(253,598,o),
(261,660,cs),
(271,722,o),
(231,760,o),
(174,760,cs),
(119,760,o),
(67,722,o),
(58,660,cs),
(49,598,o),
(91,560,o),
(146,560,cs)
);
},
{
closed = 1;
nodes = (
(128,611,o),
(109,630,o),
(113,660,cs),
(118,690,o),
(142,709,o),
(167,709,cs),
(194,709,o),
(211,690,o),
(207,660,cs),
(203,630,o),
(180,611,o),
(153,611,cs)
);
}
);
width = 204;
}
);
unicode = 778;
},
{
color = 4;
glyphname = tildecomb;
lastChange = "2023-01-28 22:49:45 +0000";
layers = (
{
associatedMasterId = "897F30B6-1700-43C7-9C60-A606C7C7F267";
layerId = "02575D39-7864-4EEF-9012-950E1A85E8A1";
name = public.background;
shapes = (
{
closed = 1;
nodes = (
(244,604,o),
(280,638,o),
(286,697,c),
(244,697,l),
(240,667,o),
(222,652,o),
(200,652,cs),
(157,652,o),
(140,699,o),
(88,699,cs),
(41,699,o),
(8,667,o),
(0,606,c),
(43,606,l),
(47,637,o),
(63,651,o),
(85,651,cs),
(126,651,o),
(144,604,o),
(197,604,cs)
);
}
);
width = 365;
},
{
anchors = (
{
name = _top;
pos = (244,496);
}
);
layerId = "BD1314B0-2F62-4F06-89D3-8B766BA843F0";
shapes = (
{
closed = 1;
nodes = (
(379,560,o),
(430,601,o),
(457,691,c),
(383,691,l),
(375,661,o),
(357,646,o),
(334,646,cs),
(293,646,o),
(272,692,o),
(215,692,cs),
(151,692,o),
(101,652,o),
(74,561,c),
(147,561,l),
(156,592,o),
(174,606,o),
(197,606,cs),
(237,606,o),
(258,560,o),
(316,560,cs)
);
}
);
width = 425;
},
{
anchors = (
{
name = _top;
pos = (197,496);
}
);
layerId = "897F30B6-1700-43C7-9C60-A606C7C7F267";
shapes = (
{
closed = 1;
nodes = (
(317,554,o),
(358,588,o),
(375,667,c),
(318,667,l),
(312,638,o),
(295,624,o),
(277,624,cs),
(250,624,o),
(229,669,o),
(177,669,cs),
(130,669,o),
(93,637,o),
(73,556,c),
(131,556,l),
(137,586,o),
(152,599,o),
(170,599,cs),
(195,599,o),
(217,554,o),
(270,554,cs)
);
}
);
width = 346;
},
{
anchors = (
{
name = _top;
pos = (214,496);
}
);
associatedMasterId = "BD1314B0-2F62-4F06-89D3-8B766BA843F0";
layerId = "6472ED7D-25BB-4E46-993C-CC7871D714EB";
name = "28 Jan 23, 22:59";
shapes = (
{
closed = 1;
nodes = (
(351,546,o),
(400,583,o),
(426,673,c),
(352,680,l),
(343,651,o),
(323,632,o),
(297,632,cs),
(259,632,o),
(238,678,o),
(178,678,cs),
(117,678,o),
(69,642,o),
(42,551,c),
(115,544,l),
(125,574,o),
(147,592,o),
(172,592,cs),
(209,592,o),
(230,546,o),
(290,546,cs)
);
}
);
width = 365;
},
{
anchors = (
{
name = _top;
pos = (167,496);
}
);
associatedMasterId = "897F30B6-1700-43C7-9C60-A606C7C7F267";
layerId = "DFAA4FDA-EBC0-4510-A468-1A72F0C28023";
name = "28 Jan 23, 22:59";
shapes = (
{
closed = 1;
nodes = (
(288,554,o),
(328,587,o),
(345,667,c),
(288,667,l),
(283,637,o),
(265,624,o),
(247,624,cs),
(220,624,o),
(199,669,o),
(147,669,cs),
(100,669,o),
(63,637,o),
(44,556,c),
(101,556,l),
(108,586,o),
(122,599,o),
(141,599,cs),
(166,599,o),
(188,554,o),
(240,554,cs)
);
}
);
width = 286;
}
);
unicode = 771;
},
{
glyphname = macroncomb;
lastChange = "2023-01-28 22:33:58 +0000";
layers = (
{
associatedMasterId = "897F30B6-1700-43C7-9C60-A606C7C7F267";
layerId = "02575D39-7864-4EEF-9012-950E1A85E8A1";
name = public.background;
shapes = (
{
closed = 1;
nodes = (
(339,646,l),
(339,700,l),
(0,700,l),
(0,646,l)
);
}
);
width = 381;
},
{
anchors = (
{
name = _top;
pos = (256,496);
}
);
layerId = "BD1314B0-2F62-4F06-89D3-8B766BA843F0";
shapes = (
{
closed = 1;
nodes = (
(457,575,l),
(471,674,l),
(90,674,l),
(76,575,l)
);
}
);
width = 441;
},
{
anchors = (
{
name = _top;
pos = (235,496);
}
);
layerId = "897F30B6-1700-43C7-9C60-A606C7C7F267";
shapes = (
{
closed = 1;
nodes = (
(418,596,l),
(428,670,l),
(89,670,l),
(79,596,l)
);
}
);
width = 399;
},
{
anchors = (
{
name = _top;
pos = (226,496);
}
);
associatedMasterId = "BD1314B0-2F62-4F06-89D3-8B766BA843F0";
layerId = "3F62AA9D-1E72-448E-BB61-548EB55052E8";
name = "28 Jan 23, 22:59";
shapes = (
{
closed = 1;
nodes = (
(427,575,l),
(441,674,l),
(60,674,l),
(46,575,l)
);
}
);
width = 381;
},
{
anchors = (
{
name = _top;
pos = (205,496);
}
);
associatedMasterId = "897F30B6-1700-43C7-9C60-A606C7C7F267";
layerId = "DF0BA990-E647-41E8-83CD-AEF1B09A6F95";
name = "28 Jan 23, 22:59";
shapes = (
{
closed = 1;
nodes = (
(388,596,l),
(398,670,l),
(60,670,l),
(49,596,l)
);
}
);
width = 339;
}
);
unicode = 772;
},
{
color = 4;
glyphname = commaaccentcomb;
lastChange = "2023-01-28 22:49:46 +0000";
layers = (
{
anchors = (
{
name = _bottom;
pos = (60,135);
},
{
name = bottom;
pos = (28,-97);
}
);
layerId = "897F30B6-1700-43C7-9C60-A606C7C7F267";
shapes = (
{
closed = 1;
nodes = (
(40,-97,o),
(77,-68,o),
(87,5,cs),
(99,91,l),
(8,91,l),
(-2,15,l),
(44,15,l),
(40,-10,ls),
(35,-44,o),
(21,-62,o),
(-13,-62,c),
(-18,-97,l)
);
}
);
width = 151;
},
{
anchors = (
{
name = _bottom;
pos = (85,166);
},
{
name = bottom;
pos = (47,-103);
}
);
layerId = "BD1314B0-2F62-4F06-89D3-8B766BA843F0";
shapes = (
{
closed = 1;
nodes = (
(72,-103,o),
(120,-57,o),
(130,18,cs),
(145,127,l),
(13,127,l),
(-2,18,l),
(56,18,l),
(53,-1,ls),
(48,-32,o),
(30,-47,o),
(-4,-47,c),
(-12,-103,l)
);
}
);
width = 192;
},
{
associatedMasterId = "BD1314B0-2F62-4F06-89D3-8B766BA843F0";
layerId = "540DE9A3-7E47-407D-8F45-B04774A915D3";
name = "28 Jan 23, 22:59";
shapes = (
{
closed = 1;
nodes = (
(15,-128,l),
(99,-128,o),
(144,-80,o),
(156,4,cs),
(171,117,l),
(40,117,l),
(24,8,l),
(83,8,l),
(81,-7,ls),
(74,-48,o),
(51,-72,o),
(17,-72,c)
);
}
);
width = 230;
},
{
associatedMasterId = "897F30B6-1700-43C7-9C60-A606C7C7F267";
layerId = "0B108474-94D2-45CE-B9B5-A429A2BDAD37";
name = "28 Jan 23, 22:59";
shapes = (
{
closed = 1;
nodes = (
(21,-97,l),
(79,-97,o),
(117,-68,o),
(126,5,cs),
(139,91,l),
(48,91,l),
(37,15,l),
(84,15,l),
(79,-10,ls),
(75,-44,o),
(61,-62,o),
(26,-62,c)
);
}
);
width = 230;
}
);
unicode = 806;
},
{
color = 4;
glyphname = cedillacomb;
lastChange = "2023-01-28 22:49:46 +0000";
layers = (
{
associatedMasterId = "897F30B6-1700-43C7-9C60-A606C7C7F267";
layerId = "02575D39-7864-4EEF-9012-950E1A85E8A1";
name = public.background;
shapes = (
{
closed = 1;
nodes = (
(100,-258,ls),
(170,-258,o),
(217,-220,o),
(217,-160,cs),
(217,-98,o),
(167,-65,o),
(89,-67,c),
(89,7,l),
(40,7,l),
(40,-112,l),
(86,-112,ls),
(136,-112,o),
(158,-129,o),
(158,-160,cs),
(158,-194,o),
(136,-211,o),
(86,-211,cs),
(0,-211,l),
(0,-258,l)
);
}
);
width = 270;
},
{
anchors = (
{
name = _bottom;
pos = (107,3);
}
);
layerId = "BD1314B0-2F62-4F06-89D3-8B766BA843F0";
shapes = (
{
closed = 1;
nodes = (
(95,-264,ls),
(165,-264,o),
(233,-229,o),
(243,-154,cs),
(252,-89,o),
(204,-57,o),
(147,-57,cs),
(136,-57,o),
(126,-58,o),
(115,-60,c),
(176,7,l),
(79,7,l),
(13,-100,ls),
(11,-103,o),
(10,-106,o),
(10,-108,cs),
(9,-115,o),
(13,-119,o),
(22,-119,cs),
(95,-119,ls),
(128,-119,o),
(151,-125,o),
(147,-151,cs),
(143,-178,o),
(119,-185,o),
(86,-185,cs),
(-31,-185,l),
(-42,-264,l)
);
}
);
width = 330;
},
{
anchors = (
{
name = _bottom;
pos = (82,0);
}
);
layerId = "897F30B6-1700-43C7-9C60-A606C7C7F267";
shapes = (
{
closed = 1;
nodes = (
(59,-258,ls),
(129,-258,o),
(182,-220,o),
(190,-160,cs),
(198,-101,o),
(157,-67,o),
(84,-67,cs),
(81,-67,o),
(78,-67,o),
(75,-67,c),
(126,7,l),
(77,7,l),
(15,-101,ls),
(14,-103,o),
(14,-105,o),
(14,-106,cs),
(13,-110,o),
(16,-112,o),
(19,-112,cs),
(66,-112,ls),
(116,-112,o),
(136,-129,o),
(131,-160,cs),
(126,-194,o),
(102,-211,o),
(52,-211,cs),
(-34,-211,l),
(-41,-258,l)
);
}
);
width = 277;
},
{
anchors = (
{
name = _bottom;
pos = (78,3);
}
);
associatedMasterId = "BD1314B0-2F62-4F06-89D3-8B766BA843F0";
layerId = "D8C8F044-F8BD-4765-92E6-1F931F3A99C4";
name = "28 Jan 23, 22:59";
shapes = (
{
closed = 1;
nodes = (
(68,-264,ls),
(139,-264,o),
(203,-232,o),
(213,-161,cs),
(225,-81,o),
(153,-45,o),
(83,-59,c),
(147,7,l),
(49,7,l),
(-18,-97,l),
(-23,-107,o),
(-16,-119,o),
(-4,-119,cs),
(69,-119,ls),
(102,-119,o),
(121,-121,o),
(118,-144,cs),
(114,-174,o),
(87,-185,o),
(54,-185,cs),
(-60,-185,l),
(-71,-264,l)
);
}
);
width = 270;
},
{
anchors = (
{
name = _bottom;
pos = (52,0);
}
);
associatedMasterId = "897F30B6-1700-43C7-9C60-A606C7C7F267";
layerId = "28A1999C-088E-485B-B25F-E9D17E595477";
name = "28 Jan 23, 22:59";
shapes = (
{
closed = 1;
nodes = (
(30,-258,ls),
(100,-258,o),
(152,-220,o),
(160,-160,cs),
(169,-98,o),
(124,-65,o),
(45,-67,c),
(95,7,l),
(47,7,l),
(-16,-104,l),
(-18,-109,o),
(-15,-112,o),
(-11,-112,cs),
(36,-112,ls),
(86,-112,o),
(106,-129,o),
(102,-160,cs),
(97,-194,o),
(73,-211,o),
(23,-211,cs),
(-64,-211,l),
(-70,-258,l)
);
}
);
width = 217;
}
);
unicode = 807;
},
{
color = 4;
glyphname = ogonekcomb;
lastChange = "2023-01-28 22:49:46 +0000";
layers = (
{
associatedMasterId = "897F30B6-1700-43C7-9C60-A606C7C7F267";
layerId = "02575D39-7864-4EEF-9012-950E1A85E8A1";
name = public.background;
shapes = (
{
closed = 1;
nodes = (
(137,-201,o),
(163,-196,o),
(185,-188,c),
(185,-139,l),
(163,-148,o),
(140,-153,o),
(121,-153,cs),
(84,-153,o),
(59,-135,o),
(59,-102,cs),
(59,-76,o),
(75,-52,o),
(122,-29,cs),
(182,0,l),
(163,38,l),
(108,13,ls),
(29,-23,o),
(0,-64,o),
(0,-109,cs),
(0,-176,o),
(56,-201,o),
(113,-201,cs)
);
}
);
width = 227;
},
{
anchors = (
{
name = _ogonek;
pos = (216,0);
}
);
layerId = "BD1314B0-2F62-4F06-89D3-8B766BA843F0";
shapes = (
{
closed = 1;
nodes = (
(135,-212,o),
(166,-206,o),
(194,-198,c),
(205,-116,l),
(178,-126,o),
(151,-131,o),
(131,-131,cs),
(100,-131,o),
(83,-116,o),
(86,-92,cs),
(89,-69,o),
(110,-49,o),
(162,-25,cs),
(216,0,l),
(194,65,l),
(147,46,ls),
(28,-2,o),
(-12,-50,o),
(-20,-105,cs),
(-31,-179,o),
(27,-212,o),
(102,-212,cs)
);
}
);
width = 287;
},
{
anchors = (
{
name = _ogonek;
pos = (177,0);
}
);
layerId = "897F30B6-1700-43C7-9C60-A606C7C7F267";
shapes = (
{
closed = 1;
nodes = (
(104,-201,o),
(131,-196,o),
(154,-188,c),
(161,-139,l),
(138,-148,o),
(114,-153,o),
(95,-153,cs),
(58,-153,o),
(35,-135,o),
(40,-102,cs),
(44,-76,o),
(63,-52,o),
(113,-29,cs),
(177,0,l),
(164,38,l),
(105,13,ls),
(21,-23,o),
(-14,-64,o),
(-20,-109,cs),
(-29,-176,o),
(23,-201,o),
(80,-201,cs)
);
}
);
width = 245;
},
{
anchors = (
{
name = _ogonek;
pos = (188,0);
}
);
associatedMasterId = "BD1314B0-2F62-4F06-89D3-8B766BA843F0";
layerId = "9CD5BAF8-EB19-4751-AB14-4973DDAB1E7C";
name = "28 Jan 23, 22:59";
shapes = (
{
closed = 1;
nodes = (
(109,-212,o),
(140,-207,o),
(167,-199,c),
(173,-115,l),
(146,-125,o),
(119,-131,o),
(96,-131,cs),
(68,-131,o),
(54,-120,o),
(57,-100,cs),
(61,-73,o),
(84,-51,o),
(136,-27,cs),
(187,0,l),
(164,65,l),
(115,48,l),
(-4,-1,o),
(-41,-46,o),
(-48,-98,cs),
(-59,-175,o),
(0,-212,o),
(79,-212,cs)
);
}
);
width = 227;
},
{
anchors = (
{
name = _ogonek;
pos = (147,0);
}
);
associatedMasterId = "897F30B6-1700-43C7-9C60-A606C7C7F267";
layerId = "E2DCBA8F-771D-4C67-B451-FD7CF02DF427";
name = "28 Jan 23, 22:59";
shapes = (
{
closed = 1;
nodes = (
(74,-201,o),
(101,-196,o),
(124,-187,c),
(131,-139,l),
(108,-148,o),
(84,-153,o),
(65,-153,cs),
(28,-153,o),
(6,-135,o),
(10,-102,cs),
(14,-76,o),
(34,-52,o),
(84,-29,cs),
(147,0,l),
(134,37,l),
(75,12,ls),
(-9,-23,o),
(-43,-64,o),
(-50,-109,cs),
(-59,-176,o),
(-7,-201,o),
(50,-201,cs)
);
}
);
width = 185;
}
);
unicode = 808;
},
{
glyphname = caroncomb.alt;
lastChange = "2023-08-14 16:51:22 +0000";
layers = (
{
layerId = "897F30B6-1700-43C7-9C60-A606C7C7F267";
shapes = (
{
closed = 1;
nodes = (
(74,552,l),
(134,552,o),
(169,581,o),
(180,655,cs),
(193,740,l),
(101,740,l),
(91,664,l),
(137,664,l),
(134,639,ls),
(130,606,o),
(114,587,o),
(79,587,c)
);
}
);
width = 155;
},
{
layerId = "BD1314B0-2F62-4F06-89D3-8B766BA843F0";
shapes = (
{
closed = 1;
nodes = (
(49,495,l),
(140,495,o),
(187,544,o),
(198,628,cs),
(213,740,l),
(80,740,l),
(64,631,l),
(123,631,l),
(120,617,ls),
(111,575,o),
(92,551,o),
(58,551,c)
);
}
);
width = 155;
}
);
},
{
glyphname = dieresiscomb.case;
lastChange = "2023-08-04 13:48:12 +0000";
layers = (
{
associatedMasterId = "897F30B6-1700-43C7-9C60-A606C7C7F267";
layerId = "02575D39-7864-4EEF-9012-950E1A85E8A1";
name = public.background;
shapes = (
{
closed = 1;
nodes = (
(71,623,o),
(92,644,o),
(92,669,cs),
(92,694,o),
(71,715,o),
(46,715,cs),
(20,715,o),
(0,694,o),
(0,669,cs),
(0,644,o),
(20,623,o),
(46,623,cs)
);
},
{
closed = 1;
nodes = (
(225,623,o),
(245,644,o),
(245,669,cs),
(245,694,o),
(225,715,o),
(200,715,cs),
(174,715,o),
(154,694,o),
(154,669,cs),
(154,644,o),
(174,623,o),
(200,623,cs)
);
}
);
width = 316;
},
{
layerId = "BD1314B0-2F62-4F06-89D3-8B766BA843F0";
shapes = (
{
pos = (30,215);
ref = dieresiscomb;
}
);
width = 367;
},
{
layerId = "897F30B6-1700-43C7-9C60-A606C7C7F267";
shapes = (
{
pos = (26,187);
ref = dieresiscomb;
}
);
width = 306;
},
{
anchors = (
{
name = _top;
pos = (223,700);
}
);
associatedMasterId = "BD1314B0-2F62-4F06-89D3-8B766BA843F0";
layerId = "86F03832-8FDB-4435-B451-208FFF72B291";
name = "28 Jan 23, 22:59";
shapes = (
{
alignment = -1;
pos = (27,190);
ref = dieresiscomb;
}
);
width = 316;
},
{
anchors = (
{
name = _top;
pos = (186,700);
}
);
associatedMasterId = "897F30B6-1700-43C7-9C60-A606C7C7F267";
layerId = "7D694DB4-C774-4F46-A754-CD15A7792176";
name = "28 Jan 23, 22:59";
shapes = (
{
alignment = -1;
pos = (23,164);
ref = dieresiscomb;
}
);
width = 245;
},
{
anchors = (
{
name = _top;
pos = (122,700);
}
);
associatedMasterId = "897F30B6-1700-43C7-9C60-A606C7C7F267";
layerId = "F6160AC2-0DE3-4A03-AD20-0D9313839BB9";
name = "28 Jan 23, 22:05";
shapes = (
{
closed = 1;
nodes = (
(245,784,l),
(245,887,l),
(149,887,l),
(149,784,l)
);
},
{
closed = 1;
nodes = (
(96,784,l),
(96,887,l),
(0,887,l),
(0,784,l)
);
}
);
width = 245;
},
{
associatedMasterId = "BD1314B0-2F62-4F06-89D3-8B766BA843F0";
layerId = "E7C929DC-B1C1-40E6-A5BD-1E5BD91E819C";
name = "28 Jan 23, 22:08";
shapes = (
{
alignment = -1;
ref = dieresiscomb;
}
);
width = 316;
},
{
associatedMasterId = "897F30B6-1700-43C7-9C60-A606C7C7F267";
layerId = "35F93952-2E0C-4D70-AD4D-D25E358468F5";
name = "28 Jan 23, 22:11";
shapes = (
{
alignment = -1;
ref = dieresiscomb;
}
);
width = 245;
},
{
associatedMasterId = "BD1314B0-2F62-4F06-89D3-8B766BA843F0";
layerId = "495D133D-166A-40FC-AED4-8B7F6EBA4D85";
name = "28 Jan 23, 22:11";
shapes = (
{
alignment = -1;
pos = (0,215);
ref = dieresiscomb;
}
);
width = 316;
}
);
},
{
glyphname = dotaccentcomb.case;
lastChange = "2023-08-04 13:48:12 +0000";
layers = (
{
associatedMasterId = "897F30B6-1700-43C7-9C60-A606C7C7F267";
layerId = "02575D39-7864-4EEF-9012-950E1A85E8A1";
name = public.background;
shapes = (
{
closed = 1;
nodes = (
(71,623,o),
(92,644,o),
(92,669,cs),
(92,694,o),
(71,715,o),
(46,715,cs),
(21,715,o),
(0,694,o),
(0,669,cs),
(0,644,o),
(21,623,o),
(46,623,cs)
);
}
);
width = 130;
},
{
layerId = "BD1314B0-2F62-4F06-89D3-8B766BA843F0";
shapes = (
{
pos = (30,215);
ref = dotaccentcomb;
}
);
width = 190;
},
{
layerId = "897F30B6-1700-43C7-9C60-A606C7C7F267";
shapes = (
{
pos = (26,187);
ref = dotaccentcomb;
}
);
width = 162;
},
{
anchors = (
{
name = _top;
pos = (129,700);
}
);
associatedMasterId = "BD1314B0-2F62-4F06-89D3-8B766BA843F0";
layerId = "8C24466B-D809-48E3-B1FC-D152088839A8";
name = "28 Jan 23, 22:59";
shapes = (
{
alignment = -1;
pos = (32,194);
ref = dotaccentcomb;
}
);
width = 130;
},
{
anchors = (
{
name = _top;
pos = (110,700);
}
);
associatedMasterId = "897F30B6-1700-43C7-9C60-A606C7C7F267";
layerId = "9EA13CC2-6B4B-483C-BF08-F793B3E1E724";
name = "28 Jan 23, 22:59";
shapes = (
{
alignment = -1;
pos = (32,222);
ref = dotaccentcomb;
}
);
width = 92;
},
{
anchors = (
{
name = _top;
pos = (65,700);
}
);
associatedMasterId = "BD1314B0-2F62-4F06-89D3-8B766BA843F0";
layerId = "5FAC2DC6-9556-4974-8272-3A70D2C3F02C";
name = "28 Jan 23, 22:08";
shapes = (
{
closed = 1;
nodes = (
(152,767,l),
(152,923,l),
(-21,923,l),
(-21,767,l)
);
}
);
width = 130;
},
{
associatedMasterId = "897F30B6-1700-43C7-9C60-A606C7C7F267";
layerId = "00BFE720-8864-47F9-8AFA-A870C8670026";
name = "28 Jan 23, 22:11";
shapes = (
{
alignment = -1;
ref = dotaccentcomb;
}
);
width = 92;
},
{
associatedMasterId = "BD1314B0-2F62-4F06-89D3-8B766BA843F0";
layerId = "CBB8022D-DF63-4CB6-9F95-BA19FEC87A4C";
name = "28 Jan 23, 22:11";
shapes = (
{
alignment = -1;
ref = dotaccentcomb;
}
);
width = 130;
}
);
},
{
glyphname = gravecomb.case;
lastChange = "2023-08-04 13:48:12 +0000";
layers = (
{
associatedMasterId = "897F30B6-1700-43C7-9C60-A606C7C7F267";
layerId = "02575D39-7864-4EEF-9012-950E1A85E8A1";
name = public.background;
shapes = (
{
closed = 1;
nodes = (
(205,642,l),
(0,770,l),
(0,707,l),
(205,588,l)
);
}
);
width = 230;
},
{
layerId = "BD1314B0-2F62-4F06-89D3-8B766BA843F0";
shapes = (
{
pos = (29,204);
ref = gravecomb;
}
);
width = 291;
},
{
layerId = "897F30B6-1700-43C7-9C60-A606C7C7F267";
shapes = (
{
alignment = -1;
pos = (29,204);
ref = gravecomb;
}
);
width = 266;
},
{
anchors = (
{
name = _top;
pos = (243,700);
}
);
associatedMasterId = "BD1314B0-2F62-4F06-89D3-8B766BA843F0";
layerId = "30C7E7AC-912E-4ACB-A88B-B0FAAA863D49";
name = "28 Jan 23, 22:59";
shapes = (
{
alignment = -1;
pos = (28,203);
ref = gravecomb;
}
);
width = 230;
},
{
anchors = (
{
name = _top;
pos = (226,700);
}
);
associatedMasterId = "897F30B6-1700-43C7-9C60-A606C7C7F267";
layerId = "A12065C2-EA13-4F0E-A269-E61E705E8E51";
name = "28 Jan 23, 22:59";
shapes = (
{
alignment = -1;
pos = (28,205);
ref = gravecomb;
}
);
width = 205;
},
{
anchors = (
{
name = _top;
pos = (162,700);
}
);
associatedMasterId = "897F30B6-1700-43C7-9C60-A606C7C7F267";
layerId = "0ECD813E-DD38-4F8F-AD05-45822CD800D5";
name = "28 Jan 23, 22:11";
shapes = (
{
closed = 1;
nodes = (
(205,816,l),
(0,944,l),
(0,861,l),
(205,742,l)
);
}
);
width = 205;
},
{
anchors = (
{
name = _top;
pos = (179,700);
}
);
associatedMasterId = "BD1314B0-2F62-4F06-89D3-8B766BA843F0";
layerId = "D078AA9F-2A73-4015-94CB-AC017456AF36";
name = "28 Jan 23, 22:11";
shapes = (
{
closed = 1;
nodes = (
(230,838,l),
(0,957,l),
(0,846,l),
(230,739,l)
);
}
);
width = 230;
}
);
},
{
glyphname = acutecomb.case;
lastChange = "2023-08-04 13:48:12 +0000";
layers = (
{
associatedMasterId = "897F30B6-1700-43C7-9C60-A606C7C7F267";
layerId = "02575D39-7864-4EEF-9012-950E1A85E8A1";
name = public.background;
shapes = (
{
closed = 1;
nodes = (
(205,707,l),
(205,770,l),
(0,642,l),
(0,588,l)
);
}
);
width = 230;
},
{
layerId = "BD1314B0-2F62-4F06-89D3-8B766BA843F0";
shapes = (
{
pos = (29,204);
ref = acutecomb;
}
);
width = 290;
},
{
layerId = "897F30B6-1700-43C7-9C60-A606C7C7F267";
shapes = (
{
pos = (29,204);
ref = acutecomb;
}
);
width = 266;
},
{
anchors = (
{
name = _top;
pos = (115,700);
}
);
associatedMasterId = "BD1314B0-2F62-4F06-89D3-8B766BA843F0";
layerId = "003EBAD8-6958-41A0-84E9-DDF1C03AE5FC";
name = "28 Jan 23, 22:59";
shapes = (
{
alignment = -1;
pos = (29,204);
ref = acutecomb;
}
);
width = 230;
},
{
anchors = (
{
name = _top;
pos = (106,700);
}
);
associatedMasterId = "897F30B6-1700-43C7-9C60-A606C7C7F267";
layerId = "DE42295D-0DB5-4F51-88D5-E99716D865C2";
name = "28 Jan 23, 22:59";
shapes = (
{
alignment = -1;
pos = (29,205);
ref = acutecomb;
}
);
width = 205;
},
{
anchors = (
{
name = _top;
pos = (43,700);
}
);
associatedMasterId = "897F30B6-1700-43C7-9C60-A606C7C7F267";
layerId = "C7627D2E-B498-42B9-A8F5-28543C881383";
name = "28 Jan 23, 22:11";
shapes = (
{
closed = 1;
nodes = (
(205,861,l),
(205,944,l),
(0,816,l),
(0,742,l)
);
}
);
width = 205;
},
{
anchors = (
{
name = _top;
pos = (51,700);
}
);
associatedMasterId = "BD1314B0-2F62-4F06-89D3-8B766BA843F0";
layerId = "77841FBB-C81F-4A15-8010-E4768BAF5F80";
name = "28 Jan 23, 22:11";
shapes = (
{
closed = 1;
nodes = (
(230,846,l),
(230,957,l),
(0,838,l),
(0,739,l)
);
}
);
width = 230;
}
);
},
{
glyphname = hungarumlautcomb.case;
lastChange = "2023-08-04 13:48:12 +0000";
layers = (
{
associatedMasterId = "897F30B6-1700-43C7-9C60-A606C7C7F267";
layerId = "02575D39-7864-4EEF-9012-950E1A85E8A1";
name = public.background;
shapes = (
{
closed = 1;
nodes = (
(186,601,l),
(270,740,l),
(207,740,l),
(138,601,l)
);
},
{
closed = 1;
nodes = (
(49,601,l),
(128,740,l),
(65,740,l),
(0,601,l)
);
}
);
width = 373;
},
{
layerId = "BD1314B0-2F62-4F06-89D3-8B766BA843F0";
shapes = (
{
alignment = -1;
pos = (29,204);
ref = hungarumlautcomb;
}
);
width = 433;
},
{
layerId = "897F30B6-1700-43C7-9C60-A606C7C7F267";
shapes = (
{
alignment = -1;
pos = (28,204);
ref = hungarumlautcomb;
}
);
width = 330;
},
{
anchors = (
{
name = _top;
pos = (208,700);
}
);
associatedMasterId = "BD1314B0-2F62-4F06-89D3-8B766BA843F0";
layerId = "92113D3C-0270-4136-9A7B-5233630C18CE";
name = "28 Jan 23, 22:59";
shapes = (
{
alignment = -1;
pos = (28,204);
ref = hungarumlautcomb;
}
);
width = 373;
},
{
anchors = (
{
name = _top;
pos = (166,700);
}
);
associatedMasterId = "897F30B6-1700-43C7-9C60-A606C7C7F267";
layerId = "8F535EF1-4DFF-4E3A-9F12-227EDF606AC4";
name = "28 Jan 23, 22:59";
shapes = (
{
alignment = -1;
pos = (29,204);
ref = hungarumlautcomb;
}
);
width = 270;
},
{
anchors = (
{
name = _top;
pos = (102,700);
}
);
associatedMasterId = "897F30B6-1700-43C7-9C60-A606C7C7F267";
layerId = "886DA043-6147-41F9-80A2-8A99ED22C27A";
name = "28 Jan 23, 22:11";
shapes = (
{
closed = 1;
nodes = (
(186,755,l),
(270,894,l),
(187,894,l),
(118,755,l)
);
},
{
closed = 1;
nodes = (
(69,755,l),
(148,894,l),
(65,894,l),
(0,755,l)
);
}
);
width = 270;
},
{
anchors = (
{
name = _top;
pos = (144,700);
}
);
associatedMasterId = "BD1314B0-2F62-4F06-89D3-8B766BA843F0";
layerId = "1C07D8C5-F911-4D6A-8D64-3150F1CD23BB";
name = "28 Jan 23, 22:11";
shapes = (
{
closed = 1;
nodes = (
(264,747,l),
(373,934,l),
(260,934,l),
(176,747,l)
);
},
{
closed = 1;
nodes = (
(88,747,l),
(185,934,l),
(72,934,l),
(0,747,l)
);
}
);
width = 373;
}
);
},
{
glyphname = circumflexcomb.case;
lastChange = "2023-08-04 13:48:12 +0000";
layers = (
{
associatedMasterId = "897F30B6-1700-43C7-9C60-A606C7C7F267";
layerId = "02575D39-7864-4EEF-9012-950E1A85E8A1";
name = public.background;
shapes = (
{
closed = 1;
nodes = (
(134,688,l),
(268,604,l),
(268,661,l),
(134,743,l),
(0,661,l),
(0,604,l)
);
}
);
width = 297;
},
{
layerId = "BD1314B0-2F62-4F06-89D3-8B766BA843F0";
shapes = (
{
pos = (29,204);
ref = circumflexcomb;
}
);
width = 357;
},
{
layerId = "897F30B6-1700-43C7-9C60-A606C7C7F267";
shapes = (
{
alignment = -1;
pos = (29,204);
ref = circumflexcomb;
}
);
width = 329;
},
{
anchors = (
{
name = _top;
pos = (213,700);
}
);
associatedMasterId = "BD1314B0-2F62-4F06-89D3-8B766BA843F0";
layerId = "12C682AB-53A7-448B-9C99-EBB2ABA83D8B";
name = "28 Jan 23, 22:59";
shapes = (
{
alignment = -1;
pos = (29,204);
ref = circumflexcomb;
}
);
width = 297;
},
{
anchors = (
{
name = _top;
pos = (199,700);
}
);
associatedMasterId = "897F30B6-1700-43C7-9C60-A606C7C7F267";
layerId = "3C379465-DF58-425F-A708-47E85C702B7C";
name = "28 Jan 23, 22:59";
shapes = (
{
alignment = -1;
pos = (29,205);
ref = circumflexcomb;
}
);
width = 268;
},
{
anchors = (
{
name = _top;
pos = (134,700);
}
);
associatedMasterId = "897F30B6-1700-43C7-9C60-A606C7C7F267";
layerId = "0E98F006-0D9F-4BB2-985B-B2CDBA3216BD";
name = "28 Jan 23, 22:11";
shapes = (
{
closed = 1;
nodes = (
(134,842,l),
(268,758,l),
(268,835,l),
(134,917,l),
(0,835,l),
(0,758,l)
);
}
);
width = 268;
},
{
anchors = (
{
name = _top;
pos = (149,700);
}
);
associatedMasterId = "BD1314B0-2F62-4F06-89D3-8B766BA843F0";
layerId = "B61D35B0-3D2B-4D27-8A24-391C2956E8DB";
name = "28 Jan 23, 22:11";
shapes = (
{
closed = 1;
nodes = (
(149,827,l),
(297,744,l),
(297,843,l),
(149,923,l),
(0,843,l),
(0,744,l)
);
}
);
width = 297;
}
);
},
{
glyphname = caroncomb.case;
lastChange = "2023-08-04 13:48:12 +0000";
layers = (
{
associatedMasterId = "897F30B6-1700-43C7-9C60-A606C7C7F267";
layerId = "02575D39-7864-4EEF-9012-950E1A85E8A1";
name = public.background;
shapes = (
{
closed = 1;
nodes = (
(268,685,l),
(268,741,l),
(134,658,l),
(0,741,l),
(0,685,l),
(134,603,l)
);
}
);
width = 297;
},
{
layerId = "BD1314B0-2F62-4F06-89D3-8B766BA843F0";
shapes = (
{
pos = (29,204);
ref = caroncomb;
}
);
width = 357;
},
{
layerId = "897F30B6-1700-43C7-9C60-A606C7C7F267";
shapes = (
{
pos = (29,204);
ref = caroncomb;
}
);
width = 328;
},
{
anchors = (
{
name = _top;
pos = (213,700);
}
);
associatedMasterId = "BD1314B0-2F62-4F06-89D3-8B766BA843F0";
layerId = "76B5AC62-62B8-49A4-A513-A1977D9F1BC2";
name = "28 Jan 23, 22:59";
shapes = (
{
alignment = -1;
pos = (28,204);
ref = caroncomb;
}
);
width = 297;
},
{
anchors = (
{
name = _top;
pos = (199,700);
}
);
associatedMasterId = "897F30B6-1700-43C7-9C60-A606C7C7F267";
layerId = "00E24012-D932-41C3-B83F-638B79AA98CE";
name = "28 Jan 23, 22:59";
shapes = (
{
alignment = -1;
pos = (28,204);
ref = caroncomb;
}
);
width = 268;
},
{
anchors = (
{
name = _top;
pos = (134,700);
}
);
associatedMasterId = "897F30B6-1700-43C7-9C60-A606C7C7F267";
layerId = "679979EF-27A3-4964-9F77-F8CF0754132A";
name = "28 Jan 23, 22:11";
shapes = (
{
closed = 1;
nodes = (
(268,839,l),
(268,915,l),
(134,832,l),
(0,915,l),
(0,839,l),
(134,757,l)
);
}
);
width = 268;
},
{
anchors = (
{
name = _top;
pos = (149,700);
}
);
associatedMasterId = "BD1314B0-2F62-4F06-89D3-8B766BA843F0";
layerId = "93A56D2F-4AEF-481E-BA54-8BC1028D9753";
name = "28 Jan 23, 22:11";
shapes = (
{
closed = 1;
nodes = (
(297,824,l),
(297,923,l),
(149,837,l),
(0,923,l),
(0,824,l),
(149,744,l)
);
}
);
width = 297;
}
);
},
{
glyphname = brevecomb.case;
lastChange = "2023-08-04 13:48:12 +0000";
layers = (
{
associatedMasterId = "897F30B6-1700-43C7-9C60-A606C7C7F267";
layerId = "02575D39-7864-4EEF-9012-950E1A85E8A1";
name = public.background;
shapes = (
{
closed = 1;
nodes = (
(225,606,o),
(271,662,o),
(271,729,cs),
(271,742,l),
(226,742,l),
(226,691,o),
(199,662,o),
(135,662,c),
(71,662,o),
(44,691,o),
(44,742,c),
(0,742,l),
(0,729,ls),
(0,662,o),
(45,606,o),
(135,606,c)
);
}
);
width = 320;
},
{
layerId = "BD1314B0-2F62-4F06-89D3-8B766BA843F0";
shapes = (
{
alignment = -1;
pos = (29,204);
ref = brevecomb;
}
);
width = 381;
},
{
layerId = "897F30B6-1700-43C7-9C60-A606C7C7F267";
shapes = (
{
pos = (26,187);
ref = brevecomb;
}
);
width = 331;
},
{
anchors = (
{
name = _top;
pos = (224,700);
}
);
associatedMasterId = "BD1314B0-2F62-4F06-89D3-8B766BA843F0";
layerId = "D38CA35D-B675-4BFF-A175-2DB957D767E1";
name = "28 Jan 23, 22:59";
shapes = (
{
alignment = -1;
pos = (28,204);
ref = brevecomb;
}
);
width = 320;
},
{
anchors = (
{
name = _top;
pos = (200,700);
}
);
associatedMasterId = "897F30B6-1700-43C7-9C60-A606C7C7F267";
layerId = "87005B73-FC8F-42E6-9E5B-54D6E3AD6110";
name = "28 Jan 23, 22:59";
shapes = (
{
alignment = -1;
pos = (24,187);
ref = brevecomb;
}
);
width = 271;
},
{
anchors = (
{
name = _top;
pos = (135,700);
}
);
associatedMasterId = "897F30B6-1700-43C7-9C60-A606C7C7F267";
layerId = "79E80181-439A-4760-8302-415916467E3D";
name = "28 Jan 23, 22:11";
shapes = (
{
closed = 1;
nodes = (
(225,760,o),
(271,816,o),
(271,883,cs),
(271,896,l),
(214,896,l),
(214,851,o),
(192,817,o),
(135,817,cs),
(78,817,o),
(56,851,o),
(56,896,c),
(0,896,l),
(0,883,ls),
(0,816,o),
(45,760,o),
(135,760,cs)
);
}
);
width = 271;
},
{
anchors = (
{
name = _top;
pos = (159,700);
}
);
associatedMasterId = "BD1314B0-2F62-4F06-89D3-8B766BA843F0";
layerId = "81D6552F-84A4-4AF8-9461-A6CA491E69A2";
name = "28 Jan 23, 22:11";
shapes = (
{
closed = 1;
nodes = (
(256,747,o),
(320,806,o),
(320,904,cs),
(320,922,l),
(235,922,l),
(235,882,o),
(216,834,o),
(160,834,cs),
(103,834,o),
(84,882,o),
(84,922,c),
(0,922,l),
(0,904,ls),
(0,806,o),
(63,747,o),
(160,747,cs)
);
}
);
width = 320;
}
);
},
{
glyphname = ringcomb.case;
lastChange = "2023-08-04 13:48:12 +0000";
layers = (
{
associatedMasterId = "897F30B6-1700-43C7-9C60-A606C7C7F267";
layerId = "02575D39-7864-4EEF-9012-950E1A85E8A1";
name = public.background;
shapes = (
{
closed = 1;
nodes = (
(159,610,o),
(204,648,o),
(204,710,cs),
(204,772,o),
(159,810,o),
(102,810,cs),
(47,810,o),
(0,772,o),
(0,710,cs),
(0,648,o),
(47,610,o),
(102,610,cs)
);
},
{
closed = 1;
nodes = (
(70,649,o),
(44,673,o),
(44,710,cs),
(44,748,o),
(70,771,o),
(102,771,cs),
(135,771,o),
(161,748,o),
(161,710,cs),
(161,673,o),
(135,649,o),
(102,649,cs)
);
}
);
width = 232;
},
{
layerId = "BD1314B0-2F62-4F06-89D3-8B766BA843F0";
shapes = (
{
alignment = -1;
pos = (28,204);
ref = ringcomb;
}
);
width = 292;
},
{
layerId = "897F30B6-1700-43C7-9C60-A606C7C7F267";
shapes = (
{
pos = (29,204);
ref = ringcomb;
}
);
width = 264;
},
{
anchors = (
{
name = _top;
pos = (180,700);
}
);
associatedMasterId = "BD1314B0-2F62-4F06-89D3-8B766BA843F0";
layerId = "A05759E2-ACC7-421D-BA8B-6A0B678DEB3B";
name = "28 Jan 23, 22:59";
shapes = (
{
alignment = -1;
pos = (29,204);
ref = ringcomb;
}
);
width = 232;
},
{
anchors = (
{
name = _top;
pos = (166,700);
}
);
associatedMasterId = "897F30B6-1700-43C7-9C60-A606C7C7F267";
layerId = "D2D9557C-F8C2-4916-84F6-6E8E0E88870C";
name = "28 Jan 23, 22:59";
shapes = (
{
alignment = -1;
pos = (28,204);
ref = ringcomb;
}
);
width = 204;
},
{
anchors = (
{
name = _top;
pos = (102,700);
}
);
associatedMasterId = "897F30B6-1700-43C7-9C60-A606C7C7F267";
layerId = "981133E1-5C66-47E6-BA70-A3A7D45C9B98";
name = "28 Jan 23, 22:11";
shapes = (
{
closed = 1;
nodes = (
(159,764,o),
(204,802,o),
(204,864,cs),
(204,926,o),
(159,964,o),
(102,964,cs),
(47,964,o),
(0,926,o),
(0,864,cs),
(0,802,o),
(47,764,o),
(102,764,cs)
);
},
{
closed = 1;
nodes = (
(77,815,o),
(56,834,o),
(56,864,cs),
(56,894,o),
(77,913,o),
(102,913,cs),
(129,913,o),
(149,894,o),
(149,864,cs),
(149,834,o),
(129,815,o),
(102,815,cs)
);
}
);
width = 204;
},
{
anchors = (
{
name = _top;
pos = (116,700);
}
);
associatedMasterId = "BD1314B0-2F62-4F06-89D3-8B766BA843F0";
layerId = "85FA15B7-C6FA-474B-844B-033EC8E3928E";
name = "28 Jan 23, 22:11";
shapes = (
{
closed = 1;
nodes = (
(180,748,o),
(232,792,o),
(232,863,cs),
(232,934,o),
(180,977,o),
(116,977,cs),
(53,977,o),
(0,934,o),
(0,863,cs),
(0,792,o),
(53,748,o),
(116,748,cs)
);
},
{
closed = 1;
nodes = (
(88,810,o),
(65,831,o),
(65,863,cs),
(65,895,o),
(88,915,o),
(116,915,cs),
(145,915,o),
(167,895,o),
(167,863,cs),
(167,831,o),
(145,810,o),
(116,810,cs)
);
}
);
width = 232;
}
);
},
{
glyphname = tildecomb.case;
lastChange = "2023-08-04 13:48:12 +0000";
layers = (
{
associatedMasterId = "897F30B6-1700-43C7-9C60-A606C7C7F267";
layerId = "02575D39-7864-4EEF-9012-950E1A85E8A1";
name = public.background;
shapes = (
{
closed = 1;
nodes = (
(244,604,o),
(280,638,o),
(286,697,c),
(244,697,l),
(240,667,o),
(222,652,o),
(200,652,cs),
(157,652,o),
(140,699,o),
(88,699,cs),
(41,699,o),
(8,667,o),
(0,606,c),
(43,606,l),
(47,637,o),
(63,651,o),
(85,651,cs),
(126,651,o),
(144,604,o),
(197,604,cs)
);
}
);
width = 365;
},
{
layerId = "BD1314B0-2F62-4F06-89D3-8B766BA843F0";
shapes = (
{
pos = (27,190);
ref = tildecomb;
}
);
width = 425;
},
{
layerId = "897F30B6-1700-43C7-9C60-A606C7C7F267";
shapes = (
{
pos = (29,204);
ref = tildecomb;
}
);
width = 346;
},
{
anchors = (
{
name = _top;
pos = (243,700);
}
);
associatedMasterId = "BD1314B0-2F62-4F06-89D3-8B766BA843F0";
layerId = "451485D0-B430-4D3A-B907-5CEEC4B0E180";
name = "28 Jan 23, 22:59";
shapes = (
{
alignment = -1;
pos = (29,204);
ref = tildecomb;
}
);
width = 365;
},
{
anchors = (
{
name = _top;
pos = (196,700);
}
);
associatedMasterId = "897F30B6-1700-43C7-9C60-A606C7C7F267";
layerId = "AED37D18-5AA2-4F28-85C7-5DD4FC19058B";
name = "28 Jan 23, 22:59";
shapes = (
{
alignment = -1;
pos = (29,204);
ref = tildecomb;
}
);
width = 286;
},
{
anchors = (
{
name = _top;
pos = (132,700);
}
);
associatedMasterId = "897F30B6-1700-43C7-9C60-A606C7C7F267";
layerId = "56CF46D2-4853-4EE6-80AD-CDD1318C1C43";
name = "28 Jan 23, 22:11";
shapes = (
{
closed = 1;
nodes = (
(244,758,o),
(280,792,o),
(286,871,c),
(229,871,l),
(227,842,o),
(212,828,o),
(194,828,cs),
(167,828,o),
(140,873,o),
(88,873,cs),
(41,873,o),
(8,841,o),
(0,760,c),
(58,760,l),
(60,790,o),
(73,803,o),
(91,803,cs),
(116,803,o),
(144,758,o),
(197,758,cs)
);
}
);
width = 286;
},
{
anchors = (
{
name = _top;
pos = (179,700);
}
);
associatedMasterId = "BD1314B0-2F62-4F06-89D3-8B766BA843F0";
layerId = "E86B56C7-2F38-4AC0-831D-5053BFB8E043";
name = "28 Jan 23, 22:11";
shapes = (
{
closed = 1;
nodes = (
(305,750,o),
(351,791,o),
(365,881,c),
(291,881,l),
(287,851,o),
(271,836,o),
(248,836,cs),
(207,836,o),
(180,882,o),
(123,882,cs),
(59,882,o),
(14,842,o),
(0,751,c),
(73,751,l),
(78,782,o),
(94,796,o),
(117,796,cs),
(157,796,o),
(184,750,o),
(242,750,cs)
);
}
);
width = 365;
}
);
},
{
glyphname = macroncomb.case;
lastChange = "2023-08-04 13:48:12 +0000";
layers = (
{
associatedMasterId = "897F30B6-1700-43C7-9C60-A606C7C7F267";
layerId = "02575D39-7864-4EEF-9012-950E1A85E8A1";
name = public.background;
shapes = (
{
closed = 1;
nodes = (
(339,646,l),
(339,700,l),
(0,700,l),
(0,646,l)
);
}
);
width = 381;
},
{
layerId = "BD1314B0-2F62-4F06-89D3-8B766BA843F0";
shapes = (
{
pos = (29,204);
ref = macroncomb;
}
);
width = 441;
},
{
layerId = "897F30B6-1700-43C7-9C60-A606C7C7F267";
shapes = (
{
pos = (29,204);
ref = macroncomb;
}
);
width = 399;
},
{
anchors = (
{
name = _top;
pos = (255,700);
}
);
associatedMasterId = "BD1314B0-2F62-4F06-89D3-8B766BA843F0";
layerId = "FB417071-C552-4607-8B6D-6FDB80038081";
name = "28 Jan 23, 22:59";
shapes = (
{
alignment = -1;
pos = (29,204);
ref = macroncomb;
}
);
width = 381;
},
{
anchors = (
{
name = _top;
pos = (234,700);
}
);
associatedMasterId = "897F30B6-1700-43C7-9C60-A606C7C7F267";
layerId = "0CA60CE7-FE4E-4747-8D96-472E032775DC";
name = "28 Jan 23, 22:59";
shapes = (
{
alignment = -1;
pos = (28,204);
ref = macroncomb;
}
);
width = 339;
},
{
anchors = (
{
name = _top;
pos = (170,700);
}
);
associatedMasterId = "897F30B6-1700-43C7-9C60-A606C7C7F267";
layerId = "B81452AC-E6C1-4319-895E-CF28FA8A4F76";
name = "28 Jan 23, 22:11";
shapes = (
{
closed = 1;
nodes = (
(339,800,l),
(339,874,l),
(0,874,l),
(0,800,l)
);
}
);
width = 339;
},
{
anchors = (
{
name = _top;
pos = (191,700);
}
);
associatedMasterId = "BD1314B0-2F62-4F06-89D3-8B766BA843F0";
layerId = "6B0CB970-1286-455E-9F37-E8E17EF19F69";
name = "28 Jan 23, 22:11";
shapes = (
{
closed = 1;
nodes = (
(381,779,l),
(381,878,l),
(0,878,l),
(0,779,l)
);
}
);
width = 381;
}
);
},
{
glyphname = cedillacomb.case;
lastChange = "2023-08-04 13:48:12 +0000";
layers = (
{
associatedMasterId = "897F30B6-1700-43C7-9C60-A606C7C7F267";
layerId = "02575D39-7864-4EEF-9012-950E1A85E8A1";
name = public.background;
shapes = (
{
closed = 1;
nodes = (
(100,-258,ls),
(170,-258,o),
(217,-220,o),
(217,-160,cs),
(217,-98,o),
(167,-65,o),
(89,-67,c),
(89,7,l),
(40,7,l),
(40,-112,l),
(86,-112,ls),
(136,-112,o),
(158,-129,o),
(158,-160,cs),
(158,-194,o),
(136,-211,o),
(86,-211,cs),
(0,-211,l),
(0,-258,l)
);
}
);
width = 270;
},
{
layerId = "BD1314B0-2F62-4F06-89D3-8B766BA843F0";
shapes = (
{
ref = cedillacomb;
}
);
width = 330;
},
{
layerId = "897F30B6-1700-43C7-9C60-A606C7C7F267";
shapes = (
{
ref = cedillacomb;
}
);
width = 277;
},
{
anchors = (
{
name = _bottom;
pos = (78,3);
}
);
associatedMasterId = "BD1314B0-2F62-4F06-89D3-8B766BA843F0";
layerId = "0FC24FB4-48C8-4F38-BBAD-89EE8ED1BC52";
name = "28 Jan 23, 22:59";
shapes = (
{
alignment = -1;
ref = cedillacomb;
}
);
width = 270;
},
{
anchors = (
{
name = _bottom;
pos = (59,0);
}
);
associatedMasterId = "897F30B6-1700-43C7-9C60-A606C7C7F267";
layerId = "38909456-D23D-4119-A403-CD4EFD188FB9";
name = "28 Jan 23, 22:59";
shapes = (
{
alignment = -1;
ref = cedillacomb;
}
);
width = 217;
},
{
anchors = (
{
name = _bottom;
pos = (93,0);
}
);
associatedMasterId = "897F30B6-1700-43C7-9C60-A606C7C7F267";
layerId = "F866A2C4-50D7-4A40-931B-09F4AFE48F5A";
name = "28 Jan 23, 22:11";
shapes = (
{
alignment = -1;
ref = cedillacomb;
}
);
width = 217;
},
{
anchors = (
{
name = _bottom;
pos = (120,0);
}
);
associatedMasterId = "BD1314B0-2F62-4F06-89D3-8B766BA843F0";
layerId = "8709A940-295C-4D6E-85B6-4BCDF420349C";
name = "28 Jan 23, 22:11";
shapes = (
{
alignment = -1;
ref = cedillacomb;
}
);
width = 270;
}
);
},
{
glyphname = ogonekcomb.case;
lastChange = "2023-08-04 13:48:12 +0000";
layers = (
{
associatedMasterId = "897F30B6-1700-43C7-9C60-A606C7C7F267";
layerId = "02575D39-7864-4EEF-9012-950E1A85E8A1";
name = public.background;
shapes = (
{
closed = 1;
nodes = (
(137,-201,o),
(163,-196,o),
(185,-188,c),
(185,-139,l),
(163,-148,o),
(140,-153,o),
(121,-153,cs),
(84,-153,o),
(59,-135,o),
(59,-102,cs),
(59,-76,o),
(75,-52,o),
(122,-29,cs),
(182,0,l),
(163,38,l),
(108,13,ls),
(29,-23,o),
(0,-64,o),
(0,-109,cs),
(0,-176,o),
(56,-201,o),
(113,-201,cs)
);
}
);
width = 227;
},
{
layerId = "BD1314B0-2F62-4F06-89D3-8B766BA843F0";
shapes = (
{
ref = ogonekcomb;
}
);
width = 287;
},
{
layerId = "897F30B6-1700-43C7-9C60-A606C7C7F267";
shapes = (
{
ref = ogonekcomb;
}
);
width = 245;
},
{
anchors = (
{
name = _ogonek;
pos = (188,0);
}
);
associatedMasterId = "BD1314B0-2F62-4F06-89D3-8B766BA843F0";
layerId = "EE109B0E-989A-4635-A071-A5DD66F8C2D5";
name = "28 Jan 23, 22:59";
shapes = (
{
alignment = -1;
ref = ogonekcomb;
}
);
width = 227;
},
{
anchors = (
{
name = _ogonek;
pos = (147,0);
}
);
associatedMasterId = "897F30B6-1700-43C7-9C60-A606C7C7F267";
layerId = "A3B365F8-67F4-47D2-AD69-3C6D5B38D0CB";
name = "28 Jan 23, 22:59";
shapes = (
{
alignment = -1;
ref = ogonekcomb;
}
);
width = 185;
},
{
anchors = (
{
name = _ogonek;
pos = (182,0);
}
);
associatedMasterId = "897F30B6-1700-43C7-9C60-A606C7C7F267";
layerId = "CF8B61C0-056C-43F8-B675-F8CD4F9A93CE";
name = "28 Jan 23, 22:11";
shapes = (
{
closed = 1;
nodes = (
(137,-201,o),
(163,-196,o),
(185,-188,c),
(185,-139,l),
(163,-148,o),
(140,-153,o),
(121,-153,cs),
(84,-153,o),
(59,-135,o),
(59,-102,cs),
(59,-76,o),
(75,-52,o),
(122,-29,cs),
(182,0,l),
(163,38,l),
(108,13,ls),
(29,-23,o),
(0,-64,o),
(0,-109,cs),
(0,-176,o),
(56,-201,o),
(113,-201,cs)
);
}
);
width = 185;
},
{
anchors = (
{
name = _ogonek;
pos = (222,0);
}
);
associatedMasterId = "BD1314B0-2F62-4F06-89D3-8B766BA843F0";
layerId = "D0DF1D71-1B7A-44CF-8423-842C5161C732";
name = "28 Jan 23, 22:11";
shapes = (
{
closed = 1;
nodes = (
(170,-212,o),
(201,-206,o),
(227,-198,c),
(227,-116,l),
(201,-126,o),
(175,-131,o),
(155,-131,cs),
(124,-131,o),
(105,-116,o),
(105,-92,cs),
(105,-69,o),
(123,-49,o),
(171,-25,cs),
(222,0,l),
(191,65,l),
(146,46,ls),
(34,-2,o),
(0,-50,o),
(0,-105,cs),
(0,-179,o),
(62,-212,o),
(137,-212,cs)
);
}
);
width = 227;
}
);
},
{
color = 4;
glyphname = a.ss02;
kernLeft = o;
kernRight = u;
lastChange = "2023-01-28 22:49:46 +0000";
layers = (
{
associatedMasterId = "897F30B6-1700-43C7-9C60-A606C7C7F267";
layerId = "02575D39-7864-4EEF-9012-950E1A85E8A1";
name = public.background;
shapes = (
{
closed = 1;
nodes = (
(300,-10,o),
(381,44,o),
(413,116,c),
(413,0,l),
(484,0,l),
(484,319,ls),
(484,471,o),
(391,554,o),
(263,554,cs),
(133,554,o),
(51,470,o),
(35,359,c),
(104,359,l),
(117,443,o),
(177,493,o),
(261,493,cs),
(357,493,o),
(410,430,o),
(413,320,c),
(232,320,ls),
(89,320,o),
(21,246,o),
(21,150,cs),
(21,56,o),
(96,-10,o),
(203,-10,cs)
);
},
{
closed = 1;
nodes = (
(140,51,o),
(91,93,o),
(91,155,cs),
(91,218,o),
(137,263,o),
(232,263,cs),
(413,263,l),
(413,245,ls),
(413,122,o),
(317,51,o),
(216,51,cs)
);
}
);
width = 642;
},
{
anchors = (
{
name = bottom;
pos = (277,0);
},
{
name = center;
pos = (312,248);
},
{
name = ogonek;
pos = (535,0);
},
{
name = top;
pos = (335,495);
}
);
layerId = "BD1314B0-2F62-4F06-89D3-8B766BA843F0";
shapes = (
{
closed = 1;
nodes = (
(317,-12,o),
(369,22,o),
(406,65,c),
(403,0,l),
(535,0,l),
(605,496,l),
(472,496,l),
(453,429,l),
(426,477,o),
(376,508,o),
(300,508,cs),
(163,508,o),
(47,402,o),
(26,256,cs),
(4,104,o),
(97,-12,o),
(238,-12,cs)
);
},
{
closed = 1;
nodes = (
(202,110,o),
(156,166,o),
(167,242,cs),
(179,324,o),
(247,386,o),
(326,386,cs),
(401,386,o),
(446,331,o),
(435,255,cs),
(423,173,o),
(356,110,o),
(276,110,cs)
);
}
);
width = 607;
},
{
anchors = (
{
name = bottom;
pos = (270,0);
},
{
name = center;
pos = (305,248);
},
{
name = ogonek;
pos = (509,0);
},
{
name = top;
pos = (321,493);
}
);
layerId = "897F30B6-1700-43C7-9C60-A606C7C7F267";
shapes = (
{
closed = 1;
nodes = (
(344,-12,o),
(411,36,o),
(451,86,c),
(438,0,l),
(509,0,l),
(578,496,l),
(508,496,l),
(496,408,l),
(471,471,o),
(408,508,o),
(324,508,cs),
(173,508,o),
(61,399,o),
(41,249,cs),
(21,99,o),
(100,-12,o),
(250,-12,cs)
);
},
{
closed = 1;
nodes = (
(157,49,o),
(94,128,o),
(111,248,cs),
(128,368,o),
(213,447,o),
(319,447,cs),
(424,447,o),
(486,368,o),
(470,248,cs),
(454,128,o),
(368,49,o),
(262,49,cs)
);
}
);
width = 606;
}
);
},
{
color = 4;
glyphname = ae.ss02;
kernLeft = o;
kernRight = e;
lastChange = "2023-01-28 22:49:46 +0000";
layers = (
{
associatedMasterId = "897F30B6-1700-43C7-9C60-A606C7C7F267";
layerId = "02575D39-7864-4EEF-9012-950E1A85E8A1";
name = public.background;
shapes = (
{
closed = 1;
nodes = (
(387,-8,o),
(465,49,o),
(500,126,c),
(500,0,l),
(561,0,l),
(561,126,l),
(597,41,o),
(683,-8,o),
(780,-8,cs),
(913,-8,o),
(1001,70,o),
(1026,173,c),
(950,173,l),
(933,99,o),
(866,51,o),
(769,51,cs),
(670,51,o),
(569,120,o),
(569,265,cs),
(569,283,ls),
(569,421,o),
(664,494,o),
(770,494,cs),
(874,494,o),
(966,429,o),
(962,300,c),
(559,300,l),
(559,248,l),
(1030,248,l),
(1033,267,o),
(1034,281,o),
(1034,302,cs),
(1034,438,o),
(938,554,o),
(780,554,cs),
(685,554,o),
(605,512,o),
(561,422,c),
(561,546,l),
(502,546,l),
(502,423,l),
(463,503,o),
(387,554,o),
(285,554,c),
(132,554,o),
(21,445,o),
(21,274,c),
(21,103,o),
(132,-8,o),
(282,-8,c)
);
},
{
closed = 1;
nodes = (
(180,53,o),
(92,136,o),
(92,274,c),
(92,413,o),
(180,493,o),
(295,493,c),
(407,493,o),
(498,409,o),
(498,273,c),
(498,137,o),
(407,53,o),
(295,53,c)
);
}
);
width = 1124;
},
{
anchors = (
{
name = bottom;
pos = (469,0);
},
{
name = top;
pos = (541,496);
}
);
layerId = "BD1314B0-2F62-4F06-89D3-8B766BA843F0";
shapes = (
{
closed = 1;
nodes = (
(310,-12,o),
(361,-4,o),
(412,40,c),
(414,0,l),
(523,0,l),
(532,44,l),
(567,10,o),
(617,-12,o),
(683,-12,cs),
(804,-12,o),
(900,65,o),
(941,168,c),
(801,174,l),
(778,135,o),
(738,102,o),
(682,102,cs),
(619,102,o),
(578,142,o),
(582,210,c),
(954,210,l),
(957,227,o),
(962,244,o),
(963,254,cs),
(982,399,o),
(894,508,o),
(750,508,cs),
(690,508,o),
(631,491,o),
(585,446,c),
(594,496,l),
(482,496,l),
(463,435,l),
(439,480,o),
(386,508,o),
(313,508,cs),
(176,508,o),
(59,402,o),
(39,256,cs),
(18,104,o),
(110,-12,o),
(260,-12,cs)
);
},
{
closed = 1;
nodes = (
(215,110,o),
(169,166,o),
(179,242,cs),
(190,324,o),
(260,386,o),
(339,386,cs),
(414,386,o),
(458,331,o),
(448,255,cs),
(437,173,o),
(369,110,o),
(289,110,cs)
);
},
{
closed = 1;
nodes = (
(620,359,o),
(675,395,o),
(737,395,cs),
(794,395,o),
(831,359,o),
(827,302,c),
(599,295,l)
);
}
);
width = 992;
},
{
anchors = (
{
name = bottom;
pos = (477,0);
},
{
name = top;
pos = (552,496);
}
);
layerId = "897F30B6-1700-43C7-9C60-A606C7C7F267";
shapes = (
{
closed = 1;
nodes = (
(322,-12,o),
(387,3,o),
(449,66,c),
(446,0,l),
(511,0,l),
(519,64,l),
(556,16,o),
(614,-12,o),
(686,-12,cs),
(807,-12,o),
(895,62,o),
(932,161,c),
(866,161,l),
(835,91,o),
(774,48,o),
(694,48,cs),
(611,48,o),
(537,108,o),
(548,233,c),
(949,233,l),
(951,248,o),
(954,264,o),
(956,279,cs),
(973,398,o),
(904,508,o),
(761,508,cs),
(687,508,o),
(622,481,o),
(571,433,c),
(580,496,l),
(516,496,l),
(499,417,l),
(471,474,o),
(411,508,o),
(330,508,cs),
(179,508,o),
(68,399,o),
(47,249,cs),
(26,99,o),
(106,-12,o),
(256,-12,cs)
);
},
{
closed = 1;
nodes = (
(164,49,o),
(101,128,o),
(118,248,cs),
(135,368,o),
(220,447,o),
(325,447,cs),
(430,447,o),
(493,368,o),
(476,248,cs),
(459,128,o),
(374,49,o),
(269,49,cs)
);
},
{
closed = 1;
nodes = (
(579,394,o),
(664,448,o),
(749,448,cs),
(840,448,o),
(900,390,o),
(891,293,c),
(557,293,l)
);
}
);
width = 992;
}
);
},
{
color = 4;
glyphname = fi;
kernLeft = f;
kernRight = i;
lastChange = "2023-01-28 22:49:46 +0000";
layers = (
{
associatedMasterId = "897F30B6-1700-43C7-9C60-A606C7C7F267";
layerId = "02575D39-7864-4EEF-9012-950E1A85E8A1";
name = public.background;
shapes = (
{
closed = 1;
nodes = (
(472,0,l),
(472,546,l),
(22,546,l),
(22,487,l),
(402,487,l),
(402,0,l)
);
},
{
closed = 1;
nodes = (
(167,0,l),
(167,584,ls),
(167,663,o),
(197,697,o),
(290,697,c),
(290,757,l),
(152,757,o),
(97,701,o),
(97,584,cs),
(97,0,l)
);
},
{
closed = 1;
nodes = (
(466,649,o),
(489,671,o),
(489,701,cs),
(489,731,o),
(466,752,o),
(438,752,c),
(410,752,o),
(387,731,o),
(387,701,cs),
(387,671,o),
(410,649,o),
(438,649,c)
);
},
{
alignment = -1;
ref = f;
},
{
alignment = -1;
ref = i;
}
);
width = 598;
},
{
layerId = "BD1314B0-2F62-4F06-89D3-8B766BA843F0";
shapes = (
{
closed = 1;
nodes = (
(181,0,l),
(234,379,l),
(424,379,l),
(371,0,l),
(510,0,l),
(580,496,l),
(250,496,l),
(257,543,ls),
(263,586,o),
(279,601,o),
(326,601,cs),
(358,601,l),
(375,720,l),
(309,720,ls),
(185,720,o),
(141,704,o),
(119,557,cs),
(110,496,l),
(44,496,l),
(27,379,l),
(94,379,l),
(41,0,l)
);
},
{
closed = 1;
nodes = (
(607,564,l),
(629,720,l),
(456,720,l),
(434,564,l)
);
}
);
width = 598;
},
{
layerId = "897F30B6-1700-43C7-9C60-A606C7C7F267";
shapes = (
{
closed = 1;
nodes = (
(156,0,l),
(218,436,l),
(452,436,l),
(391,0,l),
(461,0,l),
(531,496,l),
(226,496,l),
(239,587,ls),
(248,649,o),
(262,660,o),
(322,660,cs),
(360,660,l),
(369,720,l),
(319,720,ls),
(223,720,o),
(184,690,o),
(170,594,cs),
(156,496,l),
(80,496,l),
(72,436,l),
(147,436,l),
(87,0,l)
);
},
{
closed = 1;
nodes = (
(563,599,l),
(577,702,l),
(475,702,l),
(460,599,l)
);
}
);
width = 598;
}
);
unicode = 64257;
},
{
glyphname = fl;
kernLeft = f;
kernRight = l;
lastChange = "2023-01-28 20:12:23 +0000";
layers = (
{
associatedMasterId = "897F30B6-1700-43C7-9C60-A606C7C7F267";
layerId = "02575D39-7864-4EEF-9012-950E1A85E8A1";
name = public.background;
shapes = (
{
alignment = -1;
ref = f;
},
{
alignment = -1;
pos = (325,0);
ref = l;
}
);
width = 635;
},
{
anchors = (
{
name = bottom;
pos = (453,0);
},
{
name = caret_1;
pos = (270,0);
},
{
name = commaaccent;
pos = (455,10);
},
{
name = top;
pos = (555,720);
},
{
name = topright;
pos = (655,554);
}
);
layerId = "BD1314B0-2F62-4F06-89D3-8B766BA843F0";
shapes = (
{
closed = 1;
nodes = (
(349,601,l),
(473,601,l),
(490,720,l),
(366,720,l)
);
},
{
alignment = -1;
pos = (-1,0);
ref = f;
},
{
alignment = -1;
pos = (366,0);
ref = l;
}
);
width = 603;
},
{
anchors = (
{
name = bottom;
pos = (429,0);
},
{
name = caret_1;
pos = (267,0);
},
{
name = commaaccent;
pos = (431,10);
},
{
name = top;
pos = (530,720);
},
{
name = topright;
pos = (596,546);
}
);
layerId = "897F30B6-1700-43C7-9C60-A606C7C7F267";
shapes = (
{
closed = 1;
nodes = (
(362,660,l),
(497,660,l),
(505,720,l),
(371,720,l)
);
},
{
alignment = -1;
pos = (45,0);
ref = f;
},
{
alignment = -1;
pos = (350,0);
ref = l;
}
);
width = 603;
}
);
unicode = 64258;
},
{
color = 4;
glyphname = ordfeminine;
lastChange = "2023-01-28 22:49:46 +0000";
layers = (
{
associatedMasterId = "897F30B6-1700-43C7-9C60-A606C7C7F267";
layerId = "02575D39-7864-4EEF-9012-950E1A85E8A1";
name = public.background;
shapes = (
{
closed = 1;
nodes = (
(270,347,o),
(318,380,o),
(337,426,c),
(337,353,l),
(394,353,l),
(394,703,l),
(337,703,l),
(337,629,l),
(317,675,o),
(270,709,o),
(200,709,cs),
(105,709,o),
(35,636,o),
(35,529,c),
(35,423,o),
(105,347,o),
(202,347,cs)
);
},
{
closed = 1;
nodes = (
(148,392,o),
(94,443,o),
(94,529,c),
(94,614,o),
(148,664,o),
(214,664,cs),
(283,664,o),
(337,613,o),
(337,528,c),
(337,443,o),
(283,392,o),
(214,392,cs)
);
}
);
width = 462;
},
{
layerId = "BD1314B0-2F62-4F06-89D3-8B766BA843F0";
shapes = (
{
closed = 1;
nodes = (
(270,348,o),
(312,369,o),
(338,402,c),
(340,354,l),
(436,354,l),
(486,705,l),
(387,705,l),
(369,649,l),
(352,683,o),
(313,710,o),
(250,710,cs),
(160,710,o),
(80,644,o),
(66,537,cs),
(51,424,o),
(115,348,o),
(214,348,cs)
);
},
{
closed = 1;
nodes = (
(200,432,o),
(167,464,o),
(174,522,cs),
(182,587,o),
(233,626,o),
(284,626,cs),
(330,626,o),
(363,596,o),
(355,536,cs),
(346,471,o),
(297,432,o),
(245,432,cs)
);
}
);
width = 452;
},
{
layerId = "897F30B6-1700-43C7-9C60-A606C7C7F267";
shapes = (
{
closed = 1;
nodes = (
(288,347,o),
(341,380,o),
(367,426,c),
(361,353,l),
(412,353,l),
(462,703,l),
(411,703,l),
(395,629,l),
(381,675,o),
(338,709,o),
(269,709,cs),
(174,709,o),
(94,636,o),
(79,529,cs),
(64,423,o),
(123,347,o),
(220,347,cs)
);
},
{
closed = 1;
nodes = (
(173,392,o),
(124,443,o),
(137,529,cs),
(150,614,o),
(210,664,o),
(277,664,cs),
(346,664,o),
(393,612,o),
(380,528,cs),
(367,443,o),
(307,392,o),
(238,392,cs)
);
}
);
width = 452;
}
);
unicode = 170;
},
{
color = 4;
glyphname = ordmasculine;
lastChange = "2023-01-28 22:49:46 +0000";
layers = (
{
associatedMasterId = "897F30B6-1700-43C7-9C60-A606C7C7F267";
layerId = "02575D39-7864-4EEF-9012-950E1A85E8A1";
name = public.background;
shapes = (
{
closed = 1;
nodes = (
(316,345,o),
(395,418,o),
(395,527,c),
(395,637,o),
(318,709,o),
(215,709,c),
(113,709,o),
(35,637,o),
(35,527,c),
(35,418,o),
(111,345,o),
(214,345,c)
);
},
{
closed = 1;
nodes = (
(148,392,o),
(94,439,o),
(94,527,c),
(94,616,o),
(149,663,o),
(214,663,c),
(280,663,o),
(336,616,o),
(336,527,c),
(336,439,o),
(279,392,o),
(214,392,c)
);
}
);
width = 449;
},
{
layerId = "BD1314B0-2F62-4F06-89D3-8B766BA843F0";
shapes = (
{
closed = 1;
nodes = (
(353,349,o),
(439,420,o),
(455,524,cs),
(472,635,o),
(399,712,o),
(280,712,cs),
(168,712,o),
(79,643,o),
(65,539,cs),
(50,428,o),
(121,349,o),
(241,349,cs)
);
},
{
closed = 1;
nodes = (
(195,433,o),
(164,462,o),
(173,524,cs),
(183,594,o),
(229,629,o),
(279,629,cs),
(324,629,o),
(357,601,o),
(349,539,cs),
(340,470,o),
(289,433,o),
(240,433,cs)
);
}
);
width = 440;
},
{
layerId = "897F30B6-1700-43C7-9C60-A606C7C7F267";
shapes = (
{
closed = 1;
nodes = (
(336,348,o),
(425,421,o),
(440,530,cs),
(455,640,o),
(389,712,o),
(286,712,cs),
(184,712,o),
(96,640,o),
(80,530,cs),
(65,421,o),
(130,348,o),
(234,348,cs)
);
},
{
closed = 1;
nodes = (
(174,395,o),
(126,442,o),
(139,530,cs),
(151,619,o),
(213,666,o),
(278,666,cs),
(344,666,o),
(394,619,o),
(381,530,cs),
(369,442,o),
(305,395,o),
(240,395,cs)
);
}
);
width = 440;
}
);
unicode = 186;
},
{
glyphname = pi;
lastChange = "2023-01-28 20:12:23 +0000";
layers = (
{
associatedMasterId = "897F30B6-1700-43C7-9C60-A606C7C7F267";
layerId = "02575D39-7864-4EEF-9012-950E1A85E8A1";
name = public.background;
shapes = (
{
closed = 1;
nodes = (
(131,0,l),
(131,490,l),
(445,490,l),
(445,0,l),
(515,0,l),
(515,490,l),
(596,490,l),
(596,546,l),
(-20,546,l),
(-20,490,l),
(61,490,l),
(61,0,l)
);
}
);
width = 647;
},
{
layerId = "BD1314B0-2F62-4F06-89D3-8B766BA843F0";
shapes = (
{
closed = 1;
nodes = (
(199,0,l),
(255,389,l),
(415,389,l),
(361,0,l),
(500,0,l),
(556,389,l),
(629,389,l),
(643,496,l),
(56,496,l),
(40,389,l),
(114,389,l),
(60,0,l)
);
}
);
width = 628;
},
{
layerId = "897F30B6-1700-43C7-9C60-A606C7C7F267";
shapes = (
{
closed = 1;
nodes = (
(158,0,l),
(219,440,l),
(463,440,l),
(401,0,l),
(471,0,l),
(533,440,l),
(614,440,l),
(622,496,l),
(75,496,l),
(68,440,l),
(149,440,l),
(87,0,l)
);
}
);
width = 628;
}
);
unicode = 960;
},
